{
.appVersion = "1056";
classes = (
{
automatic = 1;

glyphs = (
{
glyphname = .notdef;
lastChange = "2018-02-18 05:41:45 +0000";
layers = (
{
layerId = "3F42F969-BD6F-4F86-8089-1D5B5CB6E2D2";
paths = (
{
closed = 1;
nodes = (
"1128 1444 LINE",
"104 1444 LINE",
"104 -362 LINE",
"1128 -362 LINE"
);
},
{
closed = 1;
nodes = (
"1014 1329 LINE",
"1014 -248 LINE",
"219 -248 LINE",
"219 1329 LINE"
);
}
);
width = 1233;
}
);
note = .notdef;
},
{
glyphname = exclam;
lastChange = "2018-02-18 05:41:45 +0000";
layers = (
{
layerId = "3F42F969-BD6F-4F86-8089-1D5B5CB6E2D2";
paths = (
{
closed = 1;
nodes = (
"567 531 LINE",
"728 531 LINE",
"749 838 LINE",
"749 1493 LINE",
"546 1493 LINE",
"546 838 LINE"
);
},
{
closed = 1;
nodes = (
"779 0 LINE",
"779 254 LINE",
"516 254 LINE",
"516 0 LINE"
);
}
);
width = 1233;
}
);
note = exclam;
unicode = 0021;
},
{
glyphname = quotedbl;
lastChange = "2018-02-18 05:41:45 +0000";
layers = (
{
layerId = "3F42F969-BD6F-4F86-8089-1D5B5CB6E2D2";
paths = (
{
closed = 1;
nodes = (
"721 935 LINE",
"945 935 LINE",
"945 1547 LINE",
"721 1547 LINE"
);
},
{
closed = 1;
nodes = (
"188 935 LINE",
"412 935 LINE",
"412 1547 LINE",
"188 1547 LINE"
);
}
);
width = 1233;
}
);
note = quotedbl;
unicode = 0022;
},
{
glyphname = numbersign;
lastChange = "2018-02-18 05:41:45 +0000";
layers = (
{
layerId = "3F42F969-BD6F-4F86-8089-1D5B5CB6E2D2";
paths = (
{
closed = 1;
nodes = (
"434 1111 LINE",
"131 1111 LINE",
"131 958 LINE",
"397 958 LINE",
"299 565 LINE",
"2 565 LINE",
"2 412 LINE",
"260 412 LINE",
"156 0 LINE",
"315 0 LINE",
"420 412 LINE",
"666 412 LINE",
"561 0 LINE",
"721 0 LINE",
"825 412 LINE",
"1114 412 LINE",
"1114 565 LINE",
"864 565 LINE",
"962 958 LINE",
"1243 958 LINE",
"1243 1111 LINE",
"999 1111 LINE",
"1090 1465 LINE",
"930 1465 LINE",
"839 1111 LINE",
"594 1111 LINE",
"684 1465 LINE",
"524 1465 LINE"
);
},
{
closed = 1;
nodes = (
"459 565 LINE",
"557 958 LINE",
"802 958 LINE",
"705 565 LINE"
);
}
);
width = 1233;
}
);
note = numbersign;
unicode = 0023;
},
{
glyphname = dollar;
lastChange = "2018-02-18 05:41:45 +0000";
layers = (
{
layerId = "3F42F969-BD6F-4F86-8089-1D5B5CB6E2D2";
paths = (
{
closed = 1;
nodes = (
"855 555 OFFCURVE",
"926 489 OFFCURVE",
"926 365 CURVE SMOOTH",
"926 232 OFFCURVE",
"839 150 OFFCURVE",
"692 146 CURVE",
"692 580 LINE"
);
},
{
closed = 1;
nodes = (
"443 793 OFFCURVE",
"371 858 OFFCURVE",
"371 973 CURVE SMOOTH",
"371 1098 OFFCURVE",
"453 1178 OFFCURVE",
"592 1183 CURVE",
"592 770 LINE"
);
},
{
closed = 1;
nodes = (
"944 14 OFFCURVE",
"1114 166 OFFCURVE",
"1114 371 CURVE SMOOTH",
"1114 576 OFFCURVE",
"967 709 OFFCURVE",
"692 750 CURVE",
"692 1181 LINE",
"799 1176 OFFCURVE",
"905 1144 OFFCURVE",
"1018 1087 CURVE",
"1018 1260 LINE",
"906 1295 OFFCURVE",
"798 1314 OFFCURVE",
"693 1321 CURVE",
"692 1556 LINE",
"592 1556 LINE",
"592 1321 LINE",
"337 1302 OFFCURVE",
"190 1172 OFFCURVE",
"190 963 CURVE SMOOTH",
"190 763 OFFCURVE",
"325 641 OFFCURVE",
"592 600 CURVE",
"592 142 LINE",
"460 145 OFFCURVE",
"323 189 OFFCURVE",
"190 272 CURVE",
"190 92 LINE",
"321 37 OFFCURVE",
"455 7 OFFCURVE",
"591 0 CURVE",
"592 -301 LINE",
"692 -301 LINE",
"693 2 LINE"
);
}
);
width = 1233;
}
);
note = dollar;
unicode = 0024;
},
{
glyphname = percent;
lastChange = "2018-02-18 05:41:45 +0000";
layers = (
{
layerId = "3F42F969-BD6F-4F86-8089-1D5B5CB6E2D2";
paths = (
{
closed = 1;
nodes = (
"696 424 OFFCURVE",
"775 504 OFFCURVE",
"879 504 CURVE SMOOTH",
"980 504 OFFCURVE",
"1063 422 OFFCURVE",
"1063 319 CURVE SMOOTH",
"1063 216 OFFCURVE",
"982 135 OFFCURVE",
"879 135 CURVE SMOOTH",
"775 135 OFFCURVE",
"696 215 OFFCURVE",
"696 319 CURVE SMOOTH"
);
},
{
closed = 1;
nodes = (
"561 138 OFFCURVE",
"698 0 OFFCURVE",
"879 0 CURVE SMOOTH",
"1059 0 OFFCURVE",
"1200 142 OFFCURVE",
"1200 319 CURVE SMOOTH",
"1200 403 OFFCURVE",
"1165 482 OFFCURVE",
"1104 545 CURVE SMOOTH",
"1043 606 OFFCURVE",
"964 639 OFFCURVE",
"879 639 CURVE SMOOTH",
"700 639 OFFCURVE",
"561 499 OFFCURVE",
"561 319 CURVE SMOOTH"
);
},
{
closed = 1;
nodes = (
"1154 999 LINE",
"39 553 LINE",
"83 440 LINE",
"1204 886 LINE"
);
},
{
closed = 1;
nodes = (
"168 1216 OFFCURVE",
"249 1296 OFFCURVE",
"352 1296 CURVE SMOOTH",
"455 1296 OFFCURVE",
"537 1215 OFFCURVE",
"537 1112 CURVE SMOOTH",
"537 1009 OFFCURVE",
"455 928 OFFCURVE",
"352 928 CURVE SMOOTH",
"247 928 OFFCURVE",
"168 1007 OFFCURVE",
"168 1112 CURVE SMOOTH"
);
},
{
closed = 1;
nodes = (
"33 932 OFFCURVE",
"172 793 OFFCURVE",
"352 793 CURVE SMOOTH",
"531 793 OFFCURVE",
"672 933 OFFCURVE",
"672 1112 CURVE SMOOTH",
"672 1199 OFFCURVE",
"638 1279 OFFCURVE",
"578 1339 CURVE SMOOTH",
"518 1399 OFFCURVE",
"437 1432 OFFCURVE",
"352 1432 CURVE SMOOTH",
"172 1432 OFFCURVE",
"33 1292 OFFCURVE",
"33 1112 CURVE SMOOTH"
);
}
);
width = 1233;
}
);
note = percent;
unicode = 0025;
},
{
glyphname = ampersand;
lastChange = "2018-02-18 05:41:45 +0000";
layers = (
{
layerId = "3F42F969-BD6F-4F86-8089-1D5B5CB6E2D2";
paths = (
{
closed = 1;
nodes = (
"444 1044 OFFCURVE",
"412 1119 OFFCURVE",
"412 1198 CURVE SMOOTH",
"412 1301 OFFCURVE",
"492 1366 OFFCURVE",
"621 1366 CURVE SMOOTH",
"713 1366 OFFCURVE",
"795 1342 OFFCURVE",
"874 1290 CURVE",
"874 1473 LINE",
"781 1504 OFFCURVE",
"695 1520 OFFCURVE",
"608 1520 CURVE SMOOTH",
"377 1520 OFFCURVE",
"236 1396 OFFCURVE",
"236 1196 CURVE SMOOTH",
"236 1101 OFFCURVE",
"267 1011 OFFCURVE",
"334 915 CURVE",
"149 782 OFFCURVE",
"57 627 OFFCURVE",
"57 444 CURVE SMOOTH",
"57 172 OFFCURVE",
"267 -29 OFFCURVE",
"555 -29 CURVE SMOOTH",
"696 -29 OFFCURVE",
"819 16 OFFCURVE",
"930 109 CURVE",
"1008 0 LINE",
"1221 0 LINE",
"1051 229 LINE",
"1151 346 OFFCURVE",
"1200 506 OFFCURVE",
"1200 721 CURVE SMOOTH",
"1200 760 LINE",
"1036 760 LINE",
"1037 753 LINE",
"1039 706 OFFCURVE",
"1040 672 OFFCURVE",
"1040 651 CURVE SMOOTH",
"1040 512 OFFCURVE",
"1015 413 OFFCURVE",
"963 348 CURVE",
"547 907 LINE SMOOTH"
);
},
{
closed = 1;
nodes = (
"823 206 OFFCURVE",
"802 192 OFFCURVE",
"766 172 CURVE SMOOTH",
"707 141 OFFCURVE",
"644 125 OFFCURVE",
"588 125 CURVE SMOOTH",
"381 125 OFFCURVE",
"233 274 OFFCURVE",
"233 475 CURVE SMOOTH",
"233 598 OFFCURVE",
"293 706 OFFCURVE",
"416 803 CURVE",
"844 223 LINE"
);
}
);
width = 1233;
}
);
note = ampersand;
unicode = 0026;
},
{
glyphname = quotesingle;
lastChange = "2018-02-18 05:41:45 +0000";
layers = (
{
layerId = "3F42F969-BD6F-4F86-8089-1D5B5CB6E2D2";
paths = (
{
closed = 1;
nodes = (
"518 935 LINE",
"742 935 LINE",
"742 1558 LINE",
"518 1558 LINE"
);
}
);
width = 1233;
}
);
note = quotesingle;
unicode = 0027;
},
{
glyphname = parenleft;
lastChange = "2018-02-18 05:41:45 +0000";
layers = (
{
layerId = "3F42F969-BD6F-4F86-8089-1D5B5CB6E2D2";
paths = (
{
closed = 1;
nodes = (
"494 1339 OFFCURVE",
"396 1040 OFFCURVE",
"396 743 CURVE SMOOTH",
"396 444 OFFCURVE",
"494 147 OFFCURVE",
"695 -170 CURVE",
"855 -170 LINE",
"678 137 OFFCURVE",
"591 438 OFFCURVE",
"591 743 CURVE SMOOTH",
"591 1050 OFFCURVE",
"678 1350 OFFCURVE",
"855 1654 CURVE",
"695 1654 LINE"
);
}
);
width = 1233;
}
);
note = parenleft;
unicode = 0028;
},
{
glyphname = parenright;
lastChange = "2018-02-18 05:41:45 +0000";
layers = (
{
layerId = "3F42F969-BD6F-4F86-8089-1D5B5CB6E2D2";
paths = (
{
closed = 1;
nodes = (
"525 1349 OFFCURVE",
"612 1047 OFFCURVE",
"612 743 CURVE SMOOTH",
"612 440 OFFCURVE",
"525 139 OFFCURVE",
"348 -170 CURVE",
"508 -170 LINE",
"709 145 OFFCURVE",
"807 443 OFFCURVE",
"807 743 CURVE SMOOTH",
"807 1040 OFFCURVE",
"709 1339 OFFCURVE",
"508 1654 CURVE",
"348 1654 LINE"
);
}
);
width = 1233;
}
);
note = parenright;
unicode = 0029;
},
{
glyphname = asterisk;
lastChange = "2018-02-18 05:41:45 +0000";
layers = (
{
layerId = "3F42F969-BD6F-4F86-8089-1D5B5CB6E2D2";
paths = (
{
closed = 1;
nodes = (
"691 743 LINE",
"691 1209 LINE",
"548 1209 LINE",
"548 743 LINE",
"130 994 LINE",
"60 871 LINE",
"505 631 LINE",
"60 390 LINE",
"130 268 LINE",
"548 519 LINE",
"548 53 LINE",
"691 53 LINE",
"691 519 LINE",
"1109 268 LINE",
"1179 390 LINE",
"735 631 LINE",
"1179 871 LINE",
"1109 994 LINE"
);
}
);
width = 1233;
}
);
note = asterisk;
unicode = 002A;
},
{
glyphname = plus;
lastChange = "2018-02-18 05:41:45 +0000";
layers = (
{
layerId = "3F42F969-BD6F-4F86-8089-1D5B5CB6E2D2";
paths = (
{
closed = 1;
nodes = (
"552 735 LINE",
"108 735 LINE",
"108 566 LINE",
"552 566 LINE",
"552 123 LINE",
"720 123 LINE",
"720 566 LINE",
"1165 566 LINE",
"1165 735 LINE",
"720 735 LINE",
"720 1178 LINE",
"552 1178 LINE"
);
}
);
width = 1233;
}
);
note = plus;
unicode = 002B;
},
{
glyphname = comma;
lastChange = "2018-02-18 05:41:45 +0000";
layers = (
{
layerId = "3F42F969-BD6F-4F86-8089-1D5B5CB6E2D2";
paths = (
{
closed = 1;
nodes = (
"332 -336 LINE",
"532 -335 LINE",
"754 96 LINE",
"754 361 LINE",
"442 361 LINE",
"442 96 LINE"
);
}
);
width = 1233;
}
);
note = comma;
unicode = 002C;
},
{
glyphname = hyphen;
lastChange = "2018-02-18 05:41:45 +0000";
layers = (
{
layerId = "3F42F969-BD6F-4F86-8089-1D5B5CB6E2D2";
paths = (
{
closed = 1;
nodes = (
"1162 555 LINE",
"1162 724 LINE",
"102 724 LINE",
"102 555 LINE"
);
}
);
width = 1233;
}
);
note = hyphen;
unicode = 002D;
},
{
glyphname = period;
lastChange = "2018-02-18 05:41:45 +0000";
layers = (
{
layerId = "3F42F969-BD6F-4F86-8089-1D5B5CB6E2D2";
paths = (
{
closed = 1;
nodes = (
"741 0 LINE",
"741 404 LINE",
"389 404 LINE",
"389 0 LINE"
);
}
);
width = 1233;
}
);
note = period;
unicode = 002E;
},
{
glyphname = slash;
lastChange = "2018-02-18 05:41:45 +0000";
layers = (
{
layerId = "3F42F969-BD6F-4F86-8089-1D5B5CB6E2D2";
paths = (
{
closed = 1;
nodes = (
"293 -190 LINE",
"1079 1493 LINE",
"889 1493 LINE",
"102 -190 LINE"
);
}
);
width = 1233;
}
);
note = slash;
unicode = 002F;
},
{
glyphname = zero;
lastChange = "2018-02-18 05:41:45 +0000";
layers = (
{
layerId = "3F42F969-BD6F-4F86-8089-1D5B5CB6E2D2";
paths = (
{
closed = 1;
nodes = (
"297 1515 OFFCURVE",
"133 1252 OFFCURVE",
"133 743 CURVE SMOOTH",
"133 234 OFFCURVE",
"297 -29 OFFCURVE",
"616 -29 CURVE SMOOTH",
"935 -29 OFFCURVE",
"1100 234 OFFCURVE",
"1100 743 CURVE SMOOTH",
"1100 1252 OFFCURVE",
"935 1515 OFFCURVE",
"616 1515 CURVE SMOOTH"
);
},
{
closed = 1;
nodes = (
"523 131 OFFCURVE",
"451 186 OFFCURVE",
"401 296 CURVE",
"877 1041 LINE",
"890 952 OFFCURVE",
"897 853 OFFCURVE",
"897 743 CURVE SMOOTH",
"897 536 OFFCURVE",
"874 383 OFFCURVE",
"828 282 CURVE SMOOTH",
"781 181 OFFCURVE",
"711 131 OFFCURVE",
"616 131 CURVE SMOOTH"
);
},
{
closed = 1;
nodes = (
"702 1355 OFFCURVE",
"770 1311 OFFCURVE",
"821 1222 CURVE",
"355 479 LINE",
"342 561 OFFCURVE",
"336 649 OFFCURVE",
"336 743 CURVE SMOOTH",
"336 950 OFFCURVE",
"359 1103 OFFCURVE",
"406 1204 CURVE SMOOTH",
"452 1305 OFFCURVE",
"522 1355 OFFCURVE",
"616 1355 CURVE SMOOTH"
);
}
);
width = 1233;
}
);
note = zero;
unicode = 0030;
},
{
glyphname = one;
lastChange = "2018-02-18 05:41:45 +0000";
layers = (
{
layerId = "3F42F969-BD6F-4F86-8089-1D5B5CB6E2D2";
paths = (
{
closed = 1;
nodes = (
"1094 0 LINE",
"1094 169 LINE",
"784 169 LINE",
"784 1488 LINE",
"582 1488 LINE",
"208 1310 LINE",
"208 1116 LINE",
"584 1297 LINE",
"584 169 LINE",
"270 169 LINE",
"270 0 LINE"
);
}
);
width = 1233;
}
);
note = one;
unicode = 0031;
},
{
glyphname = two;
lastChange = "2018-02-18 05:41:45 +0000";
layers = (
{
layerId = "3F42F969-BD6F-4F86-8089-1D5B5CB6E2D2";
paths = (
{
closed = 1;
nodes = (
"518 323 OFFCURVE",
"627 437 OFFCURVE",
"698 514 CURVE SMOOTH",
"769 591 OFFCURVE",
"823 651 OFFCURVE",
"860 694 CURVE SMOOTH",
"993 849 OFFCURVE",
"1049 970 OFFCURVE",
"1049 1098 CURVE SMOOTH",
"1049 1350 OFFCURVE",
"855 1520 OFFCURVE",
"563 1520 CURVE SMOOTH",
"434 1520 OFFCURVE",
"301 1486 OFFCURVE",
"164 1421 CURVE",
"164 1217 LINE",
"313 1306 OFFCURVE",
"446 1350 OFFCURVE",
"567 1350 CURVE SMOOTH",
"738 1350 OFFCURVE",
"842 1250 OFFCURVE",
"842 1083 CURVE SMOOTH",
"842 978 OFFCURVE",
"805 894 OFFCURVE",
"672 731 CURVE SMOOTH",
"601 648 OFFCURVE",
"401 433 OFFCURVE",
"152 170 CURVE",
"152 0 LINE",
"1059 0 LINE",
"1059 170 LINE",
"373 170 LINE"
);
}
);
width = 1233;
}
);
note = two;
unicode = 0032;
},
{
glyphname = three;
lastChange = "2018-02-18 05:41:45 +0000";
layers = (
{
layerId = "3F42F969-BD6F-4F86-8089-1D5B5CB6E2D2";
paths = (
{
closed = 1;
nodes = (
"951 844 OFFCURVE",
"1044 956 OFFCURVE",
"1044 1120 CURVE SMOOTH",
"1044 1361 OFFCURVE",
"856 1520 OFFCURVE",
"565 1520 CURVE SMOOTH",
"468 1520 OFFCURVE",
"343 1499 OFFCURVE",
"182 1456 CURVE",
"182 1270 LINE",
"321 1323 OFFCURVE",
"446 1350 OFFCURVE",
"565 1350 CURVE SMOOTH",
"744 1350 OFFCURVE",
"844 1265 OFFCURVE",
"844 1112 CURVE SMOOTH",
"844 967 OFFCURVE",
"734 881 OFFCURVE",
"549 881 CURVE SMOOTH",
"395 881 LINE",
"395 715 LINE",
"549 715 LINE SMOOTH",
"752 715 OFFCURVE",
"879 605 OFFCURVE",
"879 432 CURVE SMOOTH",
"879 244 OFFCURVE",
"756 141 OFFCURVE",
"535 141 CURVE SMOOTH",
"404 141 OFFCURVE",
"273 175 OFFCURVE",
"137 246 CURVE",
"137 45 LINE",
"274 -3 OFFCURVE",
"420 -29 OFFCURVE",
"557 -29 CURVE SMOOTH",
"884 -29 OFFCURVE",
"1079 137 OFFCURVE",
"1079 412 CURVE SMOOTH",
"1079 611 OFFCURVE",
"972 747 OFFCURVE",
"776 799 CURVE"
);
}
);
width = 1233;
}
);
note = three;
unicode = 0033;
},
{
glyphname = four;
lastChange = "2018-02-18 05:41:45 +0000";
layers = (
{
layerId = "3F42F969-BD6F-4F86-8089-1D5B5CB6E2D2";
paths = (
{
closed = 1;
nodes = (
"264 520 LINE",
"735 1309 LINE",
"735 520 LINE"
);
},
{
closed = 1;
nodes = (
"102 356 LINE",
"735 356 LINE",
"735 0 LINE",
"936 0 LINE",
"936 356 LINE",
"1135 356 LINE",
"1135 520 LINE",
"936 520 LINE",
"936 1493 LINE",
"702 1493 LINE",
"102 547 LINE"
);
}
);
width = 1233;
}
);
note = four;
unicode = 0034;
},
{
glyphname = five;
lastChange = "2018-02-18 05:41:45 +0000";
layers = (
{
layerId = "3F42F969-BD6F-4F86-8089-1D5B5CB6E2D2";
paths = (
{
closed = 1;
nodes = (
"300 792 OFFCURVE",
"404 817 OFFCURVE",
"512 817 CURVE SMOOTH",
"735 817 OFFCURVE",
"866 692 OFFCURVE",
"866 479 CURVE SMOOTH",
"866 263 OFFCURVE",
"741 141 OFFCURVE",
"518 141 CURVE SMOOTH",
"389 141 OFFCURVE",
"266 173 OFFCURVE",
"143 240 CURVE",
"143 35 LINE",
"247 -8 OFFCURVE",
"378 -29 OFFCURVE",
"537 -29 CURVE SMOOTH",
"866 -29 OFFCURVE",
"1069 164 OFFCURVE",
"1069 479 CURVE SMOOTH",
"1069 791 OFFCURVE",
"874 987 OFFCURVE",
"565 987 CURVE SMOOTH",
"506 987 OFFCURVE",
"448 977 OFFCURVE",
"391 956 CURVE",
"391 1323 LINE",
"963 1323 LINE",
"963 1493 LINE",
"207 1493 LINE",
"207 743 LINE"
);
}
);
width = 1233;
}
);
note = five;
unicode = 0035;
},
{
glyphname = six;
lastChange = "2018-02-18 05:41:45 +0000";
layers = (
{
layerId = "3F42F969-BD6F-4F86-8089-1D5B5CB6E2D2";
paths = (
{
closed = 1;
nodes = (
"899 1499 OFFCURVE",
"799 1520 OFFCURVE",
"700 1520 CURVE SMOOTH",
"332 1520 OFFCURVE",
"133 1249 OFFCURVE",
"133 745 CURVE SMOOTH",
"133 210 OFFCURVE",
"288 -29 OFFCURVE",
"635 -29 CURVE SMOOTH",
"930 -29 OFFCURVE",
"1100 156 OFFCURVE",
"1100 479 CURVE SMOOTH",
"1100 803 OFFCURVE",
"935 987 OFFCURVE",
"647 987 CURVE SMOOTH",
"500 987 OFFCURVE",
"383 913 OFFCURVE",
"319 780 CURVE",
"319 1155 OFFCURVE",
"453 1350 OFFCURVE",
"709 1350 CURVE SMOOTH",
"812 1350 OFFCURVE",
"907 1323 OFFCURVE",
"991 1274 CURVE",
"991 1460 LINE"
);
},
{
closed = 1;
nodes = (
"810 829 OFFCURVE",
"901 711 OFFCURVE",
"901 479 CURVE SMOOTH",
"901 248 OFFCURVE",
"810 129 OFFCURVE",
"631 129 CURVE SMOOTH",
"459 129 OFFCURVE",
"354 260 OFFCURVE",
"354 479 CURVE SMOOTH",
"354 698 OFFCURVE",
"459 829 OFFCURVE",
"631 829 CURVE SMOOTH"
);
}
);
width = 1233;
}
);
note = six;
unicode = 0036;
},
{
glyphname = seven;
lastChange = "2018-02-18 05:41:45 +0000";
layers = (
{
layerId = "3F42F969-BD6F-4F86-8089-1D5B5CB6E2D2";
paths = (
{
closed = 1;
nodes = (
"854 1323 LINE",
"334 0 LINE",
"545 0 LINE",
"1079 1407 LINE",
"1079 1493 LINE",
"139 1493 LINE",
"139 1323 LINE"
);
}
);
width = 1233;
}
);
note = seven;
unicode = 0037;
},
{
glyphname = eight;
lastChange = "2018-02-18 05:41:45 +0000";
layers = (
{
layerId = "3F42F969-BD6F-4F86-8089-1D5B5CB6E2D2";
paths = (
{
closed = 1;
nodes = (
"795 709 OFFCURVE",
"899 603 OFFCURVE",
"899 420 CURVE SMOOTH",
"899 233 OFFCURVE",
"797 129 OFFCURVE",
"616 129 CURVE SMOOTH",
"439 129 OFFCURVE",
"334 236 OFFCURVE",
"334 420 CURVE SMOOTH",
"334 604 OFFCURVE",
"436 709 OFFCURVE",
"616 709 CURVE SMOOTH"
);
},
{
closed = 1;
nodes = (
"240 749 OFFCURVE",
"131 612 OFFCURVE",
"131 399 CURVE SMOOTH",
"131 131 OFFCURVE",
"312 -29 OFFCURVE",
"616 -29 CURVE SMOOTH",
"920 -29 OFFCURVE",
"1102 132 OFFCURVE",
"1102 401 CURVE SMOOTH",
"1102 613 OFFCURVE",
"993 749 OFFCURVE",
"793 793 CURVE",
"965 837 OFFCURVE",
"1067 964 OFFCURVE",
"1067 1133 CURVE SMOOTH",
"1067 1370 OFFCURVE",
"895 1520 OFFCURVE",
"616 1520 CURVE SMOOTH",
"339 1520 OFFCURVE",
"166 1370 OFFCURVE",
"166 1133 CURVE SMOOTH",
"166 964 OFFCURVE",
"268 837 OFFCURVE",
"440 793 CURVE"
);
},
{
closed = 1;
nodes = (
"367 1275 OFFCURVE",
"455 1364 OFFCURVE",
"616 1364 CURVE SMOOTH",
"780 1364 OFFCURVE",
"866 1277 OFFCURVE",
"866 1114 CURVE SMOOTH",
"866 954 OFFCURVE",
"779 868 OFFCURVE",
"616 868 CURVE SMOOTH",
"455 868 OFFCURVE",
"367 954 OFFCURVE",
"367 1114 CURVE SMOOTH"
);
}
);
width = 1233;
}
);
note = eight;
unicode = 0038;
},
{
glyphname = nine;
lastChange = "2018-02-18 05:41:45 +0000";
layers = (
{
layerId = "3F42F969-BD6F-4F86-8089-1D5B5CB6E2D2";
paths = (
{
closed = 1;
nodes = (
"416 662 OFFCURVE",
"326 780 OFFCURVE",
"326 1012 CURVE SMOOTH",
"326 1243 OFFCURVE",
"417 1362 OFFCURVE",
"596 1362 CURVE SMOOTH",
"768 1362 OFFCURVE",
"872 1231 OFFCURVE",
"872 1012 CURVE SMOOTH",
"872 793 OFFCURVE",
"768 662 OFFCURVE",
"596 662 CURVE SMOOTH"
);
},
{
closed = 1;
nodes = (
"328 -8 OFFCURVE",
"429 -29 OFFCURVE",
"526 -29 CURVE SMOOTH",
"895 -29 OFFCURVE",
"1094 242 OFFCURVE",
"1094 745 CURVE SMOOTH",
"1094 1280 OFFCURVE",
"939 1520 OFFCURVE",
"592 1520 CURVE SMOOTH",
"296 1520 OFFCURVE",
"127 1335 OFFCURVE",
"127 1014 CURVE SMOOTH",
"127 689 OFFCURVE",
"292 504 OFFCURVE",
"580 504 CURVE SMOOTH",
"727 504 OFFCURVE",
"844 578 OFFCURVE",
"907 711 CURVE",
"907 336 OFFCURVE",
"774 141 OFFCURVE",
"518 141 CURVE SMOOTH",
"415 141 OFFCURVE",
"320 168 OFFCURVE",
"236 217 CURVE",
"236 31 LINE"
);
}
);
width = 1233;
}
);
note = nine;
unicode = 0039;
},
{
glyphname = colon;
lastChange = "2018-02-18 05:41:45 +0000";
layers = (
{
layerId = "3F42F969-BD6F-4F86-8089-1D5B5CB6E2D2";
paths = (
{
closed = 1;
nodes = (
"741 758 LINE",
"741 1119 LINE",
"429 1119 LINE",
"429 758 LINE"
);
},
{
closed = 1;
nodes = (
"741 0 LINE",
"741 364 LINE",
"429 364 LINE",
"429 0 LINE"
);
}
);
width = 1233;
}
);
note = colon;
unicode = 003A;
},
{
glyphname = semicolon;
lastChange = "2018-02-18 05:41:45 +0000";
layers = (
{
layerId = "3F42F969-BD6F-4F86-8089-1D5B5CB6E2D2";
paths = (
{
closed = 1;
nodes = (
"343 -286 LINE",
"557 -286 LINE",
"754 96 LINE",
"754 361 LINE",
"442 361 LINE",
"442 96 LINE"
);
},
{
closed = 1;
nodes = (
"741 758 LINE",
"741 1119 LINE",
"429 1119 LINE",
"429 758 LINE"
);
}
);
width = 1233;
}
);
note = semicolon;
unicode = 003B;
},
{
glyphname = less;
lastChange = "2018-02-18 05:41:45 +0000";
layers = (
{
layerId = "3F42F969-BD6F-4F86-8089-1D5B5CB6E2D2";
paths = (
{
closed = 1;
nodes = (
"88 725 LINE",
"88 559 LINE",
"1145 141 LINE",
"1145 324 LINE",
"295 641 LINE",
"1145 961 LINE",
"1145 1143 LINE"
);
}
);
width = 1233;
}
);
note = less;
unicode = 003C;
},
{
glyphname = equal;
lastChange = "2018-02-18 05:41:45 +0000";
layers = (
{
layerId = "3F42F969-BD6F-4F86-8089-1D5B5CB6E2D2";
paths = (
{
closed = 1;
nodes = (
"1145 331 LINE",
"1145 500 LINE",
"88 500 LINE",
"88 331 LINE"
);
},
{
closed = 1;
nodes = (
"1145 802 LINE",
"1145 971 LINE",
"88 971 LINE",
"88 802 LINE"
);
}
);
width = 1233;
}
);
note = equal;
unicode = 003D;
},
{
glyphname = greater;
lastChange = "2018-02-18 05:41:45 +0000";
layers = (
{
layerId = "3F42F969-BD6F-4F86-8089-1D5B5CB6E2D2";
paths = (
{
closed = 1;
nodes = (
"88 324 LINE",
"88 141 LINE",
"1145 559 LINE",
"1145 725 LINE",
"88 1143 LINE",
"88 961 LINE",
"938 641 LINE"
);
}
);
width = 1233;
}
);
note = greater;
unicode = 003E;
},
{
glyphname = question;
lastChange = "2018-02-18 05:41:45 +0000";
layers = (
{
layerId = "3F42F969-BD6F-4F86-8089-1D5B5CB6E2D2";
paths = (
{
closed = 1;
nodes = (
"684 571 LINE SMOOTH",
"684 652 OFFCURVE",
"699 694 OFFCURVE",
"791 782 CURVE SMOOTH",
"879 868 LINE SMOOTH",
"1004 991 OFFCURVE",
"1040 1066 OFFCURVE",
"1040 1167 CURVE SMOOTH",
"1040 1382 OFFCURVE",
"881 1520 OFFCURVE",
"633 1520 CURVE SMOOTH",
"494 1520 OFFCURVE",
"369 1483 OFFCURVE",
"244 1407 CURVE",
"244 1219 LINE",
"375 1310 OFFCURVE",
"494 1356 OFFCURVE",
"598 1356 CURVE SMOOTH",
"743 1356 OFFCURVE",
"838 1276 OFFCURVE",
"838 1157 CURVE SMOOTH",
"838 1092 OFFCURVE",
"812 1040 OFFCURVE",
"729 961 CURVE SMOOTH",
"639 872 LINE SMOOTH",
"527 763 OFFCURVE",
"494 686 OFFCURVE",
"494 555 CURVE SMOOTH",
"494 401 LINE",
"684 401 LINE",
"684 524 LINE"
);
},
{
closed = 1;
nodes = (
"690 0 LINE",
"690 254 LINE",
"487 254 LINE",
"487 0 LINE"
);
}
);
width = 1233;
}
);
note = question;
unicode = 003F;
},
{
glyphname = at;
lastChange = "2018-02-18 05:41:45 +0000";
layers = (
{
layerId = "3F42F969-BD6F-4F86-8089-1D5B5CB6E2D2";
paths = (
{
closed = 1;
nodes = (
"1038 372 OFFCURVE",
"946 260 OFFCURVE",
"803 260 CURVE SMOOTH",
"660 260 OFFCURVE",
"567 372 OFFCURVE",
"567 545 CURVE SMOOTH",
"567 717 OFFCURVE",
"660 829 OFFCURVE",
"803 829 CURVE SMOOTH",
"946 829 OFFCURVE",
"1038 717 OFFCURVE",
"1038 545 CURVE SMOOTH"
);
},
{
closed = 1;
nodes = (
"1178 1204 OFFCURVE",
"998 1395 OFFCURVE",
"719 1395 CURVE SMOOTH",
"298 1395 OFFCURVE",
"27 1063 OFFCURVE",
"27 543 CURVE SMOOTH",
"27 15 OFFCURVE",
"330 -318 OFFCURVE",
"793 -322 CURVE",
"869 -334 OFFCURVE",
"1033 -332 OFFCURVE",
"1120 -325 CURVE",
"1120 -181 LINE",
"1069 -184 OFFCURVE",
"1010 -185 OFFCURVE",
"945 -185 CURVE SMOOTH",
"880 -185 OFFCURVE",
"829 -182 OFFCURVE",
"793 -177 CURVE",
"410 -176 OFFCURVE",
"176 104 OFFCURVE",
"176 543 CURVE SMOOTH",
"176 979 OFFCURVE",
"385 1253 OFFCURVE",
"713 1253 CURVE SMOOTH",
"906 1253 OFFCURVE",
"1034 1115 OFFCURVE",
"1034 907 CURVE SMOOTH",
"1034 844 LINE",
"986 925 OFFCURVE",
"891 975 OFFCURVE",
"784 975 CURVE SMOOTH",
"569 975 OFFCURVE",
"412 796 OFFCURVE",
"412 545 CURVE SMOOTH",
"412 294 OFFCURVE",
"569 115 OFFCURVE",
"784 115 CURVE SMOOTH",
"893 115 OFFCURVE",
"985 162 OFFCURVE",
"1034 246 CURVE",
"1034 135 LINE",
"1178 135 LINE",
"1178 905 LINE SMOOTH"
);
}
);
width = 1233;
}
);
note = at;
unicode = 0040;
},
{
glyphname = A;
lastChange = "2018-02-18 05:41:45 +0000";
layers = (
{
layerId = "3F42F969-BD6F-4F86-8089-1D5B5CB6E2D2";
paths = (
{
closed = 1;
nodes = (
"403 551 LINE",
"616 1315 LINE",
"829 551 LINE"
);
},
{
closed = 1;
nodes = (
"246 0 LINE",
"354 389 LINE",
"877 389 LINE",
"987 0 LINE",
"1196 0 LINE",
"739 1493 LINE",
"494 1493 LINE",
"37 0 LINE"
);
}
);
width = 1233;
}
);
note = A;
unicode = 0041;
},
{
glyphname = B;
lastChange = "2018-02-18 05:41:45 +0000";
layers = (
{
layerId = "3F42F969-BD6F-4F86-8089-1D5B5CB6E2D2";
paths = (
{
closed = 1;
nodes = (
"832 753 OFFCURVE",
"934 678 OFFCURVE",
"934 430 CURVE SMOOTH",
"934 242 OFFCURVE",
"843 166 OFFCURVE",
"608 166 CURVE SMOOTH",
"369 166 LINE",
"369 753 LINE",
"608 753 LINE SMOOTH"
);
},
{
closed = 1;
nodes = (
"801 1327 OFFCURVE",
"881 1265 OFFCURVE",
"881 1114 CURVE SMOOTH",
"881 1001 OFFCURVE",
"799 917 OFFCURVE",
"604 917 CURVE SMOOTH",
"369 917 LINE",
"369 1327 LINE",
"604 1327 LINE SMOOTH"
);
},
{
closed = 1;
nodes = (
"608 0 LINE SMOOTH",
"959 0 OFFCURVE",
"1137 139 OFFCURVE",
"1137 410 CURVE SMOOTH",
"1137 677 OFFCURVE",
"1019 810 OFFCURVE",
"823 839 CURVE",
"998 866 OFFCURVE",
"1085 985 OFFCURVE",
"1085 1114 CURVE SMOOTH",
"1085 1355 OFFCURVE",
"913 1493 OFFCURVE",
"608 1493 CURVE SMOOTH",
"166 1493 LINE",
"166 0 LINE"
);
}
);
width = 1233;
}
);
note = B;
unicode = 0042;
},
{
glyphname = C;
lastChange = "2018-02-18 05:41:45 +0000";
layers = (
{
layerId = "3F42F969-BD6F-4F86-8089-1D5B5CB6E2D2";
paths = (
{
closed = 1;
nodes = (
"976 179 OFFCURVE",
"860 135 OFFCURVE",
"743 135 CURVE SMOOTH",
"480 135 OFFCURVE",
"350 337 OFFCURVE",
"350 745 CURVE SMOOTH",
"350 1154 OFFCURVE",
"480 1356 OFFCURVE",
"743 1356 CURVE SMOOTH",
"858 1356 OFFCURVE",
"974 1312 OFFCURVE",
"1073 1231 CURVE",
"1073 1438 LINE",
"970 1493 OFFCURVE",
"864 1520 OFFCURVE",
"743 1520 CURVE SMOOTH",
"363 1520 OFFCURVE",
"139 1233 OFFCURVE",
"139 745 CURVE SMOOTH",
"139 254 OFFCURVE",
"360 -29 OFFCURVE",
"743 -29 CURVE SMOOTH",
"864 -29 OFFCURVE",
"970 -2 OFFCURVE",
"1073 53 CURVE",
"1073 260 LINE"
);
}
);
width = 1233;
}
);
note = C;
unicode = 0043;
},
{
glyphname = D;
lastChange = "2018-02-18 05:41:45 +0000";
layers = (
{
layerId = "3F42F969-BD6F-4F86-8089-1D5B5CB6E2D2";
paths = (
{
closed = 1;
nodes = (
"340 1327 LINE",
"436 1327 LINE SMOOTH",
"777 1327 OFFCURVE",
"893 1186 OFFCURVE",
"893 745 CURVE SMOOTH",
"893 308 OFFCURVE",
"776 166 OFFCURVE",
"436 166 CURVE SMOOTH",
"340 166 LINE"
);
},
{
closed = 1;
nodes = (
"137 0 LINE",
"440 0 LINE SMOOTH",
"896 0 OFFCURVE",
"1106 236 OFFCURVE",
"1106 745 CURVE SMOOTH",
"1106 1257 OFFCURVE",
"896 1493 OFFCURVE",
"440 1493 CURVE SMOOTH",
"137 1493 LINE"
);
}
);
width = 1233;
}
);
note = D;
unicode = 0044;
},
{
glyphname = E;
lastChange = "2018-02-18 05:41:45 +0000";
layers = (
{
layerId = "3F42F969-BD6F-4F86-8089-1D5B5CB6E2D2";
paths = (
{
closed = 1;
nodes = (
"1102 0 LINE",
"1102 170 LINE",
"399 170 LINE",
"399 751 LINE",
"1053 751 LINE",
"1053 921 LINE",
"399 921 LINE",
"399 1323 LINE",
"1083 1323 LINE",
"1083 1493 LINE",
"197 1493 LINE",
"197 0 LINE"
);
}
);
width = 1233;
}
);
note = E;
unicode = 0045;
},
{
glyphname = F;
lastChange = "2018-02-18 05:41:45 +0000";
layers = (
{
layerId = "3F42F969-BD6F-4F86-8089-1D5B5CB6E2D2";
paths = (
{
closed = 1;
nodes = (
"436 0 LINE",
"436 753 LINE",
"1049 753 LINE",
"1049 923 LINE",
"436 923 LINE",
"436 1323 LINE",
"1112 1323 LINE",
"1112 1493 LINE",
"233 1493 LINE",
"233 0 LINE"
);
}
);
width = 1233;
}
);
note = F;
unicode = 0046;
},
{
glyphname = G;
lastChange = "2018-02-18 05:41:45 +0000";
layers = (
{
layerId = "3F42F969-BD6F-4F86-8089-1D5B5CB6E2D2";
paths = (
{
closed = 1;
nodes = (
"694 766 LINE",
"694 600 LINE",
"911 600 LINE",
"911 199 LINE",
"856 155 OFFCURVE",
"791 135 OFFCURVE",
"702 135 CURVE SMOOTH",
"438 135 OFFCURVE",
"313 330 OFFCURVE",
"313 745 CURVE SMOOTH",
"313 1153 OFFCURVE",
"444 1356 OFFCURVE",
"707 1356 CURVE SMOOTH",
"834 1356 OFFCURVE",
"945 1309 OFFCURVE",
"1053 1206 CURVE",
"1053 1413 LINE",
"946 1485 OFFCURVE",
"832 1520 OFFCURVE",
"707 1520 CURVE SMOOTH",
"327 1520 OFFCURVE",
"102 1233 OFFCURVE",
"102 745 CURVE SMOOTH",
"102 256 OFFCURVE",
"323 -29 OFFCURVE",
"702 -29 CURVE SMOOTH",
"859 -29 OFFCURVE",
"996 23 OFFCURVE",
"1104 123 CURVE",
"1104 766 LINE"
);
}
);
width = 1233;
}
);
note = G;
unicode = 0047;
},
{
glyphname = H;
lastChange = "2018-02-18 05:41:45 +0000";
layers = (
{
layerId = "3F42F969-BD6F-4F86-8089-1D5B5CB6E2D2";
paths = (
{
closed = 1;
nodes = (
"340 0 LINE",
"340 751 LINE",
"893 751 LINE",
"893 0 LINE",
"1096 0 LINE",
"1096 1493 LINE",
"893 1493 LINE",
"893 921 LINE",
"340 921 LINE",
"340 1493 LINE",
"137 1493 LINE",
"137 0 LINE"
);
}
);
width = 1233;
}
);
note = H;
unicode = 0048;
},
{
glyphname = I;
lastChange = "2018-02-18 05:41:45 +0000";
layers = (
{
layerId = "3F42F969-BD6F-4F86-8089-1D5B5CB6E2D2";
paths = (
{
closed = 1;
nodes = (
"514 1323 LINE",
"514 170 LINE",
"201 170 LINE",
"201 0 LINE",
"1030 0 LINE",
"1030 170 LINE",
"717 170 LINE",
"717 1323 LINE",
"1030 1323 LINE",
"1030 1493 LINE",
"201 1493 LINE",
"201 1323 LINE"
);
}
);
width = 1233;
}
);
note = I;
unicode = 0049;
},
{
glyphname = J;
lastChange = "2018-02-18 05:41:45 +0000";
layers = (
{
layerId = "3F42F969-BD6F-4F86-8089-1D5B5CB6E2D2";
paths = (
{
closed = 1;
nodes = (
"246 0 OFFCURVE",
"370 -29 OFFCURVE",
"498 -29 CURVE SMOOTH",
"827 -29 OFFCURVE",
"956 111 OFFCURVE",
"956 487 CURVE SMOOTH",
"956 1493 LINE",
"373 1493 LINE",
"373 1323 LINE",
"754 1323 LINE",
"754 487 LINE SMOOTH",
"754 216 OFFCURVE",
"689 135 OFFCURVE",
"498 135 CURVE SMOOTH",
"359 135 OFFCURVE",
"230 189 OFFCURVE",
"109 297 CURVE",
"109 61 LINE"
);
}
);
width = 1233;
}
);
note = J;
unicode = 004A;
},
{
glyphname = K;
lastChange = "2018-02-18 05:41:45 +0000";
layers = (
{
layerId = "3F42F969-BD6F-4F86-8089-1D5B5CB6E2D2";
paths = (
{
closed = 1;
nodes = (
"340 0 LINE",
"340 584 LINE",
"494 748 LINE",
"981 0 LINE",
"1225 0 LINE",
"627 883 LINE",
"1208 1493 LINE",
"971 1493 LINE",
"340 829 LINE",
"340 1493 LINE",
"137 1493 LINE",
"137 0 LINE"
);
}
);
width = 1233;
}
);
note = K;
unicode = 004B;
},
{
glyphname = L;
lastChange = "2018-02-18 05:41:45 +0000";
layers = (
{
layerId = "3F42F969-BD6F-4F86-8089-1D5B5CB6E2D2";
paths = (
{
closed = 1;
nodes = (
"1139 0 LINE",
"1139 170 LINE",
"418 170 LINE",
"418 1493 LINE",
"215 1493 LINE",
"215 0 LINE"
);
}
);
width = 1233;
}
);
note = L;
unicode = 004C;
},
{
glyphname = M;
lastChange = "2018-02-18 05:41:45 +0000";
layers = (
{
layerId = "3F42F969-BD6F-4F86-8089-1D5B5CB6E2D2";
paths = (
{
closed = 1;
nodes = (
"222 0 LINE",
"222 1315 LINE",
"489 531 LINE",
"642 531 LINE",
"908 1315 LINE",
"908 0 LINE",
"1095 0 LINE",
"1095 1488 LINE",
"824 1488 LINE",
"564 730 LINE",
"306 1488 LINE",
"36 1488 LINE",
"36 0 LINE"
);
}
);
width = 1233;
}
);
note = M;
unicode = 004D;
},
{
glyphname = N;
lastChange = "2018-02-18 05:41:45 +0000";
layers = (
{
layerId = "3F42F969-BD6F-4F86-8089-1D5B5CB6E2D2";
paths = (
{
closed = 1;
nodes = (
"234 0 LINE",
"234 1225 LINE",
"818 0 LINE",
"1094 0 LINE",
"1094 1488 LINE",
"879 1488 LINE",
"879 263 LINE",
"295 1488 LINE",
"19 1488 LINE",
"19 0 LINE"
);
}
);
width = 1233;
}
);
note = N;
unicode = 004E;
},
{
glyphname = O;
lastChange = "2018-02-18 05:41:45 +0000";
layers = (
{
layerId = "3F42F969-BD6F-4F86-8089-1D5B5CB6E2D2";
paths = (
{
closed = 1;
nodes = (
"905 526 OFFCURVE",
"883 369 OFFCURVE",
"838 276 CURVE SMOOTH",
"793 182 OFFCURVE",
"719 135 OFFCURVE",
"616 135 CURVE SMOOTH",
"514 135 OFFCURVE",
"441 182 OFFCURVE",
"396 276 CURVE SMOOTH",
"351 370 OFFCURVE",
"328 526 OFFCURVE",
"328 745 CURVE SMOOTH",
"328 964 OFFCURVE",
"351 1121 OFFCURVE",
"396 1215 CURVE SMOOTH",
"441 1309 OFFCURVE",
"514 1356 OFFCURVE",
"616 1356 CURVE SMOOTH",
"719 1356 OFFCURVE",
"793 1309 OFFCURVE",
"838 1215 CURVE SMOOTH",
"883 1121 OFFCURVE",
"905 964 OFFCURVE",
"905 745 CURVE SMOOTH"
);
},
{
closed = 1;
nodes = (
"1116 1266 OFFCURVE",
"953 1520 OFFCURVE",
"616 1520 CURVE SMOOTH",
"280 1520 OFFCURVE",
"117 1266 OFFCURVE",
"117 745 CURVE SMOOTH",
"117 222 OFFCURVE",
"279 -29 OFFCURVE",
"616 -29 CURVE SMOOTH",
"953 -29 OFFCURVE",
"1116 225 OFFCURVE",
"1116 745 CURVE SMOOTH"
);
}
);
width = 1233;
}
);
note = O;
unicode = 004F;
},
{
glyphname = P;
lastChange = "2018-02-18 05:41:45 +0000";
layers = (
{
layerId = "3F42F969-BD6F-4F86-8089-1D5B5CB6E2D2";
paths = (
{
closed = 1;
nodes = (
"821 1327 OFFCURVE",
"930 1224 OFFCURVE",
"930 1047 CURVE SMOOTH",
"930 870 OFFCURVE",
"820 766 OFFCURVE",
"633 766 CURVE SMOOTH",
"399 766 LINE",
"399 1327 LINE",
"633 1327 LINE SMOOTH"
);
},
{
closed = 1;
nodes = (
"399 0 LINE",
"399 600 LINE",
"633 600 LINE SMOOTH",
"968 600 OFFCURVE",
"1141 752 OFFCURVE",
"1141 1047 CURVE SMOOTH",
"1141 1339 OFFCURVE",
"966 1493 OFFCURVE",
"633 1493 CURVE SMOOTH",
"197 1493 LINE",
"197 0 LINE"
);
}
);
width = 1233;
}
);
note = P;
unicode = 0050;
},
{
glyphname = Q;
lastChange = "2018-02-18 05:41:45 +0000";
layers = (
{
layerId = "3F42F969-BD6F-4F86-8089-1D5B5CB6E2D2";
paths = (
{
closed = 1;
nodes = (
"1040 -170 LINE",
"840 20 LINE",
"1025 116 OFFCURVE",
"1116 353 OFFCURVE",
"1116 745 CURVE SMOOTH",
"1116 1266 OFFCURVE",
"953 1520 OFFCURVE",
"616 1520 CURVE SMOOTH",
"280 1520 OFFCURVE",
"117 1266 OFFCURVE",
"117 745 CURVE SMOOTH",
"117 225 OFFCURVE",
"281 -29 OFFCURVE",
"614 -29 CURVE SMOOTH",
"619 -29 OFFCURVE",
"626 -29 OFFCURVE",
"635 -28 CURVE SMOOTH",
"644 -27 OFFCURVE",
"650 -27 OFFCURVE",
"655 -27 CURVE",
"889 -270 LINE"
);
},
{
closed = 1;
nodes = (
"905 526 OFFCURVE",
"883 369 OFFCURVE",
"838 276 CURVE SMOOTH",
"793 182 OFFCURVE",
"719 135 OFFCURVE",
"616 135 CURVE SMOOTH",
"514 135 OFFCURVE",
"441 182 OFFCURVE",
"396 276 CURVE SMOOTH",
"351 370 OFFCURVE",
"328 526 OFFCURVE",
"328 745 CURVE SMOOTH",
"328 964 OFFCURVE",
"351 1121 OFFCURVE",
"396 1215 CURVE SMOOTH",
"441 1309 OFFCURVE",
"514 1356 OFFCURVE",
"616 1356 CURVE SMOOTH",
"719 1356 OFFCURVE",
"793 1309 OFFCURVE",
"838 1215 CURVE SMOOTH",
"883 1121 OFFCURVE",
"905 964 OFFCURVE",
"905 745 CURVE SMOOTH"
);
}
);
width = 1233;
}
);
note = Q;
unicode = 0051;
},
{
glyphname = R;
lastChange = "2018-02-18 05:41:45 +0000";
layers = (
{
layerId = "3F42F969-BD6F-4F86-8089-1D5B5CB6E2D2";
paths = (
{
closed = 1;
nodes = (
"955 733 OFFCURVE",
"1067 864 OFFCURVE",
"1067 1061 CURVE SMOOTH",
"1067 1341 OFFCURVE",
"887 1493 OFFCURVE",
"559 1493 CURVE SMOOTH",
"143 1493 LINE",
"143 0 LINE",
"346 0 LINE",
"346 631 LINE",
"539 631 LINE SMOOTH",
"671 631 OFFCURVE",
"735 592 OFFCURVE",
"838 377 CURVE SMOOTH",
"1016 0 LINE",
"1233 0 LINE",
"1030 408 LINE SMOOTH",
"921 629 OFFCURVE",
"864 678 OFFCURVE",
"760 705 CURVE"
);
},
{
closed = 1;
nodes = (
"751 1327 OFFCURVE",
"854 1233 OFFCURVE",
"854 1061 CURVE SMOOTH",
"854 882 OFFCURVE",
"760 797 OFFCURVE",
"567 797 CURVE SMOOTH",
"346 797 LINE",
"346 1327 LINE",
"559 1327 LINE SMOOTH"
);
}
);
width = 1233;
}
);
note = R;
unicode = 0052;
},
{
glyphname = S;
lastChange = "2018-02-18 05:41:45 +0000";
layers = (
{
layerId = "3F42F969-BD6F-4F86-8089-1D5B5CB6E2D2";
paths = (
{
closed = 1;
nodes = (
"872 1494 OFFCURVE",
"746 1520 OFFCURVE",
"631 1520 CURVE SMOOTH",
"334 1520 OFFCURVE",
"139 1346 OFFCURVE",
"139 1079 CURVE SMOOTH",
"139 866 OFFCURVE",
"258 745 OFFCURVE",
"535 682 CURVE SMOOTH",
"643 657 LINE SMOOTH",
"836 614 OFFCURVE",
"905 544 OFFCURVE",
"905 395 CURVE SMOOTH",
"905 231 OFFCURVE",
"786 135 OFFCURVE",
"582 135 CURVE SMOOTH",
"443 135 OFFCURVE",
"311 179 OFFCURVE",
"158 276 CURVE",
"158 61 LINE",
"301 1 OFFCURVE",
"442 -29 OFFCURVE",
"582 -29 CURVE SMOOTH",
"918 -29 OFFCURVE",
"1098 124 OFFCURVE",
"1098 408 CURVE SMOOTH",
"1098 649 OFFCURVE",
"976 783 OFFCURVE",
"696 848 CURVE SMOOTH",
"590 872 LINE SMOOTH",
"391 919 OFFCURVE",
"332 978 OFFCURVE",
"332 1110 CURVE SMOOTH",
"332 1261 OFFCURVE",
"450 1356 OFFCURVE",
"641 1356 CURVE SMOOTH",
"766 1356 OFFCURVE",
"889 1316 OFFCURVE",
"1012 1237 CURVE",
"1012 1442 LINE"
);
}
);
width = 1233;
}
);
note = S;
unicode = 0053;
},
{
glyphname = T;
lastChange = "2018-02-18 05:41:45 +0000";
layers = (
{
layerId = "3F42F969-BD6F-4F86-8089-1D5B5CB6E2D2";
paths = (
{
closed = 1;
nodes = (
"516 1323 LINE",
"516 0 LINE",
"719 0 LINE",
"719 1323 LINE",
"1186 1323 LINE",
"1186 1493 LINE",
"47 1493 LINE",
"47 1323 LINE"
);
}
);
width = 1233;
}
);
note = T;
unicode = 0054;
},
{
glyphname = U;
lastChange = "2018-02-18 05:41:45 +0000";
layers = (
{
layerId = "3F42F969-BD6F-4F86-8089-1D5B5CB6E2D2";
paths = (
{
closed = 1;
nodes = (
"147 422 OFFCURVE",
"157 314 OFFCURVE",
"176 249 CURVE SMOOTH",
"195 183 OFFCURVE",
"228 129 OFFCURVE",
"274 88 CURVE SMOOTH",
"363 9 OFFCURVE",
"476 -29 OFFCURVE",
"616 -29 CURVE SMOOTH",
"687 -29 OFFCURVE",
"750 -19 OFFCURVE",
"807 0 CURVE SMOOTH",
"920 39 OFFCURVE",
"1019 119 OFFCURVE",
"1057 248 CURVE SMOOTH",
"1076 312 OFFCURVE",
"1085 420 OFFCURVE",
"1085 573 CURVE SMOOTH",
"1085 1493 LINE",
"883 1493 LINE",
"883 479 LINE SMOOTH",
"883 407 OFFCURVE",
"881 356 OFFCURVE",
"877 325 CURVE SMOOTH",
"873 294 OFFCURVE",
"866 271 OFFCURVE",
"856 254 CURVE SMOOTH",
"812 175 OFFCURVE",
"732 135 OFFCURVE",
"616 135 CURVE SMOOTH",
"559 135 OFFCURVE",
"510 145 OFFCURVE",
"470 165 CURVE SMOOTH",
"389 205 OFFCURVE",
"364 264 OFFCURVE",
"356 326 CURVE SMOOTH",
"352 357 OFFCURVE",
"350 408 OFFCURVE",
"350 481 CURVE SMOOTH",
"350 1493 LINE",
"147 1493 LINE",
"147 573 LINE SMOOTH"
);
}
);
width = 1233;
}
);
note = U;
unicode = 0055;
},
{
glyphname = V;
lastChange = "2018-02-18 05:41:45 +0000";
layers = (
{
layerId = "3F42F969-BD6F-4F86-8089-1D5B5CB6E2D2";
paths = (
{
closed = 1;
nodes = (
"57 1493 LINE",
"494 0 LINE",
"739 0 LINE",
"1176 1493 LINE",
"967 1493 LINE",
"616 170 LINE",
"266 1493 LINE"
);
}
);
width = 1233;
}
);
note = V;
unicode = 0056;
},
{
glyphname = W;
lastChange = "2018-02-18 05:41:45 +0000";
layers = (
{
layerId = "3F42F969-BD6F-4F86-8089-1D5B5CB6E2D2";
paths = (
{
closed = 1;
nodes = (
"414 0 LINE",
"616 887 LINE",
"819 0 LINE",
"1010 0 LINE",
"1233 1493 LINE",
"1036 1493 LINE",
"893 279 LINE",
"721 1083 LINE",
"510 1083 LINE",
"340 281 LINE",
"197 1493 LINE",
"0 1493 LINE",
"223 0 LINE"
);
}
);
width = 1233;
}
);
note = W;
unicode = 0057;
},
{
glyphname = X;
lastChange = "2018-02-18 05:41:45 +0000";
layers = (
{
layerId = "3F42F969-BD6F-4F86-8089-1D5B5CB6E2D2";
paths = (
{
closed = 1;
nodes = (
"18 0 LINE",
"236 0 LINE",
"631 643 LINE",
"997 0 LINE",
"1214 0 LINE",
"735 791 LINE",
"1182 1493 LINE",
"965 1493 LINE",
"631 930 LINE",
"303 1493 LINE",
"86 1493 LINE",
"518 791 LINE"
);
}
);
width = 1233;
}
);
note = X;
unicode = 0058;
},
{
glyphname = Y;
lastChange = "2018-02-18 05:41:45 +0000";
layers = (
{
layerId = "3F42F969-BD6F-4F86-8089-1D5B5CB6E2D2";
paths = (
{
closed = 1;
nodes = (
"514 0 LINE",
"717 0 LINE",
"717 670 LINE",
"1196 1493 LINE",
"979 1493 LINE",
"616 834 LINE",
"252 1493 LINE",
"37 1493 LINE",
"514 670 LINE"
);
}
);
width = 1233;
}
);
note = Y;
unicode = 0059;
},
{
glyphname = Z;
lastChange = "2018-02-18 05:41:45 +0000";
layers = (
{
layerId = "3F42F969-BD6F-4F86-8089-1D5B5CB6E2D2";
paths = (
{
closed = 1;
nodes = (
"915 1323 LINE",
"156 154 LINE",
"156 0 LINE",
"1169 0 LINE",
"1169 170 LINE",
"367 170 LINE",
"1147 1339 LINE",
"1147 1493 LINE",
"178 1493 LINE",
"178 1323 LINE"
);
}
);
width = 1233;
}
);
note = Z;
unicode = 005A;
},
{
glyphname = bracketleft;
lastChange = "2018-02-18 05:41:45 +0000";
layers = (
{
layerId = "3F42F969-BD6F-4F86-8089-1D5B5CB6E2D2";
paths = (
{
closed = 1;
nodes = (
"987 -170 LINE",
"987 -27 LINE",
"747 -27 LINE",
"747 1513 LINE",
"987 1513 LINE",
"987 1656 LINE",
"563 1656 LINE",
"563 -170 LINE"
);
}
);
width = 1233;
}
);
note = bracketleft;
unicode = 005B;
},
{
glyphname = backslash;
lastChange = "2018-02-18 05:41:45 +0000";
layers = (
{
layerId = "3F42F969-BD6F-4F86-8089-1D5B5CB6E2D2";
paths = (
{
closed = 1;
nodes = (
"889 -190 LINE",
"1079 -190 LINE",
"293 1493 LINE",
"102 1493 LINE"
);
}
);
width = 1233;
}
);
note = backslash;
unicode = 005C;
},
{
glyphname = bracketright;
lastChange = "2018-02-18 05:41:45 +0000";
layers = (
{
layerId = "3F42F969-BD6F-4F86-8089-1D5B5CB6E2D2";
paths = (
{
closed = 1;
nodes = (
"296 1513 LINE",
"536 1513 LINE",
"536 -27 LINE",
"296 -27 LINE",
"296 -170 LINE",
"720 -170 LINE",
"720 1656 LINE",
"296 1656 LINE"
);
}
);
width = 1233;
}
);
note = bracketright;
unicode = 005D;
},
{
glyphname = asciicircum;
lastChange = "2018-02-18 05:41:45 +0000";
layers = (
{
layerId = "3F42F969-BD6F-4F86-8089-1D5B5CB6E2D2";
paths = (
{
closed = 1;
nodes = (
"36 892 LINE",
"250 893 LINE",
"616 1286 LINE",
"983 893 LINE",
"1196 892 LINE",
"705 1488 LINE",
"528 1488 LINE"
);
}
);
width = 1233;
}
);
note = asciicircum;
unicode = 005E;
},
{
glyphname = underscore;
lastChange = "2018-02-18 05:41:45 +0000";
layers = (
{
layerId = "3F42F969-BD6F-4F86-8089-1D5B5CB6E2D2";
paths = (
{
closed = 1;
nodes = (
"0 -360 LINE",
"1224 -360 LINE",
"1224 -190 LINE",
"0 -190 LINE"
);
}
);
width = 1233;
}
);
note = underscore;
unicode = 005F;
},
{
glyphname = grave;
lastChange = "2018-02-18 05:41:45 +0000";
layers = (
{
layerId = "3F42F969-BD6F-4F86-8089-1D5B5CB6E2D2";
paths = (
{
closed = 1;
nodes = (
"604 1262 LINE",
"758 1262 LINE",
"477 1638 LINE",
"279 1638 LINE"
);
}
);
width = 1233;
}
);
note = grave;
unicode = 0060;
},
{
glyphname = a;
lastChange = "2018-02-18 05:41:45 +0000";
layers = (
{
layerId = "3F42F969-BD6F-4F86-8089-1D5B5CB6E2D2";
paths = (
{
closed = 1;
nodes = (
"874 522 LINE SMOOTH",
"873 274 OFFCURVE",
"750 125 OFFCURVE",
"547 125 CURVE SMOOTH",
"403 125 OFFCURVE",
"317 203 OFFCURVE",
"317 338 CURVE SMOOTH",
"317 487 OFFCURVE",
"426 563 OFFCURVE",
"641 563 CURVE SMOOTH",
"702 563 LINE",
"874 563 LINE"
);
},
{
closed = 1;
nodes = (
"1059 835 OFFCURVE",
"1040 916 OFFCURVE",
"989 983 CURVE SMOOTH",
"908 1092 OFFCURVE",
"777 1147 OFFCURVE",
"592 1147 CURVE SMOOTH",
"475 1147 OFFCURVE",
"351 1121 OFFCURVE",
"215 1069 CURVE",
"215 885 LINE",
"336 954 OFFCURVE",
"467 991 OFFCURVE",
"592 991 CURVE SMOOTH",
"788 991 OFFCURVE",
"873 915 OFFCURVE",
"874 736 CURVE SMOOTH",
"874 707 LINE",
"627 707 LINE SMOOTH",
"303 707 OFFCURVE",
"133 575 OFFCURVE",
"133 326 CURVE SMOOTH",
"133 110 OFFCURVE",
"280 -29 OFFCURVE",
"508 -29 CURVE SMOOTH",
"679 -29 OFFCURVE",
"795 33 OFFCURVE",
"874 166 CURVE",
"874 0 LINE",
"1059 0 LINE",
"1059 639 LINE SMOOTH"
);
}
);
width = 1233;
}
);
note = a;
unicode = 0061;
},
{
glyphname = b;
lastChange = "2018-02-18 05:41:45 +0000";
layers = (
{
layerId = "3F42F969-BD6F-4F86-8089-1D5B5CB6E2D2";
paths = (
{
closed = 1;
nodes = (
"918 274 OFFCURVE",
"826 127 OFFCURVE",
"649 127 CURVE SMOOTH",
"470 127 OFFCURVE",
"377 276 OFFCURVE",
"377 559 CURVE SMOOTH",
"377 843 OFFCURVE",
"470 991 OFFCURVE",
"649 991 CURVE SMOOTH",
"826 991 OFFCURVE",
"918 844 OFFCURVE",
"918 559 CURVE SMOOTH"
);
},
{
closed = 1;
nodes = (
"193 1556 LINE",
"193 0 LINE",
"377 0 LINE",
"377 141 LINE",
"438 30 OFFCURVE",
"543 -29 OFFCURVE",
"676 -29 CURVE SMOOTH",
"947 -29 OFFCURVE",
"1112 194 OFFCURVE",
"1112 563 CURVE SMOOTH",
"1112 927 OFFCURVE",
"947 1147 OFFCURVE",
"678 1147 CURVE SMOOTH",
"542 1147 OFFCURVE",
"436 1086 OFFCURVE",
"377 977 CURVE",
"377 1556 LINE"
);
}
);
width = 1233;
}
);
note = b;
unicode = 0062;
},
{
glyphname = c;
lastChange = "2018-02-18 05:41:45 +0000";
layers = (
{
layerId = "3F42F969-BD6F-4F86-8089-1D5B5CB6E2D2";
paths = (
{
closed = 1;
nodes = (
"974 165 OFFCURVE",
"876 127 OFFCURVE",
"748 127 CURVE SMOOTH",
"519 127 OFFCURVE",
"389 283 OFFCURVE",
"389 559 CURVE SMOOTH",
"389 836 OFFCURVE",
"517 991 OFFCURVE",
"748 991 CURVE SMOOTH",
"872 991 OFFCURVE",
"964 955 OFFCURVE",
"1061 868 CURVE",
"1061 1061 LINE",
"957 1120 OFFCURVE",
"856 1147 OFFCURVE",
"748 1147 CURVE SMOOTH",
"401 1147 OFFCURVE",
"195 927 OFFCURVE",
"195 559 CURVE SMOOTH",
"195 191 OFFCURVE",
"401 -29 OFFCURVE",
"748 -29 CURVE SMOOTH",
"857 -29 OFFCURVE",
"962 0 OFFCURVE",
"1061 57 CURVE",
"1061 248 LINE"
);
}
);
width = 1233;
}
);
note = c;
unicode = 0063;
},
{
glyphname = d;
lastChange = "2018-02-18 05:41:45 +0000";
layers = (
{
layerId = "3F42F969-BD6F-4F86-8089-1D5B5CB6E2D2";
paths = (
{
closed = 1;
nodes = (
"799 1088 OFFCURVE",
"694 1147 OFFCURVE",
"559 1147 CURVE SMOOTH",
"290 1147 OFFCURVE",
"123 927 OFFCURVE",
"123 563 CURVE SMOOTH",
"123 194 OFFCURVE",
"288 -29 OFFCURVE",
"559 -29 CURVE SMOOTH",
"692 -29 OFFCURVE",
"797 30 OFFCURVE",
"858 141 CURVE",
"858 0 LINE",
"1042 0 LINE",
"1042 1556 LINE",
"858 1556 LINE",
"858 977 LINE"
);
},
{
closed = 1;
nodes = (
"317 844 OFFCURVE",
"409 991 OFFCURVE",
"586 991 CURVE SMOOTH",
"763 991 OFFCURVE",
"858 843 OFFCURVE",
"858 559 CURVE SMOOTH",
"858 276 OFFCURVE",
"763 127 OFFCURVE",
"586 127 CURVE SMOOTH",
"409 127 OFFCURVE",
"317 274 OFFCURVE",
"317 559 CURVE SMOOTH"
);
}
);
width = 1233;
}
);
note = d;
unicode = 0064;
},
{
glyphname = e;
lastChange = "2018-02-18 05:41:45 +0000";
layers = (
{
layerId = "3F42F969-BD6F-4F86-8089-1D5B5CB6E2D2";
paths = (
{
closed = 1;
nodes = (
"1109 925 OFFCURVE",
"936 1147 OFFCURVE",
"651 1147 CURVE SMOOTH",
"331 1147 OFFCURVE",
"123 916 OFFCURVE",
"123 559 CURVE SMOOTH",
"123 192 OFFCURVE",
"330 -29 OFFCURVE",
"678 -29 CURVE SMOOTH",
"799 -29 OFFCURVE",
"929 0 OFFCURVE",
"1069 57 CURVE",
"1069 240 LINE",
"924 164 OFFCURVE",
"797 127 OFFCURVE",
"680 127 CURVE SMOOTH",
"448 127 OFFCURVE",
"312 251 OFFCURVE",
"323 556 CURVE",
"323 562 LINE",
"1120 562 LINE",
"1120 652 LINE"
);
},
{
closed = 1;
nodes = (
"341 852 OFFCURVE",
"466 991 OFFCURVE",
"643 991 CURVE SMOOTH",
"824 991 OFFCURVE",
"920 861 OFFCURVE",
"936 706 CURVE",
"330 705 LINE"
);
}
);
width = 1233;
}
);
note = e;
unicode = 0065;
},
{
glyphname = f;
lastChange = "2018-02-18 05:41:45 +0000";
layers = (
{
layerId = "3F42F969-BD6F-4F86-8089-1D5B5CB6E2D2";
paths = (
{
closed = 1;
nodes = (
"603 1556 OFFCURVE",
"494 1443 OFFCURVE",
"494 1198 CURVE SMOOTH",
"494 1120 LINE",
"195 1120 LINE",
"195 977 LINE",
"494 977 LINE",
"494 0 LINE",
"678 0 LINE",
"678 977 LINE",
"1063 977 LINE",
"1063 1120 LINE",
"678 1120 LINE",
"678 1219 LINE SMOOTH",
"678 1356 OFFCURVE",
"722 1403 OFFCURVE",
"854 1403 CURVE SMOOTH",
"1063 1403 LINE",
"1063 1556 LINE",
"842 1556 LINE SMOOTH"
);
}
);
width = 1233;
}
);
note = f;
unicode = 0066;
},
{
glyphname = g;
lastChange = "2018-02-18 05:41:45 +0000";
layers = (
{
layerId = "3F42F969-BD6F-4F86-8089-1D5B5CB6E2D2";
paths = (
{
closed = 1;
nodes = (
"858 294 OFFCURVE",
"765 145 OFFCURVE",
"596 145 CURVE SMOOTH",
"415 145 OFFCURVE",
"317 293 OFFCURVE",
"317 569 CURVE SMOOTH",
"317 845 OFFCURVE",
"414 991 OFFCURVE",
"594 991 CURVE SMOOTH",
"766 991 OFFCURVE",
"858 845 OFFCURVE",
"858 569 CURVE SMOOTH"
);
},
{
closed = 1;
nodes = (
"858 1116 LINE",
"858 971 LINE",
"795 1091 OFFCURVE",
"697 1147 OFFCURVE",
"553 1147 CURVE SMOOTH",
"292 1147 OFFCURVE",
"123 921 OFFCURVE",
"123 569 CURVE SMOOTH",
"123 218 OFFCURVE",
"292 -8 OFFCURVE",
"553 -8 CURVE SMOOTH",
"698 -8 OFFCURVE",
"799 53 OFFCURVE",
"858 178 CURVE",
"858 53 LINE",
"858 45 LINE SMOOTH",
"858 -190 OFFCURVE",
"772 -293 OFFCURVE",
"573 -293 CURVE SMOOTH",
"484 -293 OFFCURVE",
"379 -264 OFFCURVE",
"248 -203 CURVE",
"248 -385 LINE",
"359 -421 OFFCURVE",
"472 -440 OFFCURVE",
"573 -440 CURVE SMOOTH",
"881 -440 OFFCURVE",
"1042 -264 OFFCURVE",
"1042 72 CURVE SMOOTH",
"1042 1116 LINE"
);
}
);
width = 1233;
}
);
note = g;
unicode = 0067;
},
{
glyphname = h;
lastChange = "2018-02-18 05:41:45 +0000";
layers = (
{
layerId = "3F42F969-BD6F-4F86-8089-1D5B5CB6E2D2";
paths = (
{
closed = 1;
nodes = (
"1051 998 OFFCURVE",
"939 1147 OFFCURVE",
"711 1147 CURVE SMOOTH",
"558 1147 OFFCURVE",
"444 1080 OFFCURVE",
"379 952 CURVE",
"379 1556 LINE",
"195 1556 LINE",
"195 0 LINE",
"379 0 LINE",
"379 633 LINE SMOOTH",
"379 861 OFFCURVE",
"475 987 OFFCURVE",
"647 987 CURVE SMOOTH",
"798 987 OFFCURVE",
"866 895 OFFCURVE",
"866 694 CURVE SMOOTH",
"866 0 LINE",
"1051 0 LINE",
"1051 694 LINE SMOOTH"
);
}
);
width = 1233;
}
);
note = h;
unicode = 0068;
},
{
glyphname = i;
lastChange = "2018-02-18 05:41:45 +0000";
layers = (
{
layerId = "3F42F969-BD6F-4F86-8089-1D5B5CB6E2D2";
paths = (
{
closed = 1;
nodes = (
"603 973 LINE",
"603 143 LINE",
"238 143 LINE",
"238 0 LINE",
"1152 0 LINE",
"1152 143 LINE",
"787 143 LINE",
"787 1116 LINE",
"316 1116 LINE",
"316 973 LINE"
);
},
{
closed = 1;
nodes = (
"787 1319 LINE",
"787 1551 LINE",
"603 1551 LINE",
"603 1319 LINE"
);
}
);
width = 1233;
}
);
note = i;
unicode = 0069;
},
{
glyphname = j;
lastChange = "2018-02-18 05:41:45 +0000";
layers = (
{
layerId = "3F42F969-BD6F-4F86-8089-1D5B5CB6E2D2";
paths = (
{
closed = 1;
nodes = (
"600 -187 OFFCURVE",
"540 -270 OFFCURVE",
"420 -270 CURVE SMOOTH",
"186 -270 LINE",
"186 -426 LINE",
"440 -426 LINE SMOOTH",
"660 -426 OFFCURVE",
"784 -280 OFFCURVE",
"784 -20 CURVE SMOOTH",
"784 1120 LINE",
"283 1120 LINE",
"283 977 LINE",
"600 977 LINE",
"600 -20 LINE SMOOTH"
);
},
{
closed = 1;
nodes = (
"784 1323 LINE",
"784 1556 LINE",
"600 1556 LINE",
"600 1323 LINE"
);
}
);
width = 1233;
}
);
note = j;
unicode = 006A;
},
{
glyphname = k;
lastChange = "2018-02-18 05:41:45 +0000";
layers = (
{
layerId = "3F42F969-BD6F-4F86-8089-1D5B5CB6E2D2";
paths = (
{
closed = 1;
nodes = (
"426 0 LINE",
"426 449 LINE",
"563 578 LINE",
"977 0 LINE",
"1202 0 LINE",
"692 698 LINE",
"1133 1120 LINE",
"909 1120 LINE",
"426 655 LINE",
"426 1556 LINE",
"236 1556 LINE",
"236 0 LINE"
);
}
);
width = 1233;
}
);
note = k;
unicode = 006B;
},
{
glyphname = l;
lastChange = "2018-02-18 05:41:45 +0000";
layers = (
{
layerId = "3F42F969-BD6F-4F86-8089-1D5B5CB6E2D2";
paths = (
{
closed = 1;
nodes = (
"240 1562 LINE",
"240 1418 LINE",
"535 1418 LINE",
"535 405 LINE SMOOTH",
"535 146 OFFCURVE",
"661 0 OFFCURVE",
"881 0 CURVE SMOOTH",
"1114 0 LINE",
"1114 155 LINE",
"899 155 LINE SMOOTH",
"780 155 OFFCURVE",
"719 240 OFFCURVE",
"719 405 CURVE SMOOTH",
"719 1562 LINE"
);
}
);
width = 1233;
}
);
note = l;
unicode = 006C;
},
{
glyphname = m;
lastChange = "2018-02-18 05:41:45 +0000";
layers = (
{
layerId = "3F42F969-BD6F-4F86-8089-1D5B5CB6E2D2";
paths = (
{
closed = 1;
nodes = (
"639 1101 OFFCURVE",
"572 1147 OFFCURVE",
"471 1147 CURVE SMOOTH",
"387 1147 OFFCURVE",
"320 1104 OFFCURVE",
"276 1024 CURVE",
"276 1120 LINE",
"109 1120 LINE",
"109 0 LINE",
"276 0 LINE",
"276 641 LINE SMOOTH",
"276 794 OFFCURVE",
"286 891 OFFCURVE",
"305 932 CURVE SMOOTH",
"324 973 OFFCURVE",
"357 993 OFFCURVE",
"406 993 CURVE SMOOTH",
"455 993 OFFCURVE",
"490 974 OFFCURVE",
"509 937 CURVE SMOOTH",
"528 900 OFFCURVE",
"537 801 OFFCURVE",
"537 641 CURVE SMOOTH",
"537 0 LINE",
"705 0 LINE",
"705 641 LINE SMOOTH",
"705 794 OFFCURVE",
"715 891 OFFCURVE",
"735 932 CURVE SMOOTH",
"754 973 OFFCURVE",
"791 993 OFFCURVE",
"844 993 CURVE SMOOTH",
"891 993 OFFCURVE",
"923 974 OFFCURVE",
"941 936 CURVE SMOOTH",
"958 897 OFFCURVE",
"967 799 OFFCURVE",
"967 641 CURVE SMOOTH",
"967 0 LINE",
"1135 0 LINE",
"1135 649 LINE SMOOTH",
"1135 842 OFFCURVE",
"1117 973 OFFCURVE",
"1080 1043 CURVE SMOOTH",
"1043 1112 OFFCURVE",
"979 1147 OFFCURVE",
"889 1147 CURVE SMOOTH",
"790 1147 OFFCURVE",
"721 1102 OFFCURVE",
"676 1006 CURVE"
);
}
);
width = 1233;
}
);
note = m;
unicode = 006D;
},
{
glyphname = n;
lastChange = "2018-02-18 05:41:45 +0000";
layers = (
{
layerId = "3F42F969-BD6F-4F86-8089-1D5B5CB6E2D2";
paths = (
{
closed = 1;
nodes = (
"1051 998 OFFCURVE",
"939 1147 OFFCURVE",
"711 1147 CURVE SMOOTH",
"558 1147 OFFCURVE",
"444 1080 OFFCURVE",
"379 952 CURVE",
"379 1120 LINE",
"195 1120 LINE",
"195 0 LINE",
"379 0 LINE",
"379 633 LINE SMOOTH",
"379 861 OFFCURVE",
"475 987 OFFCURVE",
"647 987 CURVE SMOOTH",
"798 987 OFFCURVE",
"866 895 OFFCURVE",
"866 694 CURVE SMOOTH",
"866 0 LINE",
"1051 0 LINE",
"1051 694 LINE SMOOTH"
);
}
);
width = 1233;
}
);
note = n;
unicode = 006E;
},
{
glyphname = o;
lastChange = "2018-02-18 05:41:45 +0000";
layers = (
{
layerId = "3F42F969-BD6F-4F86-8089-1D5B5CB6E2D2";
paths = (
{
closed = 1;
nodes = (
"804 991 OFFCURVE",
"901 844 OFFCURVE",
"901 559 CURVE SMOOTH",
"901 275 OFFCURVE",
"804 127 OFFCURVE",
"616 127 CURVE SMOOTH",
"429 127 OFFCURVE",
"332 275 OFFCURVE",
"332 559 CURVE SMOOTH",
"332 844 OFFCURVE",
"429 991 OFFCURVE",
"616 991 CURVE SMOOTH"
);
},
{
closed = 1;
nodes = (
"305 1147 OFFCURVE",
"137 940 OFFCURVE",
"137 559 CURVE SMOOTH",
"137 176 OFFCURVE",
"305 -29 OFFCURVE",
"616 -29 CURVE SMOOTH",
"928 -29 OFFCURVE",
"1096 176 OFFCURVE",
"1096 559 CURVE SMOOTH",
"1096 940 OFFCURVE",
"927 1147 OFFCURVE",
"616 1147 CURVE SMOOTH"
);
}
);
width = 1233;
}
);
note = o;
unicode = 006F;
},
{
glyphname = p;
lastChange = "2018-02-18 05:41:45 +0000";
layers = (
{
layerId = "3F42F969-BD6F-4F86-8089-1D5B5CB6E2D2";
paths = (
{
closed = 1;
nodes = (
"434 30 OFFCURVE",
"538 -29 OFFCURVE",
"674 -29 CURVE SMOOTH",
"943 -29 OFFCURVE",
"1108 191 OFFCURVE",
"1108 555 CURVE SMOOTH",
"1108 926 OFFCURVE",
"945 1147 OFFCURVE",
"674 1147 CURVE SMOOTH",
"541 1147 OFFCURVE",
"436 1088 OFFCURVE",
"375 977 CURVE",
"375 1120 LINE",
"190 1120 LINE",
"190 -426 LINE",
"375 -426 LINE",
"375 141 LINE"
);
},
{
closed = 1;
nodes = (
"915 274 OFFCURVE",
"824 127 OFFCURVE",
"647 127 CURVE SMOOTH",
"468 127 OFFCURVE",
"375 276 OFFCURVE",
"375 559 CURVE SMOOTH",
"375 843 OFFCURVE",
"468 991 OFFCURVE",
"647 991 CURVE SMOOTH",
"824 991 OFFCURVE",
"915 844 OFFCURVE",
"915 559 CURVE SMOOTH"
);
}
);
width = 1233;
}
);
note = p;
unicode = 0070;
},
{
glyphname = q;
lastChange = "2018-02-18 05:41:45 +0000";
layers = (
{
layerId = "3F42F969-BD6F-4F86-8089-1D5B5CB6E2D2";
paths = (
{
closed = 1;
nodes = (
"332 840 OFFCURVE",
"423 987 OFFCURVE",
"600 987 CURVE SMOOTH",
"777 987 OFFCURVE",
"870 839 OFFCURVE",
"870 555 CURVE SMOOTH",
"870 271 OFFCURVE",
"777 123 OFFCURVE",
"600 123 CURVE SMOOTH",
"423 123 OFFCURVE",
"332 270 OFFCURVE",
"332 555 CURVE SMOOTH"
);
},
{
closed = 1;
nodes = (
"1055 -430 LINE",
"1055 1116 LINE",
"870 1116 LINE",
"870 973 LINE",
"809 1084 OFFCURVE",
"704 1143 OFFCURVE",
"571 1143 CURVE SMOOTH",
"302 1143 OFFCURVE",
"137 922 OFFCURVE",
"137 551 CURVE SMOOTH",
"137 187 OFFCURVE",
"303 -33 OFFCURVE",
"571 -33 CURVE SMOOTH",
"706 -33 OFFCURVE",
"810 28 OFFCURVE",
"870 139 CURVE",
"870 -430 LINE"
);
}
);
width = 1233;
}
);
note = q;
unicode = 0071;
},
{
glyphname = r;
lastChange = "2018-02-18 05:41:45 +0000";
layers = (
{
layerId = "3F42F969-BD6F-4F86-8089-1D5B5CB6E2D2";
paths = (
{
closed = 1;
nodes = (
"1083 1125 OFFCURVE",
"1006 1147 OFFCURVE",
"915 1147 CURVE SMOOTH",
"740 1147 OFFCURVE",
"608 1060 OFFCURVE",
"547 901 CURVE",
"547 1120 LINE",
"362 1120 LINE",
"362 0 LINE",
"547 0 LINE",
"547 557 LINE SMOOTH",
"547 829 OFFCURVE",
"672 977 OFFCURVE",
"901 977 CURVE SMOOTH",
"998 977 OFFCURVE",
"1076 950 OFFCURVE",
"1155 889 CURVE",
"1155 1077 LINE"
);
}
);
width = 1233;
}
);
note = r;
unicode = 0072;
},
{
glyphname = s;
lastChange = "2018-02-18 05:41:45 +0000";
layers = (
{
layerId = "3F42F969-BD6F-4F86-8089-1D5B5CB6E2D2";
paths = (
{
closed = 1;
nodes = (
"866 1125 OFFCURVE",
"757 1147 OFFCURVE",
"637 1147 CURVE SMOOTH",
"368 1147 OFFCURVE",
"217 1026 OFFCURVE",
"217 811 CURVE SMOOTH",
"217 642 OFFCURVE",
"310 547 OFFCURVE",
"522 506 CURVE SMOOTH",
"591 492 LINE",
"599 490 LINE",
"762 457 OFFCURVE",
"844 398 OFFCURVE",
"844 313 CURVE SMOOTH",
"844 194 OFFCURVE",
"751 125 OFFCURVE",
"588 125 CURVE SMOOTH",
"476 125 OFFCURVE",
"350 160 OFFCURVE",
"213 231 CURVE",
"213 41 LINE",
"354 -6 OFFCURVE",
"473 -29 OFFCURVE",
"584 -29 CURVE SMOOTH",
"864 -29 OFFCURVE",
"1030 103 OFFCURVE",
"1030 324 CURVE SMOOTH",
"1030 491 OFFCURVE",
"935 596 OFFCURVE",
"752 631 CURVE SMOOTH",
"678 645 LINE SMOOTH",
"556 668 OFFCURVE",
"480 692 OFFCURVE",
"449 717 CURVE SMOOTH",
"418 742 OFFCURVE",
"403 779 OFFCURVE",
"403 829 CURVE SMOOTH",
"403 940 OFFCURVE",
"484 993 OFFCURVE",
"651 993 CURVE SMOOTH",
"762 993 OFFCURVE",
"868 962 OFFCURVE",
"973 901 CURVE",
"973 1081 LINE"
);
}
);
width = 1233;
}
);
note = s;
unicode = 0073;
},
{
glyphname = t;
lastChange = "2018-02-18 05:41:45 +0000";
layers = (
{
layerId = "3F42F969-BD6F-4F86-8089-1D5B5CB6E2D2";
paths = (
{
closed = 1;
nodes = (
"430 1120 LINE",
"131 1120 LINE",
"131 977 LINE",
"430 977 LINE",
"430 369 LINE SMOOTH",
"430 98 OFFCURVE",
"531 0 OFFCURVE",
"807 0 CURVE SMOOTH",
"1032 0 LINE",
"1032 147 LINE",
"825 147 LINE SMOOTH",
"669 147 OFFCURVE",
"614 204 OFFCURVE",
"614 369 CURVE SMOOTH",
"614 977 LINE",
"1032 977 LINE",
"1032 1120 LINE",
"614 1120 LINE",
"614 1438 LINE",
"430 1438 LINE"
);
}
);
width = 1233;
}
);
note = t;
unicode = 0074;
},
{
glyphname = u;
lastChange = "2018-02-18 05:41:45 +0000";
layers = (
{
layerId = "3F42F969-BD6F-4F86-8089-1D5B5CB6E2D2";
paths = (
{
closed = 1;
nodes = (
"195 120 OFFCURVE",
"306 -29 OFFCURVE",
"535 -29 CURVE SMOOTH",
"686 -29 OFFCURVE",
"801 39 OFFCURVE",
"866 168 CURVE",
"866 0 LINE",
"1051 0 LINE",
"1051 1118 LINE",
"866 1118 LINE",
"866 485 LINE SMOOTH",
"866 257 OFFCURVE",
"771 131 OFFCURVE",
"598 131 CURVE SMOOTH",
"449 131 OFFCURVE",
"379 223 OFFCURVE",
"379 424 CURVE SMOOTH",
"379 1118 LINE",
"195 1118 LINE",
"195 424 LINE SMOOTH"
);
}
);
width = 1233;
}
);
note = u;
unicode = 0075;
},
{
glyphname = v;
lastChange = "2018-02-18 05:41:45 +0000";
layers = (
{
layerId = "3F42F969-BD6F-4F86-8089-1D5B5CB6E2D2";
paths = (
{
closed = 1;
nodes = (
"735 0 LINE",
"1133 1120 LINE",
"942 1120 LINE",
"616 180 LINE",
"291 1120 LINE",
"100 1120 LINE",
"498 0 LINE"
);
}
);
width = 1233;
}
);
note = v;
unicode = 0076;
},
{
glyphname = w;
lastChange = "2018-02-18 05:41:45 +0000";
layers = (
{
layerId = "3F42F969-BD6F-4F86-8089-1D5B5CB6E2D2";
paths = (
{
closed = 1;
nodes = (
"438 0 LINE",
"616 614 LINE",
"795 0 LINE",
"971 0 LINE",
"1233 1120 LINE",
"1051 1120 LINE",
"856 215 LINE",
"694 793 LINE",
"537 793 LINE",
"377 215 LINE",
"182 1120 LINE",
"0 1120 LINE",
"262 0 LINE"
);
}
);
width = 1233;
}
);
note = w;
unicode = 0077;
},
{
glyphname = x;
lastChange = "2018-02-18 05:41:45 +0000";
layers = (
{
layerId = "3F42F969-BD6F-4F86-8089-1D5B5CB6E2D2";
paths = (
{
closed = 1;
nodes = (
"616 715 LINE",
"319 1120 LINE",
"115 1120 LINE",
"516 584 LINE",
"76 0 LINE",
"289 0 LINE",
"616 449 LINE",
"944 0 LINE",
"1157 0 LINE",
"717 584 LINE",
"1118 1120 LINE",
"911 1120 LINE"
);
}
);
width = 1233;
}
);
note = x;
unicode = 0078;
},
{
glyphname = y;
lastChange = "2018-02-18 05:41:45 +0000";
layers = (
{
layerId = "3F42F969-BD6F-4F86-8089-1D5B5CB6E2D2";
paths = (
{
closed = 1;
nodes = (
"958 1120 LINE",
"631 244 LINE",
"299 1120 LINE",
"104 1120 LINE",
"537 18 LINE",
"490 -113 OFFCURVE",
"451 -194 OFFCURVE",
"420 -225 CURVE SMOOTH",
"389 -256 OFFCURVE",
"347 -272 OFFCURVE",
"293 -272 CURVE SMOOTH",
"184 -272 LINE",
"184 -426 LINE",
"332 -426 LINE SMOOTH",
"455 -426 OFFCURVE",
"547 -374 OFFCURVE",
"608 -270 CURVE SMOOTH",
"631 -231 OFFCURVE",
"675 -124 OFFCURVE",
"741 52 CURVE SMOOTH",
"788 179 OFFCURVE",
"827 282 OFFCURVE",
"858 360 CURVE SMOOTH",
"1153 1120 LINE"
);
}
);
width = 1233;
}
);
note = y;
unicode = 0079;
},
{
glyphname = z;
lastChange = "2018-02-18 05:41:45 +0000";
layers = (
{
layerId = "3F42F969-BD6F-4F86-8089-1D5B5CB6E2D2";
paths = (
{
closed = 1;
nodes = (
"846 975 LINE",
"203 170 LINE",
"203 0 LINE",
"1040 0 LINE",
"1040 150 LINE",
"397 150 LINE",
"1040 954 LINE",
"1040 1122 LINE",
"227 1122 LINE",
"227 975 LINE"
);
}
);
width = 1233;
}
);
note = z;
unicode = 007A;
},
{
glyphname = braceleft;
lastChange = "2018-02-18 05:41:45 +0000";
layers = (
{
layerId = "3F42F969-BD6F-4F86-8089-1D5B5CB6E2D2";
paths = (
{
closed = 1;
nodes = (
"775 -51 OFFCURVE",
"737 -13 OFFCURVE",
"737 178 CURVE SMOOTH",
"737 387 LINE SMOOTH",
"737 615 OFFCURVE",
"658 681 OFFCURVE",
"399 712 CURVE",
"666 748 OFFCURVE",
"737 801 OFFCURVE",
"737 1036 CURVE SMOOTH",
"737 1304 LINE SMOOTH",
"737 1493 OFFCURVE",
"775 1533 OFFCURVE",
"962 1533 CURVE SMOOTH",
"1032 1533 LINE",
"1032 1676 LINE",
"968 1676 LINE SMOOTH",
"636 1676 OFFCURVE",
"550 1603 OFFCURVE",
"550 1308 CURVE SMOOTH",
"550 1048 LINE SMOOTH",
"550 875 OFFCURVE",
"486 784 OFFCURVE",
"298 784 CURVE SMOOTH",
"176 784 LINE",
"176 641 LINE",
"298 641 LINE SMOOTH",
"470 641 OFFCURVE",
"550 519 OFFCURVE",
"550 374 CURVE SMOOTH",
"550 174 LINE SMOOTH",
"550 -121 OFFCURVE",
"636 -195 OFFCURVE",
"968 -195 CURVE SMOOTH",
"1032 -195 LINE",
"1032 -51 LINE",
"962 -51 LINE SMOOTH"
);
}
);
width = 1233;
}
);
note = braceleft;
unicode = 007B;
},
{
glyphname = bar;
lastChange = "2018-02-18 05:41:45 +0000";
layers = (
{
layerId = "3F42F969-BD6F-4F86-8089-1D5B5CB6E2D2";
paths = (
{
closed = 1;
nodes = (
"570 -483 LINE",
"742 -483 LINE",
"742 1565 LINE",
"570 1565 LINE"
);
}
);
width = 1233;
}
);
note = bar;
unicode = 007C;
},
{
glyphname = braceright;
lastChange = "2018-02-18 05:41:45 +0000";
layers = (
{
layerId = "3F42F969-BD6F-4F86-8089-1D5B5CB6E2D2";
paths = (
{
closed = 1;
nodes = (
"219 -195 LINE",
"283 -195 LINE SMOOTH",
"615 -195 OFFCURVE",
"701 -121 OFFCURVE",
"701 174 CURVE SMOOTH",
"701 374 LINE SMOOTH",
"701 519 OFFCURVE",
"781 641 OFFCURVE",
"953 641 CURVE SMOOTH",
"1075 641 LINE",
"1075 784 LINE",
"953 784 LINE SMOOTH",
"765 784 OFFCURVE",
"701 875 OFFCURVE",
"701 1048 CURVE SMOOTH",
"701 1308 LINE SMOOTH",
"701 1603 OFFCURVE",
"615 1676 OFFCURVE",
"283 1676 CURVE SMOOTH",
"219 1676 LINE",
"219 1533 LINE",
"289 1533 LINE SMOOTH",
"476 1533 OFFCURVE",
"514 1493 OFFCURVE",
"514 1304 CURVE SMOOTH",
"514 1036 LINE SMOOTH",
"514 801 OFFCURVE",
"585 748 OFFCURVE",
"852 712 CURVE",
"593 681 OFFCURVE",
"514 615 OFFCURVE",
"514 387 CURVE SMOOTH",
"514 178 LINE SMOOTH",
"514 -13 OFFCURVE",
"476 -51 OFFCURVE",
"289 -51 CURVE SMOOTH",
"219 -51 LINE"
);
}
);
width = 1233;
}
);
note = braceright;
unicode = 007D;
},
{
glyphname = asciitilde;
lastChange = "2018-02-18 05:41:45 +0000";
layers = (
{
layerId = "3F42F969-BD6F-4F86-8089-1D5B5CB6E2D2";
paths = (
{
closed = 1;
nodes = (
"1046 679 OFFCURVE",
"982 532 OFFCURVE",
"877 532 CURVE SMOOTH",
"815 532 OFFCURVE",
"740 599 OFFCURVE",
"651 734 CURVE SMOOTH",
"562 869 OFFCURVE",
"461 935 OFFCURVE",
"348 934 CURVE SMOOTH",
"224 934 OFFCURVE",
"90 820 OFFCURVE",
"13 573 CURVE",
"146 497 LINE",
"175 572 OFFCURVE",
"203 633 OFFCURVE",
"230 682 CURVE SMOOTH",
"283 778 OFFCURVE",
"405 774 OFFCURVE",
"466 698 CURVE SMOOTH",
"527 621 OFFCURVE",
"690 368 OFFCURVE",
"877 357 CURVE",
"994 357 OFFCURVE",
"1102 435 OFFCURVE",
"1217 696 CURVE",
"1087 784 LINE"
);
}
);
width = 1233;
}
);
note = asciitilde;
unicode = 007E;
},
{
glyphname = exclamdown;
lastChange = "2018-02-18 05:41:45 +0000";
layers = (
{
layerId = "3F42F969-BD6F-4F86-8089-1D5B5CB6E2D2";
paths = (
{
closed = 1;
nodes = (
"719 1493 LINE",
"516 1493 LINE",
"516 1239 LINE",
"719 1239 LINE"
);
},
{
closed = 1;
nodes = (
"719 655 LINE",
"698 1012 LINE",
"537 1012 LINE",
"516 655 LINE",
"516 0 LINE",
"719 0 LINE"
);
}
);
width = 1233;
}
);
note = exclamdown;
unicode = 00A1;
},
{
glyphname = cent;
lastChange = "2018-02-18 05:41:45 +0000";
layers = (
{
layerId = "3F42F969-BD6F-4F86-8089-1D5B5CB6E2D2";
paths = (
{
closed = 1;
nodes = (
"964 1118 OFFCURVE",
"870 1141 OFFCURVE",
"821 1145 CURVE",
"821 1432 LINE",
"698 1432 LINE",
"698 1145 LINE",
"402 1120 OFFCURVE",
"213 892 OFFCURVE",
"213 559 CURVE SMOOTH",
"213 224 OFFCURVE",
"398 2 OFFCURVE",
"698 -27 CURVE",
"698 -313 LINE",
"821 -313 LINE",
"821 -27 LINE",
"870 -23 OFFCURVE",
"964 0 OFFCURVE",
"1061 41 CURVE",
"1061 213 LINE",
"973 160 OFFCURVE",
"878 130 OFFCURVE",
"821 123 CURVE",
"821 993 LINE",
"878 988 OFFCURVE",
"972 958 OFFCURVE",
"1061 905 CURVE",
"1061 1077 LINE"
);
},
{
closed = 1;
nodes = (
"522 144 OFFCURVE",
"406 314 OFFCURVE",
"406 559 CURVE SMOOTH",
"406 804 OFFCURVE",
"522 975 OFFCURVE",
"698 991 CURVE",
"698 127 LINE"
);
}
);
width = 1233;
}
);
note = cent;
unicode = 00A2;
},
{
glyphname = sterling;
lastChange = "2018-02-18 05:41:45 +0000";
layers = (
{
layerId = "3F42F969-BD6F-4F86-8089-1D5B5CB6E2D2";
paths = (
{
closed = 1;
nodes = (
"995 1501 OFFCURVE",
"904 1520 OFFCURVE",
"817 1520 CURVE SMOOTH",
"520 1520 OFFCURVE",
"375 1355 OFFCURVE",
"375 1016 CURVE SMOOTH",
"375 778 LINE",
"176 778 LINE",
"176 635 LINE",
"375 635 LINE",
"375 170 LINE",
"139 170 LINE",
"139 0 LINE",
"1112 0 LINE",
"1112 170 LINE",
"575 170 LINE",
"575 635 LINE",
"946 635 LINE",
"946 778 LINE",
"575 778 LINE",
"575 995 LINE SMOOTH",
"575 1251 OFFCURVE",
"657 1366 OFFCURVE",
"836 1366 CURVE SMOOTH",
"925 1366 OFFCURVE",
"1009 1337 OFFCURVE",
"1092 1278 CURVE",
"1092 1462 LINE"
);
}
);
width = 1233;
}
);
note = sterling;
unicode = 00A3;
},
{
glyphname = currency;
lastChange = "2018-02-18 05:41:45 +0000";
layers = (
{
layerId = "3F42F969-BD6F-4F86-8089-1D5B5CB6E2D2";
paths = (
{
closed = 1;
nodes = (
"868 522 OFFCURVE",
"774 426 OFFCURVE",
"653 426 CURVE SMOOTH",
"533 426 OFFCURVE",
"438 520 OFFCURVE",
"438 643 CURVE SMOOTH",
"438 763 OFFCURVE",
"533 856 OFFCURVE",
"653 856 CURVE SMOOTH",
"774 856 OFFCURVE",
"868 763 OFFCURVE",
"868 643 CURVE SMOOTH"
);
},
{
closed = 1;
nodes = (
"776 964 OFFCURVE",
"714 983 OFFCURVE",
"653 983 CURVE SMOOTH",
"585 983 OFFCURVE",
"526 963 OFFCURVE",
"465 922 CURVE",
"299 1090 LINE",
"205 995 LINE",
"373 829 LINE",
"332 769 OFFCURVE",
"311 708 OFFCURVE",
"311 641 CURVE SMOOTH",
"311 580 OFFCURVE",
"330 519 OFFCURVE",
"371 451 CURVE",
"205 285 LINE",
"297 195 LINE",
"461 358 LINE",
"525 321 OFFCURVE",
"589 301 OFFCURVE",
"653 301 CURVE SMOOTH",
"720 301 OFFCURVE",
"779 321 OFFCURVE",
"840 362 CURVE",
"1006 195 LINE",
"1100 289 LINE",
"932 455 LINE",
"973 515 OFFCURVE",
"993 574 OFFCURVE",
"993 641 CURVE SMOOTH",
"993 705 OFFCURVE",
"974 766 OFFCURVE",
"934 831 CURVE",
"1100 997 LINE",
"1010 1090 LINE",
"844 924 LINE"
);
}
);
width = 1233;
}
);
note = currency;
unicode = 00A4;
},
{
glyphname = yen;
lastChange = "2018-02-18 05:41:45 +0000";
layers = (
{
layerId = "3F42F969-BD6F-4F86-8089-1D5B5CB6E2D2";
paths = (
{
closed = 1;
nodes = (
"115 932 LINE",
"115 821 LINE",
"424 821 LINE",
"514 670 LINE",
"514 635 LINE",
"115 635 LINE",
"115 524 LINE",
"514 524 LINE",
"514 0 LINE",
"717 0 LINE",
"717 524 LINE",
"1118 524 LINE",
"1118 635 LINE",
"717 635 LINE",
"717 670 LINE",
"803 821 LINE",
"1118 821 LINE",
"1118 932 LINE",
"866 932 LINE",
"1196 1493 LINE",
"979 1493 LINE",
"616 834 LINE",
"252 1493 LINE",
"37 1493 LINE",
"358 932 LINE"
);
}
);
width = 1233;
}
);
note = yen;
unicode = 00A5;
},
{
glyphname = brokenbar;
lastChange = "2018-02-18 05:41:45 +0000";
layers = (
{
layerId = "3F42F969-BD6F-4F86-8089-1D5B5CB6E2D2";
paths = (
{
closed = 1;
nodes = (
"530 674 LINE",
"702 674 LINE",
"702 1432 LINE",
"530 1432 LINE"
);
},
{
closed = 1;
nodes = (
"530 -350 LINE",
"702 -350 LINE",
"702 408 LINE",
"530 408 LINE"
);
}
);
width = 1233;
}
);
note = brokenbar;
unicode = 00A6;
},
{
glyphname = section;
lastChange = "2018-02-18 05:41:45 +0000";
layers = (
{
layerId = "3F42F969-BD6F-4F86-8089-1D5B5CB6E2D2";
paths = (
{
closed = 1;
nodes = (
"829 1501 OFFCURVE",
"727 1520 OFFCURVE",
"631 1520 CURVE SMOOTH",
"408 1520 OFFCURVE",
"264 1404 OFFCURVE",
"264 1231 CURVE SMOOTH",
"264 1139 OFFCURVE",
"303 1065 OFFCURVE",
"383 1006 CURVE",
"262 941 OFFCURVE",
"199 844 OFFCURVE",
"199 723 CURVE SMOOTH",
"199 655 OFFCURVE",
"220 596 OFFCURVE",
"263 545 CURVE SMOOTH",
"306 494 OFFCURVE",
"398 428 OFFCURVE",
"541 348 CURVE SMOOTH",
"565 334 LINE SMOOTH",
"712 252 OFFCURVE",
"786 177 OFFCURVE",
"786 109 CURVE SMOOTH",
"786 8 OFFCURVE",
"707 -51 OFFCURVE",
"571 -51 CURVE SMOOTH",
"495 -51 OFFCURVE",
"395 -25 OFFCURVE",
"279 27 CURVE",
"279 -137 LINE",
"395 -176 OFFCURVE",
"497 -195 OFFCURVE",
"594 -195 CURVE SMOOTH",
"825 -195 OFFCURVE",
"971 -74 OFFCURVE",
"971 115 CURVE SMOOTH",
"971 200 OFFCURVE",
"933 271 OFFCURVE",
"852 340 CURVE",
"976 411 OFFCURVE",
"1036 503 OFFCURVE",
"1036 623 CURVE SMOOTH",
"1036 690 OFFCURVE",
"1014 750 OFFCURVE",
"971 801 CURVE SMOOTH",
"928 852 OFFCURVE",
"835 918 OFFCURVE",
"694 997 CURVE SMOOTH",
"685 1002 OFFCURVE",
"671 1010 OFFCURVE",
"654 1020 CURVE SMOOTH",
"517 1097 OFFCURVE",
"449 1165 OFFCURVE",
"449 1225 CURVE SMOOTH",
"449 1320 OFFCURVE",
"524 1376 OFFCURVE",
"653 1376 CURVE SMOOTH",
"729 1376 OFFCURVE",
"825 1350 OFFCURVE",
"936 1298 CURVE",
"936 1462 LINE"
);
},
{
closed = 1;
nodes = (
"648 848 OFFCURVE",
"753 781 OFFCURVE",
"801 736 CURVE SMOOTH",
"848 691 OFFCURVE",
"872 643 OFFCURVE",
"872 592 CURVE SMOOTH",
"872 529 OFFCURVE",
"833 470 OFFCURVE",
"750 410 CURVE",
"585 499 OFFCURVE",
"480 566 OFFCURVE",
"433 611 CURVE SMOOTH",
"386 656 OFFCURVE",
"362 703 OFFCURVE",
"362 754 CURVE SMOOTH",
"362 817 OFFCURVE",
"402 876 OFFCURVE",
"485 936 CURVE"
);
}
);
width = 1233;
}
);
note = section;
unicode = 00A7;
},
{
glyphname = dieresis;
lastChange = "2018-02-18 05:41:45 +0000";
layers = (
{
layerId = "3F42F969-BD6F-4F86-8089-1D5B5CB6E2D2";
paths = (
{
closed = 1;
nodes = (
"522 1350 LINE",
"522 1552 LINE",
"319 1552 LINE",
"319 1350 LINE"
);
},
{
closed = 1;
nodes = (
"913 1350 LINE",
"913 1552 LINE",
"711 1552 LINE",
"711 1350 LINE"
);
}
);
width = 1233;
}
);
note = dieresis;
unicode = 00A8;
},
{
glyphname = copyright;
lastChange = "2018-02-18 05:41:45 +0000";
layers = (
{
layerId = "3F42F969-BD6F-4F86-8089-1D5B5CB6E2D2";
paths = (
{
closed = 1;
nodes = (
"795 1102 OFFCURVE",
"718 1116 OFFCURVE",
"637 1116 CURVE SMOOTH",
"398 1116 OFFCURVE",
"250 972 OFFCURVE",
"250 741 CURVE SMOOTH",
"250 512 OFFCURVE",
"397 369 OFFCURVE",
"637 369 CURVE SMOOTH",
"718 369 OFFCURVE",
"795 383 OFFCURVE",
"864 414 CURVE",
"864 518 LINE",
"797 483 OFFCURVE",
"730 467 OFFCURVE",
"655 467 CURVE SMOOTH",
"482 467 OFFCURVE",
"385 565 OFFCURVE",
"385 741 CURVE SMOOTH",
"385 912 OFFCURVE",
"481 1018 OFFCURVE",
"637 1018 CURVE SMOOTH",
"714 1018 OFFCURVE",
"787 1000 OFFCURVE",
"864 963 CURVE",
"864 1071 LINE"
);
},
{
closed = 1;
nodes = (
"759 1255 OFFCURVE",
"879 1206 OFFCURVE",
"979 1106 CURVE SMOOTH",
"1079 1006 OFFCURVE",
"1130 882 OFFCURVE",
"1130 741 CURVE SMOOTH",
"1130 601 OFFCURVE",
"1080 480 OFFCURVE",
"979 379 CURVE SMOOTH",
"878 278 OFFCURVE",
"757 227 OFFCURVE",
"616 227 CURVE SMOOTH",
"476 227 OFFCURVE",
"355 278 OFFCURVE",
"254 379 CURVE SMOOTH",
"154 479 OFFCURVE",
"102 602 OFFCURVE",
"102 741 CURVE SMOOTH",
"102 882 OFFCURVE",
"154 1006 OFFCURVE",
"254 1106 CURVE SMOOTH",
"354 1206 OFFCURVE",
"475 1255 OFFCURVE",
"616 1255 CURVE SMOOTH"
);
},
{
closed = 1;
nodes = (
"448 1358 OFFCURVE",
"302 1298 OFFCURVE",
"182 1178 CURVE SMOOTH",
"62 1057 OFFCURVE",
"0 909 OFFCURVE",
"0 741 CURVE SMOOTH",
"0 574 OFFCURVE",
"61 428 OFFCURVE",
"182 307 CURVE SMOOTH",
"303 186 OFFCURVE",
"449 125 OFFCURVE",
"616 125 CURVE SMOOTH",
"784 125 OFFCURVE",
"930 186 OFFCURVE",
"1051 307 CURVE SMOOTH",
"1172 428 OFFCURVE",
"1233 574 OFFCURVE",
"1233 741 CURVE SMOOTH",
"1233 909 OFFCURVE",
"1171 1057 OFFCURVE",
"1051 1178 CURVE SMOOTH",
"931 1298 OFFCURVE",
"785 1358 OFFCURVE",
"616 1358 CURVE SMOOTH"
);
}
);
width = 1233;
}
);
note = copyright;
unicode = 00A9;
},
{
glyphname = ordfeminine;
lastChange = "2018-02-18 05:41:45 +0000";
layers = (
{
layerId = "3F42F969-BD6F-4F86-8089-1D5B5CB6E2D2";
paths = (
{
closed = 1;
nodes = (
"811 1075 LINE SMOOTH",
"811 922 OFFCURVE",
"715 817 OFFCURVE",
"575 817 CURVE SMOOTH",
"479 817 OFFCURVE",
"416 873 OFFCURVE",
"416 958 CURVE SMOOTH",
"416 1062 OFFCURVE",
"492 1104 OFFCURVE",
"684 1104 CURVE SMOOTH",
"811 1104 LINE"
);
},
{
closed = 1;
nodes = (
"954 1409 OFFCURVE",
"843 1520 OFFCURVE",
"598 1520 CURVE SMOOTH",
"514 1520 OFFCURVE",
"423 1501 OFFCURVE",
"332 1464 CURVE",
"332 1337 LINE",
"421 1381 OFFCURVE",
"507 1405 OFFCURVE",
"575 1405 CURVE SMOOTH",
"731 1405 OFFCURVE",
"811 1343 OFFCURVE",
"811 1223 CURVE SMOOTH",
"811 1219 LINE",
"629 1219 LINE SMOOTH",
"400 1219 OFFCURVE",
"270 1122 OFFCURVE",
"270 950 CURVE SMOOTH",
"270 795 OFFCURVE",
"377 698 OFFCURVE",
"549 698 CURVE SMOOTH",
"658 698 OFFCURVE",
"746 742 OFFCURVE",
"811 829 CURVE",
"811 717 LINE",
"954 717 LINE",
"954 1165 LINE SMOOTH"
);
},
{
closed = 1;
nodes = (
"961 469 LINE",
"961 592 LINE",
"293 592 LINE",
"293 469 LINE"
);
}
);
width = 1233;
}
);
note = ordfeminine;
unicode = 00AA;
},
{
glyphname = guillemotleft;
lastChange = "2018-02-18 05:41:45 +0000";
layers = (
{
layerId = "3F42F969-BD6F-4F86-8089-1D5B5CB6E2D2";
paths = (
{
closed = 1;
nodes = (
"119 559 LINE",
"588 141 LINE",
"588 332 LINE",
"287 600 LINE",
"588 868 LINE",
"588 1059 LINE",
"119 641 LINE"
);
},
{
closed = 1;
nodes = (
"573 559 LINE",
"1042 141 LINE",
"1042 332 LINE",
"741 600 LINE",
"1042 868 LINE",
"1042 1059 LINE",
"573 641 LINE"
);
}
);
width = 1233;
}
);
note = guillemotleft;
unicode = 00AB;
},
{
glyphname = logicalnot;
lastChange = "2018-02-18 05:41:45 +0000";
layers = (
{
layerId = "3F42F969-BD6F-4F86-8089-1D5B5CB6E2D2";
paths = (
{
closed = 1;
nodes = (
"977 690 LINE",
"977 371 LINE",
"1145 371 LINE",
"1145 862 LINE",
"88 862 LINE",
"88 690 LINE"
);
}
);
width = 1233;
}
);
note = logicalnot;
unicode = 00AC;
},
{
glyphname = sfthyphen;
lastChange = "2018-02-18 05:41:45 +0000";
layers = (
{
layerId = "3F42F969-BD6F-4F86-8089-1D5B5CB6E2D2";
paths = (
{
closed = 1;
nodes = (
"1122 555 LINE",
"1122 744 LINE",
"132 744 LINE",
"132 555 LINE"
);
}
);
width = 1233;
}
);
note = sfthyphen;
unicode = 00AD;
},
{
glyphname = registered;
lastChange = "2018-02-18 05:41:45 +0000";
layers = (
{
layerId = "3F42F969-BD6F-4F86-8089-1D5B5CB6E2D2";
paths = (
{
closed = 1;
nodes = (
"362 406 LINE",
"492 406 LINE",
"492 702 LINE",
"547 702 LINE SMOOTH",
"607 702 OFFCURVE",
"637 687 OFFCURVE",
"702 580 CURVE SMOOTH",
"809 406 LINE",
"952 406 LINE",
"838 592 LINE SMOOTH",
"813 631 OFFCURVE",
"790 662 OFFCURVE",
"771 685 CURVE SMOOTH",
"752 707 OFFCURVE",
"736 720 OFFCURVE",
"723 723 CURVE",
"830 742 OFFCURVE",
"891 806 OFFCURVE",
"891 901 CURVE SMOOTH",
"891 1036 OFFCURVE",
"796 1100 OFFCURVE",
"600 1100 CURVE SMOOTH",
"362 1100 LINE"
);
},
{
closed = 1;
nodes = (
"714 1016 OFFCURVE",
"758 984 OFFCURVE",
"758 901 CURVE SMOOTH",
"758 817 OFFCURVE",
"714 784 OFFCURVE",
"594 784 CURVE SMOOTH",
"492 784 LINE",
"492 1016 LINE",
"594 1016 LINE SMOOTH"
);
},
{
closed = 1;
nodes = (
"448 1358 OFFCURVE",
"302 1298 OFFCURVE",
"182 1178 CURVE SMOOTH",
"62 1057 OFFCURVE",
"0 909 OFFCURVE",
"0 741 CURVE SMOOTH",
"0 574 OFFCURVE",
"61 428 OFFCURVE",
"182 307 CURVE SMOOTH",
"303 186 OFFCURVE",
"449 125 OFFCURVE",
"616 125 CURVE SMOOTH",
"784 125 OFFCURVE",
"930 186 OFFCURVE",
"1051 307 CURVE SMOOTH",
"1172 428 OFFCURVE",
"1233 574 OFFCURVE",
"1233 741 CURVE SMOOTH",
"1233 909 OFFCURVE",
"1171 1057 OFFCURVE",
"1051 1178 CURVE SMOOTH",
"931 1298 OFFCURVE",
"785 1358 OFFCURVE",
"616 1358 CURVE SMOOTH"
);
},
{
closed = 1;
nodes = (
"759 1255 OFFCURVE",
"879 1206 OFFCURVE",
"979 1106 CURVE SMOOTH",
"1079 1006 OFFCURVE",
"1130 882 OFFCURVE",
"1130 741 CURVE SMOOTH",
"1130 601 OFFCURVE",
"1080 480 OFFCURVE",
"979 379 CURVE SMOOTH",
"878 278 OFFCURVE",
"757 227 OFFCURVE",
"616 227 CURVE SMOOTH",
"476 227 OFFCURVE",
"355 278 OFFCURVE",
"254 379 CURVE SMOOTH",
"154 479 OFFCURVE",
"102 602 OFFCURVE",
"102 741 CURVE SMOOTH",
"102 882 OFFCURVE",
"154 1006 OFFCURVE",
"254 1106 CURVE SMOOTH",
"354 1206 OFFCURVE",
"475 1255 OFFCURVE",
"616 1255 CURVE SMOOTH"
);
}
);
width = 1233;
}
);
note = registered;
unicode = 00AE;
},
{
glyphname = macron;
lastChange = "2018-02-18 05:41:45 +0000";
layers = (
{
layerId = "3F42F969-BD6F-4F86-8089-1D5B5CB6E2D2";
paths = (
{
closed = 1;
nodes = (
"1115 1378 LINE",
"1115 1526 LINE",
"117 1526 LINE",
"117 1378 LINE"
);
}
);
width = 1233;
}
);
note = macron;
unicode = 00AF;
},
{
glyphname = degree;
lastChange = "2018-02-18 05:41:45 +0000";
layers = (
{
layerId = "3F42F969-BD6F-4F86-8089-1D5B5CB6E2D2";
paths = (
{
closed = 1;
nodes = (
"439 1520 OFFCURVE",
"299 1379 OFFCURVE",
"299 1200 CURVE SMOOTH",
"299 1020 OFFCURVE",
"434 885 OFFCURVE",
"614 885 CURVE SMOOTH",
"793 885 OFFCURVE",
"934 1024 OFFCURVE",
"934 1200 CURVE SMOOTH",
"934 1288 OFFCURVE",
"902 1365 OFFCURVE",
"842 1425 CURVE SMOOTH",
"783 1486 OFFCURVE",
"703 1520 OFFCURVE",
"616 1520 CURVE SMOOTH"
);
},
{
closed = 1;
nodes = (
"721 1391 OFFCURVE",
"807 1305 OFFCURVE",
"807 1200 CURVE SMOOTH",
"807 1096 OFFCURVE",
"721 1012 OFFCURVE",
"614 1012 CURVE SMOOTH",
"509 1012 OFFCURVE",
"426 1093 OFFCURVE",
"426 1200 CURVE SMOOTH",
"426 1307 OFFCURVE",
"511 1391 OFFCURVE",
"616 1391 CURVE SMOOTH"
);
}
);
width = 1233;
}
);
note = degree;
unicode = 00B0;
},
{
glyphname = plusminus;
lastChange = "2018-02-18 05:41:45 +0000";
layers = (
{
layerId = "3F42F969-BD6F-4F86-8089-1D5B5CB6E2D2";
paths = (
{
closed = 1;
nodes = (
"1145 0 LINE",
"1145 170 LINE",
"88 170 LINE",
"88 0 LINE"
);
},
{
closed = 1;
nodes = (
"532 922 LINE",
"88 922 LINE",
"88 752 LINE",
"532 752 LINE",
"532 380 LINE",
"700 380 LINE",
"700 752 LINE",
"1145 752 LINE",
"1145 922 LINE",
"700 922 LINE",
"700 1291 LINE",
"532 1291 LINE"
);
}
);
width = 1233;
}
);
note = plusminus;
unicode = 00B1;
},
{
glyphname = twosuperior;
lastChange = "2018-02-18 05:41:45 +0000";
layers = (
{
layerId = "3F42F969-BD6F-4F86-8089-1D5B5CB6E2D2";
paths = (
{
closed = 1;
nodes = (
"773 1065 OFFCURVE",
"825 1124 OFFCURVE",
"850 1164 CURVE SMOOTH",
"875 1203 OFFCURVE",
"887 1242 OFFCURVE",
"887 1280 CURVE SMOOTH",
"887 1423 OFFCURVE",
"762 1520 OFFCURVE",
"573 1520 CURVE SMOOTH",
"494 1520 OFFCURVE",
"415 1501 OFFCURVE",
"328 1464 CURVE",
"328 1339 LINE",
"412 1387 OFFCURVE",
"488 1411 OFFCURVE",
"553 1411 CURVE SMOOTH",
"662 1411 OFFCURVE",
"735 1355 OFFCURVE",
"735 1274 CURVE SMOOTH",
"735 1240 OFFCURVE",
"722 1203 OFFCURVE",
"695 1162 CURVE SMOOTH",
"668 1121 OFFCURVE",
"620 1069 OFFCURVE",
"553 1004 CURVE SMOOTH",
"322 778 LINE",
"322 668 LINE",
"893 668 LINE",
"893 782 LINE",
"483 782 LINE",
"694 987 LINE SMOOTH"
);
}
);
width = 1233;
}
);
note = twosuperior;
unicode = 00B2;
},
{
glyphname = threesuperior;
lastChange = "2018-02-18 05:41:45 +0000";
layers = (
{
layerId = "3F42F969-BD6F-4F86-8089-1D5B5CB6E2D2";
paths = (
{
closed = 1;
nodes = (
"843 1145 OFFCURVE",
"903 1208 OFFCURVE",
"903 1303 CURVE SMOOTH",
"903 1435 OFFCURVE",
"783 1520 OFFCURVE",
"590 1520 CURVE SMOOTH",
"523 1520 OFFCURVE",
"446 1508 OFFCURVE",
"354 1485 CURVE",
"354 1364 LINE",
"433 1395 OFFCURVE",
"510 1411 OFFCURVE",
"569 1411 CURVE SMOOTH",
"685 1411 OFFCURVE",
"752 1367 OFFCURVE",
"752 1292 CURVE SMOOTH",
"752 1212 OFFCURVE",
"685 1169 OFFCURVE",
"561 1169 CURVE SMOOTH",
"487 1169 LINE",
"487 1061 LINE",
"553 1061 LINE SMOOTH",
"698 1061 OFFCURVE",
"772 1010 OFFCURVE",
"772 911 CURVE SMOOTH",
"772 820 OFFCURVE",
"688 762 OFFCURVE",
"553 762 CURVE SMOOTH",
"493 762 OFFCURVE",
"418 779 OFFCURVE",
"326 815 CURVE",
"326 694 LINE",
"405 667 OFFCURVE",
"480 653 OFFCURVE",
"557 653 CURVE SMOOTH",
"793 653 OFFCURVE",
"924 746 OFFCURVE",
"924 911 CURVE SMOOTH",
"924 1018 OFFCURVE",
"856 1092 OFFCURVE",
"731 1120 CURVE"
);
}
);
width = 1233;
}
);
note = threesuperior;
unicode = 00B3;
},
{
glyphname = acute;
lastChange = "2018-02-18 05:41:45 +0000";
layers = (
{
layerId = "3F42F969-BD6F-4F86-8089-1D5B5CB6E2D2";
paths = (
{
closed = 1;
nodes = (
"629 1262 LINE",
"954 1638 LINE",
"756 1638 LINE",
"475 1262 LINE"
);
}
);
width = 1233;
}
);
note = acute;
unicode = 00B4;
},
{
glyphname = mu;
lastChange = "2018-02-18 05:41:45 +0000";
layers = (
{
layerId = "3F42F969-BD6F-4F86-8089-1D5B5CB6E2D2";
paths = (
{
closed = 1;
nodes = (
"362 127 LINE",
"421 20 OFFCURVE",
"502 -29 OFFCURVE",
"625 -29 CURVE SMOOTH",
"744 -29 OFFCURVE",
"832 22 OFFCURVE",
"893 129 CURVE",
"909 24 OFFCURVE",
"959 -29 OFFCURVE",
"1042 -29 CURVE SMOOTH",
"1087 -29 OFFCURVE",
"1131 -15 OFFCURVE",
"1182 16 CURVE",
"1182 164 LINE",
"1163 155 OFFCURVE",
"1149 149 OFFCURVE",
"1140 146 CURVE SMOOTH",
"1130 143 OFFCURVE",
"1122 141 OFFCURVE",
"1116 141 CURVE SMOOTH",
"1072 141 OFFCURVE",
"1051 177 OFFCURVE",
"1051 256 CURVE SMOOTH",
"1051 1120 LINE",
"866 1120 LINE",
"866 467 LINE SMOOTH",
"866 246 OFFCURVE",
"779 131 OFFCURVE",
"610 131 CURVE SMOOTH",
"462 131 OFFCURVE",
"379 235 OFFCURVE",
"379 424 CURVE SMOOTH",
"379 1120 LINE",
"195 1120 LINE",
"195 -428 LINE",
"362 -428 LINE"
);
}
);
width = 1233;
}
);
note = mu;
unicode = 00B5;
},
{
glyphname = paragraph;
lastChange = "2018-02-18 05:41:45 +0000";
layers = (
{
layerId = "3F42F969-BD6F-4F86-8089-1D5B5CB6E2D2";
paths = (
{
closed = 1;
nodes = (
"295 1493 OFFCURVE",
"106 1324 OFFCURVE",
"106 1071 CURVE SMOOTH",
"106 826 OFFCURVE",
"270 672 OFFCURVE",
"557 649 CURVE",
"557 -197 LINE",
"698 -197 LINE",
"698 1370 LINE",
"889 1370 LINE",
"889 -197 LINE",
"1030 -197 LINE",
"1030 1493 LINE",
"582 1493 LINE SMOOTH"
);
}
);
width = 1233;
}
);
note = paragraph;
unicode = 00B6;
},
{
glyphname = periodcentered;
lastChange = "2018-02-18 05:41:45 +0000";
layers = (
{
layerId = "3F42F969-BD6F-4F86-8089-1D5B5CB6E2D2";
paths = (
{
closed = 1;
nodes = (
"741 559 LINE",
"741 864 LINE",
"489 864 LINE",
"489 559 LINE"
);
}
);
width = 1233;
}
);
note = periodcentered;
unicode = 00B7;
},
{
glyphname = onesuperior;
lastChange = "2018-02-18 05:41:45 +0000";
layers = (
{
layerId = "3F42F969-BD6F-4F86-8089-1D5B5CB6E2D2";
paths = (
{
closed = 1;
nodes = (
"915 668 LINE",
"915 778 LINE",
"711 778 LINE",
"711 1503 LINE",
"573 1503 LINE",
"344 1464 LINE",
"344 1348 LINE",
"567 1389 LINE",
"567 778 LINE",
"362 778 LINE",
"362 668 LINE"
);
}
);
width = 1233;
}
);
note = onesuperior;
unicode = 00B9;
},
{
glyphname = ordmasculine;
lastChange = "2018-02-18 05:41:45 +0000";
layers = (
{
layerId = "3F42F969-BD6F-4F86-8089-1D5B5CB6E2D2";
paths = (
{
closed = 1;
nodes = (
"753 1403 OFFCURVE",
"834 1293 OFFCURVE",
"834 1108 CURVE SMOOTH",
"834 927 OFFCURVE",
"751 815 OFFCURVE",
"616 815 CURVE SMOOTH",
"480 815 OFFCURVE",
"399 923 OFFCURVE",
"399 1108 CURVE SMOOTH",
"399 1293 OFFCURVE",
"480 1403 OFFCURVE",
"616 1403 CURVE SMOOTH"
);
},
{
closed = 1;
nodes = (
"391 1520 OFFCURVE",
"244 1359 OFFCURVE",
"244 1108 CURVE SMOOTH",
"244 859 OFFCURVE",
"389 698 OFFCURVE",
"616 698 CURVE SMOOTH",
"844 698 OFFCURVE",
"989 859 OFFCURVE",
"989 1108 CURVE SMOOTH",
"989 1359 OFFCURVE",
"843 1520 OFFCURVE",
"616 1520 CURVE SMOOTH"
);
},
{
closed = 1;
nodes = (
"952 469 LINE",
"952 592 LINE",
"276 592 LINE",
"276 469 LINE"
);
}
);
width = 1233;
}
);
note = ordmasculine;
unicode = 00BA;
},
{
glyphname = guillemotright;
lastChange = "2018-02-18 05:41:45 +0000";
layers = (
{
layerId = "3F42F969-BD6F-4F86-8089-1D5B5CB6E2D2";
paths = (
{
closed = 1;
nodes = (
"948 600 LINE",
"647 332 LINE",
"647 141 LINE",
"1116 559 LINE",
"1116 641 LINE",
"647 1059 LINE",
"647 868 LINE"
);
},
{
closed = 1;
nodes = (
"494 600 LINE",
"193 332 LINE",
"193 141 LINE",
"662 559 LINE",
"662 641 LINE",
"193 1059 LINE",
"193 868 LINE"
);
}
);
width = 1233;
}
);
note = guillemotright;
unicode = 00BB;
},
{
glyphname = questiondown;
lastChange = "2018-02-18 05:41:45 +0000";
layers = (
{
layerId = "3F42F969-BD6F-4F86-8089-1D5B5CB6E2D2";
paths = (
{
closed = 1;
nodes = (
"549 956 OFFCURVE",
"548 942 OFFCURVE",
"547 927 CURVE",
"547 924 OFFCURVE",
"547 923 OFFCURVE",
"547 922 CURVE SMOOTH",
"547 838 OFFCURVE",
"531 796 OFFCURVE",
"442 711 CURVE SMOOTH",
"354 625 LINE SMOOTH",
"229 502 OFFCURVE",
"193 427 OFFCURVE",
"193 326 CURVE SMOOTH",
"193 111 OFFCURVE",
"352 -27 OFFCURVE",
"600 -27 CURVE SMOOTH",
"739 -27 OFFCURVE",
"864 10 OFFCURVE",
"989 86 CURVE",
"989 274 LINE",
"858 183 OFFCURVE",
"739 137 OFFCURVE",
"635 137 CURVE SMOOTH",
"490 137 OFFCURVE",
"395 217 OFFCURVE",
"395 336 CURVE SMOOTH",
"395 401 OFFCURVE",
"421 453 OFFCURVE",
"504 532 CURVE SMOOTH",
"594 621 LINE SMOOTH",
"706 730 OFFCURVE",
"739 807 OFFCURVE",
"739 938 CURVE SMOOTH",
"739 1092 LINE",
"549 1092 LINE",
"549 969 LINE SMOOTH"
);
},
{
closed = 1;
nodes = (
"543 1493 LINE",
"543 1239 LINE",
"745 1239 LINE",
"745 1493 LINE"
);
}
);
width = 1233;
}
);
note = questiondown;
unicode = 00BF;
},
{
glyphname = Aring;
lastChange = "2018-02-18 05:41:45 +0000";
layers = (
{
layerId = "3F42F969-BD6F-4F86-8089-1D5B5CB6E2D2";
paths = (
{
closed = 1;
nodes = (
"768 1542 OFFCURVE",
"700 1475 OFFCURVE",
"616 1475 CURVE SMOOTH",
"532 1475 OFFCURVE",
"465 1542 OFFCURVE",
"465 1626 CURVE SMOOTH",
"465 1713 OFFCURVE",
"531 1778 OFFCURVE",
"616 1778 CURVE SMOOTH",
"700 1778 OFFCURVE",
"768 1710 OFFCURVE",
"768 1626 CURVE SMOOTH"
);
},
{
closed = 1;
nodes = (
"403 551 LINE",
"616 1311 LINE",
"829 551 LINE"
);
},
{
closed = 1;
nodes = (
"246 0 LINE",
"354 389 LINE",
"877 389 LINE",
"987 0 LINE",
"1196 0 LINE",
"768 1399 LINE",
"847 1447 OFFCURVE",
"891 1529 OFFCURVE",
"891 1626 CURVE SMOOTH",
"891 1778 OFFCURVE",
"768 1901 OFFCURVE",
"616 1901 CURVE SMOOTH",
"464 1901 OFFCURVE",
"342 1778 OFFCURVE",
"342 1626 CURVE SMOOTH",
"342 1529 OFFCURVE",
"388 1443 OFFCURVE",
"465 1399 CURVE",
"37 0 LINE"
);
}
);
width = 1233;
}
);
note = Aring;
unicode = 00C5;
},
{
glyphname = AE;
lastChange = "2018-02-18 05:41:45 +0000";
layers = (
{
layerId = "3F42F969-BD6F-4F86-8089-1D5B5CB6E2D2";
paths = (
{
closed = 1;
nodes = (
"0 0 LINE",
"184 0 LINE",
"285 383 LINE",
"637 383 LINE",
"637 0 LINE",
"1180 0 LINE",
"1180 170 LINE",
"823 170 LINE",
"823 711 LINE",
"1130 711 LINE",
"1130 881 LINE",
"823 881 LINE",
"823 1323 LINE",
"1161 1323 LINE",
"1161 1493 LINE",
"410 1493 LINE"
);
},
{
closed = 1;
nodes = (
"637 551 LINE",
"328 551 LINE",
"530 1323 LINE",
"637 1323 LINE"
);
}
);
width = 1233;
}
);
note = AE;
unicode = 00C6;
},
{
glyphname = Eth;
lastChange = "2018-02-18 05:41:45 +0000";
layers = (
{
layerId = "3F42F969-BD6F-4F86-8089-1D5B5CB6E2D2";
paths = (
{
closed = 1;
nodes = (
"133 858 LINE",
"8 858 LINE",
"8 709 LINE",
"133 709 LINE",
"133 0 LINE",
"436 0 LINE SMOOTH",
"891 0 OFFCURVE",
"1102 236 OFFCURVE",
"1102 745 CURVE SMOOTH",
"1102 1257 OFFCURVE",
"892 1493 OFFCURVE",
"436 1493 CURVE SMOOTH",
"133 1493 LINE"
);
},
{
closed = 1;
nodes = (
"340 709 LINE",
"604 709 LINE",
"604 858 LINE",
"340 858 LINE",
"340 1327 LINE",
"436 1327 LINE SMOOTH",
"777 1327 OFFCURVE",
"893 1186 OFFCURVE",
"893 745 CURVE SMOOTH",
"893 308 OFFCURVE",
"776 166 OFFCURVE",
"436 166 CURVE SMOOTH",
"340 166 LINE"
);
}
);
width = 1233;
}
);
note = Eth;
unicode = 00D0;
},
{
glyphname = multiply;
lastChange = "2018-02-18 05:41:45 +0000";
layers = (
{
layerId = "3F42F969-BD6F-4F86-8089-1D5B5CB6E2D2";
paths = (
{
closed = 1;
nodes = (
"616 524 LINE",
"965 174 LINE",
"1081 293 LINE",
"733 641 LINE",
"1083 991 LINE",
"967 1108 LINE",
"616 758 LINE",
"266 1108 LINE",
"150 991 LINE",
"500 641 LINE",
"150 293 LINE",
"268 174 LINE"
);
}
);
width = 1233;
}
);
note = multiply;
unicode = 00D7;
},
{
glyphname = Oslash;
lastChange = "2018-02-18 05:41:45 +0000";
layers = (
{
layerId = "3F42F969-BD6F-4F86-8089-1D5B5CB6E2D2";
paths = (
{
closed = 1;
nodes = (
"898 976 OFFCURVE",
"905 892 OFFCURVE",
"905 745 CURVE SMOOTH",
"905 526 OFFCURVE",
"883 369 OFFCURVE",
"838 276 CURVE SMOOTH",
"793 182 OFFCURVE",
"719 135 OFFCURVE",
"616 135 CURVE SMOOTH",
"504 135 OFFCURVE",
"411 199 OFFCURVE",
"371 303 CURVE",
"885 1036 LINE"
);
},
{
closed = 1;
nodes = (
"331 516 OFFCURVE",
"328 579 OFFCURVE",
"328 686 CURVE SMOOTH",
"328 938 OFFCURVE",
"350 1113 OFFCURVE",
"394 1210 CURVE SMOOTH",
"437 1307 OFFCURVE",
"511 1356 OFFCURVE",
"616 1356 CURVE SMOOTH",
"731 1356 OFFCURVE",
"809 1298 OFFCURVE",
"842 1190 CURVE",
"338 471 LINE"
);
},
{
closed = 1;
nodes = (
"1100 1559 LINE",
"961 1358 LINE",
"885 1465 OFFCURVE",
"769 1520 OFFCURVE",
"616 1520 CURVE SMOOTH",
"280 1520 OFFCURVE",
"117 1266 OFFCURVE",
"117 745 CURVE SMOOTH",
"117 534 OFFCURVE",
"143 349 OFFCURVE",
"186 252 CURVE",
"8 0 LINE",
"111 -70 LINE",
"254 133 LINE",
"335 25 OFFCURVE",
"455 -29 OFFCURVE",
"616 -29 CURVE SMOOTH",
"953 -29 OFFCURVE",
"1116 225 OFFCURVE",
"1116 745 CURVE SMOOTH",
"1116 962 OFFCURVE",
"1087 1139 OFFCURVE",
"1032 1247 CURVE",
"1200 1485 LINE"
);
}
);
width = 1233;
}
);
note = Oslash;
unicode = 00D8;
},
{
glyphname = Thorn;
lastChange = "2018-02-18 05:41:45 +0000";
layers = (
{
layerId = "3F42F969-BD6F-4F86-8089-1D5B5CB6E2D2";
paths = (
{
closed = 1;
nodes = (
"848 1057 OFFCURVE",
"952 970 OFFCURVE",
"952 795 CURVE SMOOTH",
"952 620 OFFCURVE",
"848 532 OFFCURVE",
"637 532 CURVE SMOOTH",
"403 532 LINE",
"403 1057 LINE",
"637 1057 LINE SMOOTH"
);
},
{
closed = 1;
nodes = (
"403 0 LINE",
"403 367 LINE",
"657 367 LINE SMOOTH",
"1004 367 OFFCURVE",
"1165 503 OFFCURVE",
"1165 795 CURVE SMOOTH",
"1165 1086 OFFCURVE",
"1004 1223 OFFCURVE",
"657 1223 CURVE SMOOTH",
"403 1223 LINE",
"403 1493 LINE",
"201 1493 LINE",
"201 0 LINE"
);
}
);
width = 1233;
}
);
note = Thorn;
unicode = 00DE;
},
{
glyphname = germandbls;
lastChange = "2018-02-18 05:41:45 +0000";
layers = (
{
layerId = "3F42F969-BD6F-4F86-8089-1D5B5CB6E2D2";
paths = (
{
closed = 1;
nodes = (
"375 0 LINE",
"375 1133 LINE SMOOTH",
"375 1318 OFFCURVE",
"449 1403 OFFCURVE",
"610 1403 CURVE SMOOTH",
"761 1403 OFFCURVE",
"843 1325 OFFCURVE",
"846 1182 CURVE",
"638 1135 OFFCURVE",
"528 1019 OFFCURVE",
"528 848 CURVE SMOOTH",
"528 743 OFFCURVE",
"588 655 OFFCURVE",
"711 580 CURVE SMOOTH",
"778 541 LINE SMOOTH",
"938 442 OFFCURVE",
"963 396 OFFCURVE",
"963 301 CURVE SMOOTH",
"963 193 OFFCURVE",
"871 123 OFFCURVE",
"727 123 CURVE SMOOTH",
"648 123 OFFCURVE",
"560 143 OFFCURVE",
"459 184 CURVE",
"459 20 LINE",
"547 -12 OFFCURVE",
"637 -29 OFFCURVE",
"729 -29 CURVE SMOOTH",
"990 -29 OFFCURVE",
"1149 98 OFFCURVE",
"1149 303 CURVE SMOOTH",
"1149 458 OFFCURVE",
"1088 552 OFFCURVE",
"887 676 CURVE SMOOTH",
"829 713 LINE SMOOTH",
"740 769 OFFCURVE",
"707 816 OFFCURVE",
"707 881 CURVE SMOOTH",
"707 1014 OFFCURVE",
"823 1100 OFFCURVE",
"1030 1119 CURVE",
"1027 1407 OFFCURVE",
"886 1556 OFFCURVE",
"614 1556 CURVE SMOOTH",
"326 1556 OFFCURVE",
"188 1421 OFFCURVE",
"188 1137 CURVE SMOOTH",
"188 0 LINE"
);
}
);
width = 1233;
}
);
note = germandbls;
unicode = 00DF;
},
{
glyphname = ae;
lastChange = "2018-02-18 05:41:45 +0000";
layers = (
{
layerId = "3F42F969-BD6F-4F86-8089-1D5B5CB6E2D2";
paths = (
{
closed = 1;
nodes = (
"543 319 OFFCURVE",
"531 236 OFFCURVE",
"506 192 CURVE SMOOTH",
"481 147 OFFCURVE",
"438 125 OFFCURVE",
"377 125 CURVE SMOOTH",
"266 125 OFFCURVE",
"205 192 OFFCURVE",
"205 311 CURVE SMOOTH",
"205 462 OFFCURVE",
"269 514 OFFCURVE",
"494 514 CURVE SMOOTH",
"543 514 LINE",
"543 442 LINE SMOOTH"
);
},
{
closed = 1;
nodes = (
"709 700 LINE SMOOTH",
"709 909 OFFCURVE",
"756 993 OFFCURVE",
"872 993 CURVE SMOOTH",
"988 993 OFFCURVE",
"1036 910 OFFCURVE",
"1036 709 CURVE SMOOTH",
"1036 657 LINE",
"709 657 LINE"
);
},
{
closed = 1;
nodes = (
"1200 1012 OFFCURVE",
"1113 1147 OFFCURVE",
"881 1147 CURVE SMOOTH",
"762 1147 OFFCURVE",
"671 1101 OFFCURVE",
"627 1020 CURVE",
"578 1105 OFFCURVE",
"496 1147 OFFCURVE",
"375 1147 CURVE SMOOTH",
"295 1147 OFFCURVE",
"209 1126 OFFCURVE",
"106 1079 CURVE",
"106 911 LINE",
"189 963 OFFCURVE",
"281 993 OFFCURVE",
"356 993 CURVE SMOOTH",
"481 993 OFFCURVE",
"549 905 OFFCURVE",
"549 745 CURVE SMOOTH",
"549 657 LINE",
"432 657 LINE SMOOTH",
"177 657 OFFCURVE",
"41 535 OFFCURVE",
"41 307 CURVE SMOOTH",
"41 88 OFFCURVE",
"152 -29 OFFCURVE",
"360 -29 CURVE SMOOTH",
"489 -29 OFFCURVE",
"577 24 OFFCURVE",
"629 131 CURVE",
"672 27 OFFCURVE",
"773 -29 OFFCURVE",
"920 -29 CURVE SMOOTH",
"1015 -29 OFFCURVE",
"1105 0 OFFCURVE",
"1178 55 CURVE",
"1178 227 LINE",
"1111 159 OFFCURVE",
"1025 125 OFFCURVE",
"920 125 CURVE SMOOTH",
"771 125 OFFCURVE",
"707 215 OFFCURVE",
"707 430 CURVE SMOOTH",
"707 475 OFFCURVE",
"708 494 OFFCURVE",
"709 514 CURVE",
"1200 514 LINE",
"1200 604 LINE SMOOTH"
);
}
);
width = 1233;
}
);
note = ae;
unicode = 00E6;
},
{
glyphname = eth;
lastChange = "2018-02-18 05:41:45 +0000";
layers = (
{
layerId = "3F42F969-BD6F-4F86-8089-1D5B5CB6E2D2";
paths = (
{
closed = 1;
nodes = (
"934 1505 LINE",
"645 1411 LINE",
"518 1556 LINE",
"299 1556 LINE",
"481 1356 LINE",
"244 1276 LINE",
"274 1178 LINE",
"553 1270 LINE",
"604 1211 OFFCURVE",
"652 1152 OFFCURVE",
"696 1092 CURVE",
"676 1095 OFFCURVE",
"657 1096 OFFCURVE",
"612 1096 CURVE SMOOTH",
"313 1096 OFFCURVE",
"137 888 OFFCURVE",
"137 535 CURVE SMOOTH",
"137 178 OFFCURVE",
"312 -29 OFFCURVE",
"616 -29 CURVE SMOOTH",
"921 -29 OFFCURVE",
"1096 178 OFFCURVE",
"1096 535 CURVE SMOOTH",
"1096 802 OFFCURVE",
"980 1044 OFFCURVE",
"717 1327 CURVE",
"967 1407 LINE"
);
},
{
closed = 1;
nodes = (
"860 825 OFFCURVE",
"901 682 OFFCURVE",
"901 535 CURVE SMOOTH",
"901 274 OFFCURVE",
"799 127 OFFCURVE",
"616 127 CURVE SMOOTH",
"435 127 OFFCURVE",
"332 274 OFFCURVE",
"332 535 CURVE SMOOTH",
"332 800 OFFCURVE",
"436 944 OFFCURVE",
"631 944 CURVE SMOOTH",
"691 944 OFFCURVE",
"746 935 OFFCURVE",
"793 918 CURVE"
);
}
);
width = 1233;
}
);
note = eth;
unicode = 00F0;
},
{
glyphname = divide;
lastChange = "2018-02-18 05:41:45 +0000";
layers = (
{
layerId = "3F42F969-BD6F-4F86-8089-1D5B5CB6E2D2";
paths = (
{
closed = 1;
nodes = (
"739 150 LINE",
"739 395 LINE",
"494 395 LINE",
"494 150 LINE"
);
},
{
closed = 1;
nodes = (
"739 889 LINE",
"739 1135 LINE",
"494 1135 LINE",
"494 889 LINE"
);
},
{
closed = 1;
nodes = (
"1145 557 LINE",
"1145 727 LINE",
"88 727 LINE",
"88 557 LINE"
);
}
);
width = 1233;
}
);
note = divide;
unicode = 00F7;
},
{
glyphname = oslash;
lastChange = "2018-02-18 05:41:45 +0000";
layers = (
{
layerId = "3F42F969-BD6F-4F86-8089-1D5B5CB6E2D2";
paths = (
{
closed = 1;
nodes = (
"893 703 OFFCURVE",
"901 628 OFFCURVE",
"901 559 CURVE SMOOTH",
"901 275 OFFCURVE",
"804 127 OFFCURVE",
"616 127 CURVE SMOOTH",
"529 127 OFFCURVE",
"462 158 OFFCURVE",
"414 221 CURVE",
"877 780 LINE"
);
},
{
closed = 1;
nodes = (
"337 435 OFFCURVE",
"328 511 OFFCURVE",
"328 575 CURVE SMOOTH",
"328 844 OFFCURVE",
"431 991 OFFCURVE",
"616 991 CURVE SMOOTH",
"705 991 OFFCURVE",
"770 961 OFFCURVE",
"817 897 CURVE",
"356 340 LINE"
);
},
{
closed = 1;
nodes = (
"139 -96 LINE",
"299 90 LINE",
"375 10 OFFCURVE",
"479 -29 OFFCURVE",
"616 -29 CURVE SMOOTH",
"928 -29 OFFCURVE",
"1096 176 OFFCURVE",
"1096 559 CURVE SMOOTH",
"1096 722 OFFCURVE",
"1066 852 OFFCURVE",
"1010 940 CURVE",
"1174 1135 LINE",
"1081 1212 LINE",
"934 1036 LINE",
"854 1111 OFFCURVE",
"749 1147 OFFCURVE",
"616 1147 CURVE SMOOTH",
"305 1147 OFFCURVE",
"137 940 OFFCURVE",
"137 559 CURVE SMOOTH",
"137 408 OFFCURVE",
"165 275 OFFCURVE",
"217 180 CURVE",
"47 -20 LINE"
);
}
);
width = 1233;
}
);
note = oslash;
unicode = 00F8;
},
{
glyphname = thorn;
lastChange = "2018-02-18 05:41:45 +0000";
layers = (
{
layerId = "3F42F969-BD6F-4F86-8089-1D5B5CB6E2D2";
paths = (
{
closed = 1;
nodes = (
"434 30 OFFCURVE",
"538 -29 OFFCURVE",
"674 -29 CURVE SMOOTH",
"943 -29 OFFCURVE",
"1108 191 OFFCURVE",
"1108 555 CURVE SMOOTH",
"1108 926 OFFCURVE",
"945 1147 OFFCURVE",
"674 1147 CURVE SMOOTH",
"541 1147 OFFCURVE",
"436 1088 OFFCURVE",
"375 977 CURVE",
"375 1567 LINE",
"190 1567 LINE",
"190 -426 LINE",
"375 -426 LINE",
"375 141 LINE"
);
},
{
closed = 1;
nodes = (
"915 274 OFFCURVE",
"824 127 OFFCURVE",
"647 127 CURVE SMOOTH",
"468 127 OFFCURVE",
"375 276 OFFCURVE",
"375 559 CURVE SMOOTH",
"375 843 OFFCURVE",
"468 991 OFFCURVE",
"647 991 CURVE SMOOTH",
"824 991 OFFCURVE",
"915 844 OFFCURVE",
"915 559 CURVE SMOOTH"
);
}
);
width = 1233;
}
);
note = thorn;
unicode = 00FE;
},
{
glyphname = dcroat;
lastChange = "2018-02-18 05:41:45 +0000";
layers = (
{
layerId = "3F42F969-BD6F-4F86-8089-1D5B5CB6E2D2";
paths = (
{
closed = 1;
nodes = (
"799 1088 OFFCURVE",
"694 1147 OFFCURVE",
"559 1147 CURVE SMOOTH",
"290 1147 OFFCURVE",
"123 927 OFFCURVE",
"123 563 CURVE SMOOTH",
"123 194 OFFCURVE",
"288 -29 OFFCURVE",
"559 -29 CURVE SMOOTH",
"692 -29 OFFCURVE",
"797 30 OFFCURVE",
"858 141 CURVE",
"858 0 LINE",
"1042 0 LINE",
"1042 1286 LINE",
"1233 1286 LINE",
"1233 1407 LINE",
"1042 1407 LINE",
"1042 1556 LINE",
"858 1556 LINE",
"858 1407 LINE",
"553 1407 LINE",
"553 1286 LINE",
"858 1286 LINE",
"858 977 LINE"
);
},
{
closed = 1;
nodes = (
"317 844 OFFCURVE",
"409 991 OFFCURVE",
"586 991 CURVE SMOOTH",
"763 991 OFFCURVE",
"858 843 OFFCURVE",
"858 559 CURVE SMOOTH",
"858 276 OFFCURVE",
"763 127 OFFCURVE",
"586 127 CURVE SMOOTH",
"409 127 OFFCURVE",
"317 274 OFFCURVE",
"317 559 CURVE SMOOTH"
);
}
);
width = 1233;
}
);
note = dcroat;
unicode = 0111;
},
{
glyphname = Hbar;
lastChange = "2018-02-18 05:41:45 +0000";
layers = (
{
layerId = "3F42F969-BD6F-4F86-8089-1D5B5CB6E2D2";
paths = (
{
closed = 1;
nodes = (
"3 1269 LINE",
"3 1105 LINE",
"137 1105 LINE",
"137 0 LINE",
"339 0 LINE",
"339 711 LINE",
"893 711 LINE",
"893 0 LINE",
"1095 0 LINE",
"1095 1105 LINE",
"1230 1105 LINE",
"1230 1269 LINE",
"1095 1269 LINE",
"1095 1493 LINE",
"893 1493 LINE",
"893 1269 LINE",
"339 1269 LINE",
"339 1493 LINE",
"137 1493 LINE",
"137 1269 LINE"
);
},
{
closed = 1;
nodes = (
"893 881 LINE",
"339 881 LINE",
"339 1105 LINE",
"893 1105 LINE"
);
}
);
width = 1233;
}
);
note = Hbar;
unicode = 0126;
},
{
glyphname = hbar;
lastChange = "2018-02-18 05:41:45 +0000";
layers = (
{
layerId = "3F42F969-BD6F-4F86-8089-1D5B5CB6E2D2";
paths = (
{
closed = 1;
nodes = (
"1051 998 OFFCURVE",
"939 1147 OFFCURVE",
"711 1147 CURVE SMOOTH",
"558 1147 OFFCURVE",
"444 1080 OFFCURVE",
"379 952 CURVE",
"379 1270 LINE",
"732 1270 LINE",
"732 1434 LINE",
"379 1434 LINE",
"379 1556 LINE",
"195 1556 LINE",
"195 1434 LINE",
"70 1434 LINE",
"70 1270 LINE",
"195 1270 LINE",
"195 0 LINE",
"379 0 LINE",
"379 633 LINE SMOOTH",
"379 861 OFFCURVE",
"475 987 OFFCURVE",
"647 987 CURVE SMOOTH",
"798 987 OFFCURVE",
"866 895 OFFCURVE",
"866 694 CURVE SMOOTH",
"866 0 LINE",
"1051 0 LINE",
"1051 694 LINE SMOOTH"
);
}
);
width = 1233;
}
);
note = hbar;
unicode = 0127;
},
{
glyphname = dotlessi;
lastChange = "2018-02-18 05:41:45 +0000";
layers = (
{
layerId = "3F42F969-BD6F-4F86-8089-1D5B5CB6E2D2";
paths = (
{
closed = 1;
nodes = (
"543 977 LINE",
"543 143 LINE",
"178 143 LINE",
"178 0 LINE",
"1092 0 LINE",
"1092 143 LINE",
"727 143 LINE",
"727 1120 LINE",
"256 1120 LINE",
"256 977 LINE"
);
}
);
width = 1233;
}
);
note = dotlessi;
unicode = 0131;
},
{
glyphname = IJ;
lastChange = "2018-02-18 05:41:45 +0000";
layers = (
{
layerId = "3F42F969-BD6F-4F86-8089-1D5B5CB6E2D2";
paths = (
{
closed = 1;
nodes = (
"745 3 OFFCURVE",
"829 -26 OFFCURVE",
"916 -26 CURVE SMOOTH",
"1140 -26 OFFCURVE",
"1228 114 OFFCURVE",
"1228 490 CURVE SMOOTH",
"1228 1496 LINE",
"831 1496 LINE",
"831 1326 LINE",
"1090 1326 LINE",
"1090 490 LINE SMOOTH",
"1090 355 OFFCURVE",
"1077 262 OFFCURVE",
"1052 212 CURVE SMOOTH",
"1026 163 OFFCURVE",
"981 138 OFFCURVE",
"916 138 CURVE SMOOTH",
"821 138 OFFCURVE",
"733 192 OFFCURVE",
"652 300 CURVE",
"652 64 LINE"
);
},
{
closed = 1;
nodes = (
"227 1323 LINE",
"227 170 LINE",
"-1 170 LINE",
"-1 0 LINE",
"604 0 LINE",
"604 170 LINE",
"376 170 LINE",
"376 1323 LINE",
"604 1323 LINE",
"604 1493 LINE",
"-1 1493 LINE",
"-1 1323 LINE"
);
}
);
width = 1233;
}
);
note = IJ;
unicode = 0132;
},
{
glyphname = ij;
lastChange = "2018-02-18 05:41:45 +0000";
layers = (
{
layerId = "3F42F969-BD6F-4F86-8089-1D5B5CB6E2D2";
paths = (
{
closed = 1;
nodes = (
"978 -198 OFFCURVE",
"918 -281 OFFCURVE",
"798 -281 CURVE SMOOTH",
"564 -281 LINE",
"564 -437 LINE",
"818 -437 LINE SMOOTH",
"1038 -437 OFFCURVE",
"1162 -291 OFFCURVE",
"1162 -31 CURVE SMOOTH",
"1162 1109 LINE",
"661 1109 LINE",
"661 966 LINE",
"978 966 LINE",
"978 -31 LINE SMOOTH"
);
},
{
closed = 1;
nodes = (
"1162 1312 LINE",
"1162 1545 LINE",
"978 1545 LINE",
"978 1312 LINE"
);
},
{
closed = 1;
nodes = (
"294 977 LINE",
"294 143 LINE",
"-5 143 LINE",
"-5 0 LINE",
"745 0 LINE",
"745 143 LINE",
"445 143 LINE",
"445 1120 LINE",
"59 1120 LINE",
"59 977 LINE"
);
},
{
closed = 1;
nodes = (
"445 1323 LINE",
"445 1556 LINE",
"294 1556 LINE",
"294 1323 LINE"
);
}
);
width = 1233;
}
);
note = ij;
unicode = 0133;
},
{
glyphname = kgreenlandic;
lastChange = "2018-02-18 05:41:45 +0000";
layers = (
{
layerId = "3F42F969-BD6F-4F86-8089-1D5B5CB6E2D2";
paths = (
{
closed = 1;
nodes = (
"426 0 LINE",
"426 449 LINE",
"563 578 LINE",
"977 0 LINE",
"1202 0 LINE",
"692 698 LINE",
"1133 1120 LINE",
"909 1120 LINE",
"426 655 LINE",
"426 1120 LINE",
"236 1120 LINE",
"236 0 LINE"
);
}
);
width = 1233;
}
);
note = kgreenlandic;
unicode = 0138;
},
{
glyphname = Lslash;
lastChange = "2018-02-18 05:41:45 +0000";
layers = (
{
layerId = "3F42F969-BD6F-4F86-8089-1D5B5CB6E2D2";
paths = (
{
closed = 1;
nodes = (
"-10 575 LINE",
"70 465 LINE",
"215 571 LINE",
"215 0 LINE",
"1139 0 LINE",
"1139 170 LINE",
"418 170 LINE",
"418 711 LINE",
"811 985 LINE",
"733 1096 LINE",
"418 877 LINE",
"418 1493 LINE",
"215 1493 LINE",
"215 733 LINE"
);
}
);
width = 1233;
}
);
note = Lslash;
unicode = 0141;
},
{
glyphname = lslash;
lastChange = "2018-02-18 05:41:45 +0000";
layers = (
{
layerId = "3F42F969-BD6F-4F86-8089-1D5B5CB6E2D2";
paths = (
{
closed = 1;
nodes = (
"1034 1098 LINE",
"954 1208 LINE",
"639 989 LINE",
"639 1567 LINE",
"160 1567 LINE",
"160 1423 LINE",
"455 1423 LINE",
"455 864 LINE",
"76 600 LINE",
"156 489 LINE",
"455 698 LINE",
"455 406 LINE SMOOTH",
"455 147 OFFCURVE",
"581 0 OFFCURVE",
"801 0 CURVE SMOOTH",
"1034 0 LINE",
"1034 156 LINE",
"819 156 LINE SMOOTH",
"700 156 OFFCURVE",
"639 241 OFFCURVE",
"639 406 CURVE SMOOTH",
"639 823 LINE"
);
}
);
width = 1233;
}
);
note = lslash;
unicode = 0142;
},
{
glyphname = Eng;
lastChange = "2018-02-18 05:41:45 +0000";
layers = (
{
layerId = "3F42F969-BD6F-4F86-8089-1D5B5CB6E2D2";
paths = (
{
closed = 1;
nodes = (
"1085 1348 OFFCURVE",
"962 1522 OFFCURVE",
"713 1522 CURVE SMOOTH",
"545 1522 OFFCURVE",
"421 1443 OFFCURVE",
"349 1295 CURVE",
"349 1493 LINE",
"147 1493 LINE",
"147 0 LINE",
"349 0 LINE",
"349 937 LINE SMOOTH",
"349 1208 OFFCURVE",
"454 1358 OFFCURVE",
"642 1358 CURVE SMOOTH",
"807 1358 OFFCURVE",
"882 1249 OFFCURVE",
"882 1009 CURVE SMOOTH",
"882 0 LINE SMOOTH",
"882 -195 OFFCURVE",
"823 -270 OFFCURVE",
"703 -270 CURVE SMOOTH",
"536 -270 LINE",
"536 -426 LINE",
"741 -426 LINE SMOOTH",
"961 -426 OFFCURVE",
"1085 -280 OFFCURVE",
"1085 -20 CURVE SMOOTH",
"1085 999 LINE SMOOTH"
);
}
);
width = 1233;
}
);
note = Eng;
unicode = 014A;
},
{
glyphname = eng;
lastChange = "2018-02-18 05:41:45 +0000";
layers = (
{
layerId = "3F42F969-BD6F-4F86-8089-1D5B5CB6E2D2";
paths = (
{
closed = 1;
nodes = (
"1051 998 OFFCURVE",
"939 1147 OFFCURVE",
"711 1147 CURVE SMOOTH",
"558 1147 OFFCURVE",
"444 1080 OFFCURVE",
"379 952 CURVE",
"379 1120 LINE",
"195 1120 LINE",
"195 0 LINE",
"379 0 LINE",
"379 633 LINE SMOOTH",
"379 861 OFFCURVE",
"475 987 OFFCURVE",
"647 987 CURVE SMOOTH",
"798 987 OFFCURVE",
"866 895 OFFCURVE",
"866 694 CURVE SMOOTH",
"866 -20 LINE SMOOTH",
"866 -188 OFFCURVE",
"807 -270 OFFCURVE",
"687 -270 CURVE SMOOTH",
"502 -270 LINE",
"502 -426 LINE",
"707 -426 LINE SMOOTH",
"927 -426 OFFCURVE",
"1051 -280 OFFCURVE",
"1051 -20 CURVE SMOOTH",
"1051 694 LINE SMOOTH"
);
}
);
width = 1233;
}
);
note = eng;
unicode = 014B;
},
{
glyphname = OE;
lastChange = "2018-02-18 05:41:45 +0000";
layers = (
{
layerId = "3F42F969-BD6F-4F86-8089-1D5B5CB6E2D2";
paths = (
{
closed = 1;
nodes = (
"848 711 LINE",
"1176 711 LINE",
"1176 881 LINE",
"848 881 LINE",
"848 1323 LINE",
"1206 1323 LINE",
"1206 1493 LINE",
"612 1493 LINE SMOOTH",
"217 1493 OFFCURVE",
"72 1301 OFFCURVE",
"72 745 CURVE SMOOTH",
"72 196 OFFCURVE",
"219 0 OFFCURVE",
"612 0 CURVE SMOOTH",
"1217 0 LINE",
"1217 170 LINE",
"848 170 LINE"
);
},
{
closed = 1;
nodes = (
"651 170 LINE",
"590 170 LINE SMOOTH",
"354 170 OFFCURVE",
"274 284 OFFCURVE",
"274 745 CURVE SMOOTH",
"274 1209 OFFCURVE",
"354 1323 OFFCURVE",
"590 1323 CURVE SMOOTH",
"651 1323 LINE"
);
}
);
width = 1233;
}
);
note = OE;
unicode = 0152;
},
{
glyphname = oe;
lastChange = "2018-02-18 05:41:45 +0000";
layers = (
{
layerId = "3F42F969-BD6F-4F86-8089-1D5B5CB6E2D2";
paths = (
{
closed = 1;
nodes = (
"719 700 LINE SMOOTH",
"719 911 OFFCURVE",
"767 995 OFFCURVE",
"883 995 CURVE SMOOTH",
"998 995 OFFCURVE",
"1049 908 OFFCURVE",
"1049 715 CURVE SMOOTH",
"1049 709 OFFCURVE",
"1049 700 OFFCURVE",
"1048 687 CURVE SMOOTH",
"1047 674 OFFCURVE",
"1047 664 OFFCURVE",
"1047 657 CURVE",
"719 657 LINE"
);
},
{
closed = 1;
nodes = (
"304 123 OFFCURVE",
"257 151 OFFCURVE",
"230 207 CURVE SMOOTH",
"203 262 OFFCURVE",
"190 380 OFFCURVE",
"190 559 CURVE SMOOTH",
"190 738 OFFCURVE",
"203 856 OFFCURVE",
"230 912 CURVE SMOOTH",
"257 967 OFFCURVE",
"304 995 OFFCURVE",
"373 995 CURVE SMOOTH",
"442 995 OFFCURVE",
"490 966 OFFCURVE",
"517 908 CURVE SMOOTH",
"544 850 OFFCURVE",
"557 724 OFFCURVE",
"557 530 CURVE SMOOTH",
"557 371 OFFCURVE",
"543 263 OFFCURVE",
"516 207 CURVE SMOOTH",
"489 151 OFFCURVE",
"441 123 OFFCURVE",
"373 123 CURVE SMOOTH"
);
},
{
closed = 1;
nodes = (
"1210 1012 OFFCURVE",
"1124 1147 OFFCURVE",
"891 1147 CURVE SMOOTH",
"775 1147 OFFCURVE",
"686 1103 OFFCURVE",
"637 1020 CURVE",
"574 1107 OFFCURVE",
"492 1147 OFFCURVE",
"373 1147 CURVE SMOOTH",
"121 1147 OFFCURVE",
"14 975 OFFCURVE",
"14 559 CURVE SMOOTH",
"14 143 OFFCURVE",
"121 -29 OFFCURVE",
"373 -29 CURVE SMOOTH",
"485 -29 OFFCURVE",
"568 13 OFFCURVE",
"637 104 CURVE",
"701 16 OFFCURVE",
"799 -29 OFFCURVE",
"930 -29 CURVE SMOOTH",
"1029 -29 OFFCURVE",
"1109 -2 OFFCURVE",
"1188 55 CURVE",
"1188 227 LINE",
"1125 159 OFFCURVE",
"1037 123 OFFCURVE",
"930 123 CURVE SMOOTH",
"781 123 OFFCURVE",
"719 213 OFFCURVE",
"719 430 CURVE SMOOTH",
"719 514 LINE",
"1210 514 LINE",
"1210 604 LINE SMOOTH"
);
}
);
width = 1233;
}
);
note = oe;
unicode = 0153;
},
{
glyphname = Tbar;
lastChange = "2018-02-18 05:41:45 +0000";
layers = (
{
layerId = "3F42F969-BD6F-4F86-8089-1D5B5CB6E2D2";
paths = (
{
closed = 1;
nodes = (
"516 1323 LINE",
"516 747 LINE",
"251 747 LINE",
"251 577 LINE",
"516 577 LINE",
"516 0 LINE",
"719 0 LINE",
"719 577 LINE",
"984 577 LINE",
"984 747 LINE",
"719 747 LINE",
"719 1323 LINE",
"1186 1323 LINE",
"1186 1493 LINE",
"47 1493 LINE",
"47 1323 LINE"
);
}
);
width = 1233;
}
);
note = Tbar;
unicode = 0166;
},
{
glyphname = tbar;
lastChange = "2018-02-18 05:41:45 +0000";
layers = (
{
layerId = "3F42F969-BD6F-4F86-8089-1D5B5CB6E2D2";
paths = (
{
closed = 1;
nodes = (
"430 1120 LINE",
"131 1120 LINE",
"131 977 LINE",
"430 977 LINE",
"430 744 LINE",
"201 744 LINE",
"201 602 LINE",
"430 602 LINE",
"430 369 LINE SMOOTH",
"430 98 OFFCURVE",
"531 0 OFFCURVE",
"807 0 CURVE SMOOTH",
"1032 0 LINE",
"1032 147 LINE",
"825 147 LINE SMOOTH",
"669 147 OFFCURVE",
"614 204 OFFCURVE",
"614 369 CURVE SMOOTH",
"614 602 LINE",
"843 602 LINE",
"843 744 LINE",
"614 744 LINE",
"614 977 LINE",
"1032 977 LINE",
"1032 1120 LINE",
"614 1120 LINE",
"614 1438 LINE",
"430 1438 LINE"
);
}
);
width = 1233;
}
);
note = tbar;
unicode = 0167;
},
{
glyphname = longs;
lastChange = "2018-02-18 05:41:45 +0000";
layers = (
{
layerId = "3F42F969-BD6F-4F86-8089-1D5B5CB6E2D2";
paths = (
{
closed = 1;
nodes = (
"678 1356 OFFCURVE",
"722 1403 OFFCURVE",
"854 1403 CURVE SMOOTH",
"1063 1403 LINE",
"1063 1556 LINE",
"842 1556 LINE SMOOTH",
"603 1556 OFFCURVE",
"494 1443 OFFCURVE",
"494 1198 CURVE SMOOTH",
"494 1120 LINE",
"195 1120 LINE",
"195 977 LINE",
"494 977 LINE",
"494 0 LINE",
"678 0 LINE",
"678 1219 LINE SMOOTH"
);
}
);
width = 1233;
}
);
note = longs;
unicode = 017F;
},
{
glyphname = uni0180;
lastChange = "2018-02-18 05:41:45 +0000";
layers = (
{
layerId = "3F42F969-BD6F-4F86-8089-1D5B5CB6E2D2";
paths = (
{
closed = 1;
nodes = (
"379 1270 LINE",
"732 1270 LINE",
"732 1434 LINE",
"379 1434 LINE",
"377 1434 LINE",
"377 1556 LINE",
"193 1556 LINE",
"193 1434 LINE",
"70 1434 LINE",
"70 1270 LINE",
"193 1270 LINE",
"193 0 LINE",
"377 0 LINE",
"377 141 LINE",
"438 30 OFFCURVE",
"543 -29 OFFCURVE",
"676 -29 CURVE SMOOTH",
"947 -29 OFFCURVE",
"1112 194 OFFCURVE",
"1112 563 CURVE SMOOTH",
"1112 927 OFFCURVE",
"947 1147 OFFCURVE",
"678 1147 CURVE SMOOTH",
"542 1147 OFFCURVE",
"436 1086 OFFCURVE",
"377 977 CURVE",
"377 1270 LINE"
);
},
{
closed = 1;
nodes = (
"805 163 OFFCURVE",
"738 127 OFFCURVE",
"649 127 CURVE SMOOTH",
"470 127 OFFCURVE",
"377 276 OFFCURVE",
"377 559 CURVE SMOOTH",
"377 843 OFFCURVE",
"470 991 OFFCURVE",
"649 991 CURVE SMOOTH",
"826 991 OFFCURVE",
"918 844 OFFCURVE",
"918 559 CURVE SMOOTH",
"918 416 OFFCURVE",
"895 309 OFFCURVE",
"850 236 CURVE SMOOTH"
);
}
);
width = 1233;
}
);
note = uni0180;
unicode = 0180;
},
{
glyphname = uni0181;
lastChange = "2018-02-18 05:41:45 +0000";
layers = (
{
layerId = "3F42F969-BD6F-4F86-8089-1D5B5CB6E2D2";
paths = (
{
closed = 1;
nodes = (
"884 713 OFFCURVE",
"986 625 OFFCURVE",
"986 430 CURVE SMOOTH",
"986 242 OFFCURVE",
"895 166 OFFCURVE",
"660 166 CURVE SMOOTH",
"540 166 LINE",
"540 713 LINE",
"660 713 LINE SMOOTH"
);
},
{
closed = 1;
nodes = (
"853 1327 OFFCURVE",
"933 1265 OFFCURVE",
"933 1114 CURVE SMOOTH",
"933 947 OFFCURVE",
"851 877 OFFCURVE",
"656 877 CURVE SMOOTH",
"540 877 LINE",
"540 1327 LINE",
"656 1327 LINE SMOOTH"
);
},
{
closed = 1;
nodes = (
"139 1493 OFFCURVE",
"20 1361 OFFCURVE",
"20 1149 CURVE SMOOTH",
"20 1079 LINE",
"176 1079 LINE",
"176 1128 LINE SMOOTH",
"176 1277 OFFCURVE",
"255 1327 OFFCURVE",
"338 1327 CURVE",
"338 0 LINE",
"660 0 LINE SMOOTH",
"1011 0 OFFCURVE",
"1189 139 OFFCURVE",
"1189 410 CURVE SMOOTH",
"1189 623 OFFCURVE",
"1071 770 OFFCURVE",
"875 799 CURVE",
"1050 826 OFFCURVE",
"1137 931 OFFCURVE",
"1137 1114 CURVE SMOOTH",
"1137 1355 OFFCURVE",
"965 1493 OFFCURVE",
"660 1493 CURVE SMOOTH",
"338 1493 LINE SMOOTH"
);
}
);
width = 1233;
}
);
note = uni0181;
unicode = 0181;
},
{
glyphname = uni0183;
lastChange = "2018-02-18 05:41:45 +0000";
layers = (
{
layerId = "3F42F969-BD6F-4F86-8089-1D5B5CB6E2D2";
paths = (
{
closed = 1;
nodes = (
"945 1372 LINE",
"945 1556 LINE",
"193 1556 LINE",
"193 0 LINE",
"377 0 LINE",
"377 141 LINE",
"438 30 OFFCURVE",
"543 -29 OFFCURVE",
"676 -29 CURVE SMOOTH",
"947 -29 OFFCURVE",
"1112 194 OFFCURVE",
"1112 563 CURVE SMOOTH",
"1112 927 OFFCURVE",
"947 1147 OFFCURVE",
"678 1147 CURVE SMOOTH",
"542 1147 OFFCURVE",
"436 1086 OFFCURVE",
"377 977 CURVE",
"377 1372 LINE"
);
},
{
closed = 1;
nodes = (
"805 163 OFFCURVE",
"738 127 OFFCURVE",
"649 127 CURVE SMOOTH",
"470 127 OFFCURVE",
"377 276 OFFCURVE",
"377 559 CURVE SMOOTH",
"377 843 OFFCURVE",
"470 991 OFFCURVE",
"649 991 CURVE SMOOTH",
"826 991 OFFCURVE",
"918 844 OFFCURVE",
"918 559 CURVE SMOOTH",
"918 416 OFFCURVE",
"895 309 OFFCURVE",
"850 236 CURVE SMOOTH"
);
}
);
width = 1233;
}
);
note = uni0183;
unicode = 0183;
},
{
glyphname = uni0184;
lastChange = "2018-02-18 05:41:45 +0000";
layers = (
{
layerId = "3F42F969-BD6F-4F86-8089-1D5B5CB6E2D2";
paths = (
{
closed = 1;
nodes = (
"880 713 OFFCURVE",
"982 625 OFFCURVE",
"982 430 CURVE SMOOTH",
"982 242 OFFCURVE",
"891 166 OFFCURVE",
"656 166 CURVE SMOOTH",
"417 166 LINE",
"417 713 LINE",
"656 713 LINE SMOOTH"
);
},
{
closed = 1;
nodes = (
"48 1176 LINE",
"214 948 LINE",
"214 0 LINE",
"656 0 LINE SMOOTH",
"1007 0 OFFCURVE",
"1185 139 OFFCURVE",
"1185 410 CURVE SMOOTH",
"1185 517 OFFCURVE",
"1167 604 OFFCURVE",
"1132 671 CURVE SMOOTH",
"1065 798 OFFCURVE",
"905 867 OFFCURVE",
"652 877 CURVE",
"417 877 LINE",
"417 1493 LINE"
);
}
);
width = 1233;
}
);
note = uni0184;
unicode = 0184;
},
{
glyphname = uni0185;
lastChange = "2018-02-18 05:41:45 +0000";
layers = (
{
layerId = "3F42F969-BD6F-4F86-8089-1D5B5CB6E2D2";
paths = (
{
closed = 1;
nodes = (
"865 163 OFFCURVE",
"798 127 OFFCURVE",
"710 127 CURVE SMOOTH",
"531 127 OFFCURVE",
"438 276 OFFCURVE",
"438 559 CURVE SMOOTH",
"438 701 OFFCURVE",
"461 809 OFFCURVE",
"506 882 CURVE SMOOTH",
"553 955 OFFCURVE",
"621 991 OFFCURVE",
"710 991 CURVE SMOOTH",
"886 991 OFFCURVE",
"978 844 OFFCURVE",
"978 559 CURVE SMOOTH",
"978 416 OFFCURVE",
"955 309 OFFCURVE",
"910 236 CURVE SMOOTH"
);
},
{
closed = 1;
nodes = (
"60 1176 LINE",
"254 948 LINE",
"254 0 LINE",
"438 0 LINE",
"438 141 LINE",
"499 30 OFFCURVE",
"603 -29 OFFCURVE",
"736 -29 CURVE SMOOTH",
"1008 -29 OFFCURVE",
"1172 194 OFFCURVE",
"1172 563 CURVE SMOOTH",
"1172 927 OFFCURVE",
"1007 1147 OFFCURVE",
"738 1147 CURVE SMOOTH",
"602 1147 OFFCURVE",
"497 1086 OFFCURVE",
"438 977 CURVE",
"438 1556 LINE"
);
}
);
width = 1233;
}
);
note = uni0185;
unicode = 0185;
},
{
glyphname = uni0186;
lastChange = "2018-02-18 05:41:45 +0000";
layers = (
{
layerId = "3F42F969-BD6F-4F86-8089-1D5B5CB6E2D2";
paths = (
{
closed = 1;
nodes = (
"238 1312 OFFCURVE",
"354 1356 OFFCURVE",
"469 1356 CURVE SMOOTH",
"732 1356 OFFCURVE",
"862 1154 OFFCURVE",
"862 745 CURVE SMOOTH",
"862 337 OFFCURVE",
"732 135 OFFCURVE",
"469 135 CURVE SMOOTH",
"352 135 OFFCURVE",
"236 179 OFFCURVE",
"139 260 CURVE",
"139 53 LINE",
"242 -2 OFFCURVE",
"348 -29 OFFCURVE",
"469 -29 CURVE SMOOTH",
"852 -29 OFFCURVE",
"1073 254 OFFCURVE",
"1073 745 CURVE SMOOTH",
"1073 1233 OFFCURVE",
"849 1520 OFFCURVE",
"469 1520 CURVE SMOOTH",
"348 1520 OFFCURVE",
"242 1493 OFFCURVE",
"139 1438 CURVE",
"139 1231 LINE"
);
}
);
width = 1233;
}
);
note = uni0186;
unicode = 0186;
},
{
glyphname = uni0187;
lastChange = "2018-02-18 05:41:45 +0000";
layers = (
{
layerId = "3F42F969-BD6F-4F86-8089-1D5B5CB6E2D2";
paths = (
{
closed = 1;
nodes = (
"897 179 OFFCURVE",
"781 135 OFFCURVE",
"664 135 CURVE SMOOTH",
"401 135 OFFCURVE",
"271 337 OFFCURVE",
"271 745 CURVE SMOOTH",
"271 1064 OFFCURVE",
"401 1288 OFFCURVE",
"664 1288 CURVE SMOOTH",
"779 1288 OFFCURVE",
"895 1244 OFFCURVE",
"994 1163 CURVE",
"994 1233 LINE SMOOTH",
"994 1413 OFFCURVE",
"1061 1483 OFFCURVE",
"1173 1483 CURVE",
"1173 1639 LINE",
"1153 1639 LINE SMOOTH",
"1043 1639 OFFCURVE",
"958 1604 OFFCURVE",
"898 1533 CURVE SMOOTH",
"870 1500 OFFCURVE",
"848 1466 OFFCURVE",
"833 1432 CURVE",
"780 1445 OFFCURVE",
"724 1452 OFFCURVE",
"664 1452 CURVE SMOOTH",
"284 1452 OFFCURVE",
"60 1142 OFFCURVE",
"60 745 CURVE SMOOTH",
"60 254 OFFCURVE",
"281 -29 OFFCURVE",
"664 -29 CURVE SMOOTH",
"785 -29 OFFCURVE",
"891 -2 OFFCURVE",
"994 53 CURVE",
"994 260 LINE"
);
}
);
width = 1233;
}
);
note = uni0187;
unicode = 0187;
},
{
glyphname = uni0188;
lastChange = "2018-02-18 05:41:45 +0000";
layers = (
{
layerId = "3F42F969-BD6F-4F86-8089-1D5B5CB6E2D2";
paths = (
{
closed = 1;
nodes = (
"873 165 OFFCURVE",
"775 127 OFFCURVE",
"647 127 CURVE SMOOTH",
"418 127 OFFCURVE",
"288 283 OFFCURVE",
"288 559 CURVE SMOOTH",
"288 836 OFFCURVE",
"416 991 OFFCURVE",
"647 991 CURVE SMOOTH",
"771 991 OFFCURVE",
"863 955 OFFCURVE",
"960 868 CURVE",
"960 1016 LINE SMOOTH",
"960 1184 OFFCURVE",
"1019 1266 OFFCURVE",
"1139 1266 CURVE",
"1139 1422 LINE",
"1119 1422 LINE SMOOTH",
"899 1422 OFFCURVE",
"809 1283 OFFCURVE",
"784 1131 CURVE",
"739 1142 OFFCURVE",
"694 1147 OFFCURVE",
"647 1147 CURVE SMOOTH",
"300 1147 OFFCURVE",
"94 927 OFFCURVE",
"94 559 CURVE SMOOTH",
"94 191 OFFCURVE",
"300 -29 OFFCURVE",
"647 -29 CURVE SMOOTH",
"756 -29 OFFCURVE",
"861 0 OFFCURVE",
"960 57 CURVE",
"960 248 LINE"
);
}
);
width = 1233;
}
);
note = uni0188;
unicode = 0188;
},
{
glyphname = uni018A;
lastChange = "2018-02-18 05:41:45 +0000";
layers = (
{
layerId = "3F42F969-BD6F-4F86-8089-1D5B5CB6E2D2";
paths = (
{
closed = 1;
nodes = (
"158 1493 OFFCURVE",
"8 1390 OFFCURVE",
"8 1149 CURVE SMOOTH",
"8 1079 LINE",
"164 1079 LINE",
"164 1128 LINE SMOOTH",
"164 1280 OFFCURVE",
"254 1327 OFFCURVE",
"326 1327 CURVE",
"326 0 LINE",
"559 0 LINE SMOOTH",
"1015 0 OFFCURVE",
"1225 236 OFFCURVE",
"1225 745 CURVE SMOOTH",
"1225 1257 OFFCURVE",
"1015 1493 OFFCURVE",
"559 1493 CURVE SMOOTH",
"326 1493 LINE SMOOTH"
);
},
{
closed = 1;
nodes = (
"529 1327 LINE",
"555 1327 LINE SMOOTH",
"896 1327 OFFCURVE",
"1012 1186 OFFCURVE",
"1012 745 CURVE SMOOTH",
"1012 308 OFFCURVE",
"895 166 OFFCURVE",
"555 166 CURVE SMOOTH",
"529 166 LINE"
);
}
);
width = 1233;
}
);
note = uni018A;
unicode = 018A;
},
{
glyphname = uni018B;
lastChange = "2018-02-18 05:41:45 +0000";
layers = (
{
layerId = "3F42F969-BD6F-4F86-8089-1D5B5CB6E2D2";
paths = (
{
closed = 1;
nodes = (
"660 166 LINE SMOOTH",
"425 166 OFFCURVE",
"334 242 OFFCURVE",
"334 430 CURVE SMOOTH",
"334 625 OFFCURVE",
"436 713 OFFCURVE",
"660 713 CURVE SMOOTH",
"899 713 LINE",
"899 166 LINE"
);
},
{
closed = 1;
nodes = (
"899 877 LINE",
"664 877 LINE",
"411 867 OFFCURVE",
"251 798 OFFCURVE",
"184 671 CURVE SMOOTH",
"149 604 OFFCURVE",
"131 517 OFFCURVE",
"131 410 CURVE SMOOTH",
"131 139 OFFCURVE",
"309 0 OFFCURVE",
"660 0 CURVE SMOOTH",
"1102 0 LINE",
"1102 1493 LINE",
"200 1493 LINE",
"200 1327 LINE",
"899 1327 LINE"
);
}
);
width = 1233;
}
);
note = uni018B;
unicode = 018B;
},
{
glyphname = uni018C;
lastChange = "2018-02-18 05:41:45 +0000";
layers = (
{
layerId = "3F42F969-BD6F-4F86-8089-1D5B5CB6E2D2";
paths = (
{
closed = 1;
nodes = (
"464 955 OFFCURVE",
"531 991 OFFCURVE",
"620 991 CURVE SMOOTH",
"799 991 OFFCURVE",
"892 843 OFFCURVE",
"892 559 CURVE SMOOTH",
"892 276 OFFCURVE",
"799 127 OFFCURVE",
"620 127 CURVE SMOOTH",
"443 127 OFFCURVE",
"351 274 OFFCURVE",
"351 559 CURVE SMOOTH",
"351 702 OFFCURVE",
"374 809 OFFCURVE",
"419 882 CURVE SMOOTH"
);
},
{
closed = 1;
nodes = (
"892 977 LINE",
"833 1086 OFFCURVE",
"727 1147 OFFCURVE",
"591 1147 CURVE SMOOTH",
"322 1147 OFFCURVE",
"157 927 OFFCURVE",
"157 563 CURVE SMOOTH",
"157 194 OFFCURVE",
"322 -29 OFFCURVE",
"593 -29 CURVE SMOOTH",
"726 -29 OFFCURVE",
"831 30 OFFCURVE",
"892 141 CURVE",
"892 0 LINE",
"1076 0 LINE",
"1076 1556 LINE",
"324 1556 LINE",
"324 1372 LINE",
"892 1372 LINE"
);
}
);
width = 1233;
}
);
note = uni018C;
unicode = 018C;
},
{
glyphname = uni018D;
lastChange = "2018-02-18 05:41:45 +0000";
layers = (
{
layerId = "3F42F969-BD6F-4F86-8089-1D5B5CB6E2D2";
paths = (
{
closed = 1;
nodes = (
"428 127 OFFCURVE",
"331 274 OFFCURVE",
"331 559 CURVE SMOOTH",
"331 843 OFFCURVE",
"428 991 OFFCURVE",
"616 991 CURVE SMOOTH",
"803 991 OFFCURVE",
"900 843 OFFCURVE",
"900 559 CURVE SMOOTH",
"900 274 OFFCURVE",
"803 127 OFFCURVE",
"616 127 CURVE SMOOTH"
);
},
{
closed = 1;
nodes = (
"927 73 OFFCURVE",
"951 97 OFFCURVE",
"972 122 CURVE SMOOTH",
"1054 223 OFFCURVE",
"1095 368 OFFCURVE",
"1095 559 CURVE SMOOTH",
"1095 942 OFFCURVE",
"927 1147 OFFCURVE",
"616 1147 CURVE SMOOTH",
"304 1147 OFFCURVE",
"136 942 OFFCURVE",
"136 559 CURVE SMOOTH",
"136 178 OFFCURVE",
"303 -25 OFFCURVE",
"616 -29 CURVE SMOOTH",
"686 -30 OFFCURVE",
"729 -34 OFFCURVE",
"745 -43 CURVE",
"800 -71 OFFCURVE",
"816 -96 OFFCURVE",
"816 -140 CURVE SMOOTH",
"816 -171 OFFCURVE",
"807 -194 OFFCURVE",
"789 -210 CURVE",
"750 -238 LINE SMOOTH",
"710 -267 OFFCURVE",
"666 -282 OFFCURVE",
"617 -283 CURVE SMOOTH",
"585 -284 LINE SMOOTH",
"578 -284 OFFCURVE",
"572 -284 OFFCURVE",
"566 -284 CURVE SMOOTH",
"469 -284 OFFCURVE",
"370 -262 OFFCURVE",
"282 -230 CURVE",
"282 -403 LINE",
"433 -439 LINE SMOOTH",
"466 -447 OFFCURVE",
"517 -451 OFFCURVE",
"585 -451 CURVE SMOOTH",
"848 -451 OFFCURVE",
"1019 -332 OFFCURVE",
"1019 -151 CURVE SMOOTH",
"1019 -90 OFFCURVE",
"998 -39 OFFCURVE",
"957 2 CURVE SMOOTH",
"930 29 OFFCURVE",
"911 45 OFFCURVE",
"898 51 CURVE"
);
}
);
width = 1233;
}
);
note = uni018D;
unicode = 018D;
},
{
glyphname = uni018E;
lastChange = "2018-02-18 05:41:45 +0000";
layers = (
{
layerId = "3F42F969-BD6F-4F86-8089-1D5B5CB6E2D2";
paths = (
{
closed = 1;
nodes = (
"216 1323 LINE",
"900 1323 LINE",
"900 881 LINE",
"246 881 LINE",
"246 711 LINE",
"900 711 LINE",
"900 170 LINE",
"197 170 LINE",
"197 0 LINE",
"1102 0 LINE",
"1102 1493 LINE",
"216 1493 LINE"
);
}
);
width = 1233;
}
);
note = uni018E;
unicode = 018E;
},
{
glyphname = uni018F;
lastChange = "2018-02-18 05:41:45 +0000";
layers = (
{
layerId = "3F42F969-BD6F-4F86-8089-1D5B5CB6E2D2";
paths = (
{
closed = 1;
nodes = (
"117 222 OFFCURVE",
"279 -29 OFFCURVE",
"616 -29 CURVE SMOOTH",
"953 -29 OFFCURVE",
"1116 225 OFFCURVE",
"1116 745 CURVE SMOOTH",
"1116 1266 OFFCURVE",
"953 1520 OFFCURVE",
"616 1520 CURVE SMOOTH",
"495 1520 OFFCURVE",
"389 1493 OFFCURVE",
"286 1438 CURVE",
"286 1231 LINE",
"385 1312 OFFCURVE",
"501 1356 OFFCURVE",
"616 1356 CURVE SMOOTH",
"816 1356 OFFCURVE",
"904 1157 OFFCURVE",
"904 836 CURVE SMOOTH",
"904 828 LINE",
"117 828 LINE",
"117 745 LINE SMOOTH"
);
},
{
closed = 1;
nodes = (
"891 305 OFFCURVE",
"817 135 OFFCURVE",
"620 135 CURVE SMOOTH",
"423 135 OFFCURVE",
"332 313 OFFCURVE",
"332 644 CURVE",
"903 644 LINE"
);
}
);
width = 1233;
}
);
note = uni018F;
unicode = 018F;
},
{
glyphname = uni0190;
lastChange = "2018-02-18 05:41:45 +0000";
layers = (
{
layerId = "3F42F969-BD6F-4F86-8089-1D5B5CB6E2D2";
paths = (
{
closed = 1;
nodes = (
"244 747 OFFCURVE",
"137 611 OFFCURVE",
"137 412 CURVE SMOOTH",
"137 137 OFFCURVE",
"332 -29 OFFCURVE",
"659 -29 CURVE SMOOTH",
"796 -29 OFFCURVE",
"942 -3 OFFCURVE",
"1079 45 CURVE",
"1079 246 LINE",
"943 175 OFFCURVE",
"812 141 OFFCURVE",
"681 141 CURVE SMOOTH",
"460 141 OFFCURVE",
"337 244 OFFCURVE",
"337 432 CURVE SMOOTH",
"337 605 OFFCURVE",
"464 715 OFFCURVE",
"667 715 CURVE SMOOTH",
"821 715 LINE",
"821 881 LINE",
"667 881 LINE SMOOTH",
"482 881 OFFCURVE",
"372 967 OFFCURVE",
"372 1112 CURVE SMOOTH",
"372 1265 OFFCURVE",
"472 1350 OFFCURVE",
"651 1350 CURVE SMOOTH",
"770 1350 OFFCURVE",
"895 1323 OFFCURVE",
"1034 1270 CURVE",
"1034 1456 LINE",
"873 1499 OFFCURVE",
"748 1520 OFFCURVE",
"651 1520 CURVE SMOOTH",
"360 1520 OFFCURVE",
"172 1359 OFFCURVE",
"172 1118 CURVE SMOOTH",
"172 954 OFFCURVE",
"265 844 OFFCURVE",
"440 799 CURVE"
);
}
);
width = 1233;
}
);
note = uni0190;
unicode = 0190;
},
{
glyphname = uni0191;
lastChange = "2018-02-18 05:41:45 +0000";
layers = (
{
layerId = "3F42F969-BD6F-4F86-8089-1D5B5CB6E2D2";
paths = (
{
closed = 1;
nodes = (
"380 -188 OFFCURVE",
"321 -270 OFFCURVE",
"201 -270 CURVE SMOOTH",
"63 -270 LINE",
"63 -426 LINE",
"239 -426 LINE SMOOTH",
"459 -426 OFFCURVE",
"583 -280 OFFCURVE",
"583 -20 CURVE SMOOTH",
"583 713 LINE",
"1107 713 LINE",
"1107 883 LINE",
"583 883 LINE",
"583 1323 LINE",
"1170 1323 LINE",
"1170 1493 LINE",
"380 1493 LINE",
"380 -20 LINE SMOOTH"
);
}
);
width = 1233;
}
);
note = uni0191;
unicode = 0191;
},
{
glyphname = florin;
lastChange = "2018-02-18 05:41:45 +0000";
layers = (
{
layerId = "3F42F969-BD6F-4F86-8089-1D5B5CB6E2D2";
paths = (
{
closed = 1;
nodes = (
"851 1556 LINE",
"842 1556 LINE SMOOTH",
"713 1556 OFFCURVE",
"627 1522 OFFCURVE",
"578 1470 CURVE SMOOTH",
"520 1409 OFFCURVE",
"491 1318 OFFCURVE",
"491 1198 CURVE SMOOTH",
"491 1120 LINE",
"195 1120 LINE",
"195 977 LINE",
"492 977 LINE",
"494 -20 LINE SMOOTH",
"494 -224 OFFCURVE",
"453 -270 OFFCURVE",
"313 -270 CURVE SMOOTH",
"264 -270 LINE",
"264 -426 LINE",
"334 -426 LINE SMOOTH",
"575 -426 OFFCURVE",
"678 -305 OFFCURVE",
"678 -20 CURVE SMOOTH",
"678 977 LINE",
"1063 977 LINE",
"1063 1120 LINE",
"678 1120 LINE",
"678 1219 LINE SMOOTH",
"678 1356 OFFCURVE",
"723 1403 OFFCURVE",
"852 1403 CURVE SMOOTH",
"854 1403 LINE",
"1063 1403 LINE",
"1063 1556 LINE",
"854 1556 LINE"
);
}
);
width = 1233;
}
);
note = florin;
unicode = 0192;
},
{
glyphname = uni0193;
lastChange = "2018-02-18 05:41:45 +0000";
layers = (
{
layerId = "3F42F969-BD6F-4F86-8089-1D5B5CB6E2D2";
paths = (
{
closed = 1;
nodes = (
"644 766 LINE",
"644 600 LINE",
"860 600 LINE",
"860 199 LINE",
"807 155 OFFCURVE",
"740 135 OFFCURVE",
"652 135 CURVE SMOOTH",
"388 135 OFFCURVE",
"262 330 OFFCURVE",
"262 745 CURVE SMOOTH",
"262 1153 OFFCURVE",
"395 1356 OFFCURVE",
"656 1356 CURVE SMOOTH",
"784 1356 OFFCURVE",
"895 1309 OFFCURVE",
"1002 1206 CURVE",
"1002 1233 LINE SMOOTH",
"1003 1412 OFFCURVE",
"1069 1483 OFFCURVE",
"1181 1483 CURVE",
"1181 1639 LINE",
"1162 1639 LINE SMOOTH",
"1051 1639 OFFCURVE",
"966 1604 OFFCURVE",
"906 1533 CURVE SMOOTH",
"892 1516 OFFCURVE",
"880 1499 OFFCURVE",
"870 1482 CURVE",
"859 1486 OFFCURVE",
"847 1490 OFFCURVE",
"836 1494 CURVE",
"779 1511 OFFCURVE",
"719 1520 OFFCURVE",
"656 1520 CURVE SMOOTH",
"277 1520 OFFCURVE",
"52 1233 OFFCURVE",
"52 745 CURVE SMOOTH",
"52 256 OFFCURVE",
"273 -29 OFFCURVE",
"652 -29 CURVE SMOOTH",
"809 -29 OFFCURVE",
"945 23 OFFCURVE",
"1054 123 CURVE",
"1054 766 LINE"
);
}
);
width = 1233;
}
);
note = uni0193;
unicode = 0193;
},
{
glyphname = uni0194;
lastChange = "2018-02-18 05:41:45 +0000";
layers = (
{
layerId = "3F42F969-BD6F-4F86-8089-1D5B5CB6E2D2";
paths = (
{
closed = 1;
nodes = (
"988 1353 LINE",
"616 798 LINE",
"244 1353 LINE",
"28 1353 LINE",
"492 657 LINE",
"296 334 OFFCURVE",
"198 51 OFFCURVE",
"198 -194 CURVE SMOOTH",
"198 -351 OFFCURVE",
"345 -430 OFFCURVE",
"638 -430 CURVE SMOOTH",
"915 -430 OFFCURVE",
"1054 -351 OFFCURVE",
"1054 -194 CURVE SMOOTH",
"1054 69 OFFCURVE",
"946 351 OFFCURVE",
"730 650 CURVE",
"1206 1353 LINE"
);
},
{
closed = 1;
nodes = (
"748 295 OFFCURVE",
"822 87 OFFCURVE",
"822 -130 CURVE SMOOTH",
"822 -222 OFFCURVE",
"754 -268 OFFCURVE",
"618 -268 CURVE SMOOTH",
"474 -268 OFFCURVE",
"402 -222 OFFCURVE",
"402 -130 CURVE SMOOTH",
"402 86 OFFCURVE",
"468 294 OFFCURVE",
"600 495 CURVE"
);
}
);
width = 1233;
}
);
note = uni0194;
unicode = 0194;
},
{
glyphname = uni0195;
lastChange = "2018-02-18 05:41:45 +0000";
layers = (
{
layerId = "3F42F969-BD6F-4F86-8089-1D5B5CB6E2D2";
paths = (
{
closed = 1;
nodes = (
"755 998 OFFCURVE",
"642 1147 OFFCURVE",
"485 1147 CURVE SMOOTH",
"372 1147 OFFCURVE",
"334 1131 OFFCURVE",
"231 952 CURVE",
"231 1556 LINE",
"65 1556 LINE",
"65 0 LINE",
"231 0 LINE",
"231 633 LINE SMOOTH",
"231 861 OFFCURVE",
"332 987 OFFCURVE",
"427 987 CURVE SMOOTH",
"515 987 OFFCURVE",
"588 895 OFFCURVE",
"588 694 CURVE SMOOTH",
"588 406 LINE SMOOTH",
"588 121 OFFCURVE",
"693 0 OFFCURVE",
"862 0 CURVE SMOOTH",
"1067 0 OFFCURVE",
"1168 149 OFFCURVE",
"1168 453 CURVE SMOOTH",
"1168 864 LINE",
"1001 864 LINE",
"1001 453 LINE SMOOTH",
"1001 349 OFFCURVE",
"985 275 OFFCURVE",
"954 231 CURVE SMOOTH",
"882 134 OFFCURVE",
"839 135 OFFCURVE",
"788 204 CURVE SMOOTH",
"765 237 OFFCURVE",
"754 304 OFFCURVE",
"754 406 CURVE",
"755 406 LINE",
"755 694 LINE SMOOTH"
);
}
);
width = 1233;
}
);
note = uni0195;
unicode = 0195;
},
{
glyphname = uni0196;
lastChange = "2018-02-18 05:41:45 +0000";
layers = (
{
layerId = "3F42F969-BD6F-4F86-8089-1D5B5CB6E2D2";
paths = (
{
closed = 1;
nodes = (
"514 142 OFFCURVE",
"638 0 OFFCURVE",
"865 0 CURVE SMOOTH",
"1082 0 LINE",
"1081 171 LINE",
"896 171 LINE SMOOTH",
"776 171 OFFCURVE",
"717 252 OFFCURVE",
"717 421 CURVE SMOOTH",
"717 1323 LINE",
"1030 1323 LINE",
"1030 1493 LINE",
"201 1493 LINE",
"201 1323 LINE",
"514 1323 LINE",
"514 406 LINE SMOOTH"
);
}
);
width = 1233;
}
);
note = uni0196;
unicode = 0196;
},
{
glyphname = uni0197;
lastChange = "2018-02-18 05:41:45 +0000";
layers = (
{
layerId = "3F42F969-BD6F-4F86-8089-1D5B5CB6E2D2";
paths = (
{
closed = 1;
nodes = (
"514 1323 LINE",
"514 747 LINE",
"251 747 LINE",
"251 577 LINE",
"514 577 LINE",
"514 170 LINE",
"201 170 LINE",
"201 0 LINE",
"1030 0 LINE",
"1030 170 LINE",
"717 170 LINE",
"717 577 LINE",
"719 577 LINE",
"984 577 LINE",
"984 747 LINE",
"719 747 LINE",
"717 747 LINE",
"717 1323 LINE",
"1030 1323 LINE",
"1030 1493 LINE",
"201 1493 LINE",
"201 1323 LINE"
);
}
);
width = 1233;
}
);
note = uni0197;
unicode = 0197;
},
{
glyphname = uni0198;
lastChange = "2018-02-18 05:41:45 +0000";
layers = (
{
layerId = "3F42F969-BD6F-4F86-8089-1D5B5CB6E2D2";
paths = (
{
closed = 1;
nodes = (
"313 1493 LINE",
"110 1493 LINE",
"110 0 LINE",
"313 0 LINE",
"313 584 LINE",
"467 748 LINE",
"954 0 LINE",
"1198 0 LINE",
"600 883 LINE",
"764 1055 LINE SMOOTH",
"837 1132 OFFCURVE",
"895 1175 OFFCURVE",
"939 1185 CURVE SMOOTH",
"952 1188 OFFCURVE",
"964 1189 OFFCURVE",
"975 1189 CURVE SMOOTH",
"1015 1189 OFFCURVE",
"1050 1172 OFFCURVE",
"1080 1138 CURVE SMOOTH",
"1113 1101 LINE",
"1219 1215 LINE",
"1172 1266 LINE SMOOTH",
"1111 1332 OFFCURVE",
"1038 1365 OFFCURVE",
"954 1365 CURVE SMOOTH",
"941 1365 OFFCURVE",
"927 1364 OFFCURVE",
"913 1362 CURVE SMOOTH",
"843 1354 OFFCURVE",
"754 1293 OFFCURVE",
"647 1180 CURVE SMOOTH",
"313 829 LINE"
);
}
);
width = 1233;
}
);
note = uni0198;
unicode = 0198;
},
{
glyphname = uni0199;
lastChange = "2018-02-18 05:41:45 +0000";
layers = (
{
layerId = "3F42F969-BD6F-4F86-8089-1D5B5CB6E2D2";
paths = (
{
closed = 1;
nodes = (
"426 0 LINE",
"426 449 LINE",
"563 578 LINE",
"977 0 LINE",
"1202 0 LINE",
"692 698 LINE",
"1133 1120 LINE",
"909 1120 LINE",
"426 655 LINE",
"426 1150 LINE",
"421 1150 LINE",
"421 1318 OFFCURVE",
"480 1400 OFFCURVE",
"600 1400 CURVE SMOOTH",
"785 1400 LINE",
"785 1556 LINE",
"580 1556 LINE SMOOTH",
"360 1556 OFFCURVE",
"236 1410 OFFCURVE",
"236 1150 CURVE SMOOTH",
"236 1002 LINE",
"236 0 LINE"
);
}
);
width = 1233;
}
);
note = uni0199;
unicode = 0199;
},
{
glyphname = uni019A;
lastChange = "2018-02-18 05:41:45 +0000";
layers = (
{
layerId = "3F42F969-BD6F-4F86-8089-1D5B5CB6E2D2";
paths = (
{
closed = 1;
nodes = (
"648 602 LINE",
"869 602 LINE",
"869 744 LINE",
"648 744 LINE",
"639 744 LINE",
"639 1567 LINE",
"160 1567 LINE",
"160 1423 LINE",
"455 1423 LINE",
"455 744 LINE",
"227 744 LINE",
"227 602 LINE",
"455 602 LINE",
"455 406 LINE SMOOTH",
"455 147 OFFCURVE",
"581 0 OFFCURVE",
"801 0 CURVE SMOOTH",
"1034 0 LINE",
"1034 156 LINE",
"819 156 LINE SMOOTH",
"700 156 OFFCURVE",
"639 241 OFFCURVE",
"639 406 CURVE SMOOTH",
"639 602 LINE"
);
}
);
width = 1233;
}
);
note = uni019A;
unicode = 019A;
},
{
glyphname = uni019B;
lastChange = "2018-02-18 05:41:45 +0000";
layers = (
{
layerId = "3F42F969-BD6F-4F86-8089-1D5B5CB6E2D2";
paths = (
{
closed = 1;
nodes = (
"260 1493 LINE",
"434 1113 LINE",
"49 847 LINE",
"129 736 LINE",
"491 987 LINE",
"525 913 LINE",
"100 0 LINE",
"291 0 LINE",
"621 704 LINE",
"942 0 LINE",
"1133 0 LINE",
"636 1087 LINE",
"1007 1345 LINE",
"927 1455 LINE",
"579 1213 LINE",
"451 1493 LINE"
);
}
);
width = 1233;
}
);
note = uni019B;
unicode = 019B;
},
{
glyphname = uni019C;
lastChange = "2018-02-18 05:41:45 +0000";
layers = (
{
layerId = "3F42F969-BD6F-4F86-8089-1D5B5CB6E2D2";
paths = (
{
closed = 1;
nodes = (
"605 19 OFFCURVE",
"672 -27 OFFCURVE",
"773 -27 CURVE SMOOTH",
"857 -27 OFFCURVE",
"924 16 OFFCURVE",
"968 96 CURVE",
"968 0 LINE",
"1135 0 LINE",
"1135 1493 LINE",
"968 1493 LINE",
"968 479 LINE SMOOTH",
"968 326 OFFCURVE",
"959 230 OFFCURVE",
"940 189 CURVE SMOOTH",
"921 148 OFFCURVE",
"887 127 OFFCURVE",
"838 127 CURVE SMOOTH",
"789 127 OFFCURVE",
"755 146 OFFCURVE",
"736 183 CURVE SMOOTH",
"717 220 OFFCURVE",
"707 319 OFFCURVE",
"707 479 CURVE SMOOTH",
"707 1493 LINE",
"539 1493 LINE",
"539 479 LINE SMOOTH",
"539 326 OFFCURVE",
"529 230 OFFCURVE",
"510 189 CURVE SMOOTH",
"490 148 OFFCURVE",
"453 127 OFFCURVE",
"400 127 CURVE SMOOTH",
"353 127 OFFCURVE",
"321 146 OFFCURVE",
"304 185 CURVE SMOOTH",
"286 223 OFFCURVE",
"277 321 OFFCURVE",
"277 479 CURVE SMOOTH",
"277 1493 LINE",
"109 1493 LINE",
"109 471 LINE SMOOTH",
"109 278 OFFCURVE",
"128 147 OFFCURVE",
"165 78 CURVE SMOOTH",
"202 8 OFFCURVE",
"265 -27 OFFCURVE",
"355 -27 CURVE SMOOTH",
"454 -27 OFFCURVE",
"523 18 OFFCURVE",
"568 114 CURVE"
);
}
);
width = 1233;
}
);
note = uni019C;
unicode = 019C;
},
{
glyphname = uni019D;
lastChange = "2018-02-18 05:41:45 +0000";
layers = (
{
layerId = "3F42F969-BD6F-4F86-8089-1D5B5CB6E2D2";
paths = (
{
closed = 1;
nodes = (
"190 -189 OFFCURVE",
"137 -270 OFFCURVE",
"29 -270 CURVE",
"29 -426 LINE",
"56 -426 LINE SMOOTH",
"253 -426 OFFCURVE",
"366 -280 OFFCURVE",
"366 -20 CURVE SMOOTH",
"366 1229 LINE",
"819 0 LINE",
"1049 0 LINE",
"1049 1493 LINE",
"874 1493 LINE",
"874 264 LINE",
"420 1493 LINE",
"190 1493 LINE",
"190 -20 LINE SMOOTH"
);
}
);
width = 1233;
}
);
note = uni019D;
unicode = 019D;
},
{
glyphname = uni019E;
lastChange = "2018-02-18 05:41:45 +0000";
layers = (
{
layerId = "3F42F969-BD6F-4F86-8089-1D5B5CB6E2D2";
paths = (
{
closed = 1;
nodes = (
"1051 998 OFFCURVE",
"939 1147 OFFCURVE",
"711 1147 CURVE SMOOTH",
"558 1147 OFFCURVE",
"444 1080 OFFCURVE",
"379 952 CURVE",
"379 1120 LINE",
"195 1120 LINE",
"195 0 LINE",
"379 0 LINE",
"379 633 LINE SMOOTH",
"379 861 OFFCURVE",
"475 987 OFFCURVE",
"647 987 CURVE SMOOTH",
"798 987 OFFCURVE",
"866 895 OFFCURVE",
"866 694 CURVE SMOOTH",
"866 -430 LINE",
"1051 -430 LINE",
"1051 694 LINE SMOOTH"
);
}
);
width = 1233;
}
);
note = uni019E;
unicode = 019E;
},
{
glyphname = uni019F;
lastChange = "2018-02-18 05:41:45 +0000";
layers = (
{
layerId = "3F42F969-BD6F-4F86-8089-1D5B5CB6E2D2";
paths = (
{
closed = 1;
nodes = (
"1116 1266 OFFCURVE",
"953 1520 OFFCURVE",
"616 1520 CURVE SMOOTH",
"280 1520 OFFCURVE",
"117 1266 OFFCURVE",
"117 745 CURVE SMOOTH",
"117 222 OFFCURVE",
"279 -29 OFFCURVE",
"616 -29 CURVE SMOOTH",
"953 -29 OFFCURVE",
"1116 225 OFFCURVE",
"1116 745 CURVE SMOOTH"
);
},
{
closed = 1;
nodes = (
"340 1180 OFFCURVE",
"412 1356 OFFCURVE",
"616 1356 CURVE SMOOTH",
"821 1356 OFFCURVE",
"893 1180 OFFCURVE",
"904 828 CURVE",
"329 828 LINE"
);
},
{
closed = 1;
nodes = (
"891 309 OFFCURVE",
"821 135 OFFCURVE",
"616 135 CURVE SMOOTH",
"412 135 OFFCURVE",
"342 311 OFFCURVE",
"330 644 CURVE",
"903 644 LINE"
);
}
);
width = 1233;
}
);
note = uni019F;
unicode = 019F;
},
{
glyphname = uni01A2;
lastChange = "2018-02-18 05:41:45 +0000";
layers = (
{
layerId = "3F42F969-BD6F-4F86-8089-1D5B5CB6E2D2";
paths = (
{
closed = 1;
nodes = (
"45 222 OFFCURVE",
"190 -29 OFFCURVE",
"494 -29 CURVE SMOOTH",
"646 -29 OFFCURVE",
"759 35 OFFCURVE",
"833 163 CURVE",
"833 1069 LINE",
"1013 1229 LINE",
"1013 0 LINE",
"1188 0 LINE",
"1188 1493 LINE",
"958 1493 LINE",
"811 1362 LINE",
"737 1467 OFFCURVE",
"631 1520 OFFCURVE",
"494 1520 CURVE SMOOTH",
"453 1520 OFFCURVE",
"414 1515 OFFCURVE",
"379 1506 CURVE SMOOTH",
"156 1447 OFFCURVE",
"45 1193 OFFCURVE",
"45 745 CURVE SMOOTH"
);
},
{
closed = 1;
nodes = (
"652 182 OFFCURVE",
"586 135 OFFCURVE",
"494 135 CURVE SMOOTH",
"402 135 OFFCURVE",
"336 182 OFFCURVE",
"296 276 CURVE SMOOTH",
"255 370 OFFCURVE",
"235 526 OFFCURVE",
"235 745 CURVE SMOOTH",
"235 964 OFFCURVE",
"255 1121 OFFCURVE",
"296 1215 CURVE SMOOTH",
"336 1309 OFFCURVE",
"402 1356 OFFCURVE",
"494 1356 CURVE SMOOTH",
"586 1356 OFFCURVE",
"652 1309 OFFCURVE",
"693 1215 CURVE",
"693 276 LINE"
);
}
);
width = 1233;
}
);
note = uni01A2;
unicode = 01A2;
},
{
glyphname = uni01A3;
lastChange = "2018-02-18 05:41:45 +0000";
layers = (
{
layerId = "3F42F969-BD6F-4F86-8089-1D5B5CB6E2D2";
paths = (
{
closed = 1;
nodes = (
"86 220 OFFCURVE",
"205 -29 OFFCURVE",
"517 -29 CURVE SMOOTH",
"658 -29 OFFCURVE",
"765 21 OFFCURVE",
"838 122 CURVE",
"838 642 LINE",
"1019 799 LINE",
"1019 -430 LINE",
"1195 -430 LINE",
"1195 1063 LINE",
"964 1063 LINE",
"838 953 LINE",
"838 996 LINE",
"764 1097 OFFCURVE",
"657 1147 OFFCURVE",
"517 1147 CURVE SMOOTH",
"450 1147 OFFCURVE",
"389 1135 OFFCURVE",
"336 1110 CURVE SMOOTH",
"169 1033 OFFCURVE",
"86 850 OFFCURVE",
"86 559 CURVE SMOOTH"
);
},
{
closed = 1;
nodes = (
"262 612 OFFCURVE",
"265 661 OFFCURVE",
"271 705 CURVE SMOOTH",
"298 896 OFFCURVE",
"380 991 OFFCURVE",
"517 991 CURVE SMOOTH",
"602 991 OFFCURVE",
"666 955 OFFCURVE",
"709 882 CURVE",
"709 236 LINE",
"666 163 OFFCURVE",
"602 127 OFFCURVE",
"517 127 CURVE SMOOTH",
"503 127 OFFCURVE",
"490 128 OFFCURVE",
"477 130 CURVE SMOOTH",
"334 153 OFFCURVE",
"262 296 OFFCURVE",
"262 559 CURVE SMOOTH"
);
}
);
width = 1233;
}
);
note = uni01A3;
unicode = 01A3;
},
{
glyphname = uni01A4;
lastChange = "2018-02-18 05:41:45 +0000";
layers = (
{
layerId = "3F42F969-BD6F-4F86-8089-1D5B5CB6E2D2";
paths = (
{
closed = 1;
nodes = (
"1177 1104 OFFCURVE",
"1171 1155 OFFCURVE",
"1158 1201 CURVE SMOOTH",
"1103 1396 OFFCURVE",
"940 1493 OFFCURVE",
"669 1493 CURVE SMOOTH",
"374 1493 LINE SMOOTH",
"206 1493 OFFCURVE",
"56 1390 OFFCURVE",
"56 1149 CURVE SMOOTH",
"56 1079 LINE",
"212 1079 LINE",
"212 1128 LINE SMOOTH",
"212 1280 OFFCURVE",
"302 1327 OFFCURVE",
"374 1327 CURVE",
"374 0 LINE",
"576 0 LINE",
"576 600 LINE",
"669 600 LINE SMOOTH",
"742 600 OFFCURVE",
"808 607 OFFCURVE",
"865 622 CURVE SMOOTH",
"1073 673 OFFCURVE",
"1177 815 OFFCURVE",
"1177 1047 CURVE SMOOTH"
);
},
{
closed = 1;
nodes = (
"576 1327 LINE",
"669 1327 LINE SMOOTH",
"857 1327 OFFCURVE",
"966 1224 OFFCURVE",
"966 1047 CURVE SMOOTH",
"966 1002 OFFCURVE",
"959 960 OFFCURVE",
"944 923 CURVE SMOOTH",
"901 818 OFFCURVE",
"810 766 OFFCURVE",
"669 766 CURVE SMOOTH",
"576 766 LINE"
);
}
);
width = 1233;
}
);
note = uni01A4;
unicode = 01A4;
},
{
glyphname = uni01A5;
lastChange = "2018-02-18 05:41:45 +0000";
layers = (
{
layerId = "3F42F969-BD6F-4F86-8089-1D5B5CB6E2D2";
paths = (
{
closed = 1;
nodes = (
"375 618 OFFCURVE",
"379 671 OFFCURVE",
"387 718 CURVE SMOOTH",
"418 900 OFFCURVE",
"504 991 OFFCURVE",
"647 991 CURVE SMOOTH",
"652 991 OFFCURVE",
"658 991 OFFCURVE",
"664 991 CURVE",
"831 982 OFFCURVE",
"915 838 OFFCURVE",
"915 559 CURVE SMOOTH",
"915 274 OFFCURVE",
"824 127 OFFCURVE",
"647 127 CURVE SMOOTH",
"624 127 OFFCURVE",
"603 129 OFFCURVE",
"584 134 CURVE SMOOTH",
"445 167 OFFCURVE",
"375 309 OFFCURVE",
"375 559 CURVE SMOOTH"
);
},
{
closed = 1;
nodes = (
"375 1036 OFFCURVE",
"375 1046 OFFCURVE",
"376 1055 CURVE",
"382 1202 OFFCURVE",
"441 1276 OFFCURVE",
"554 1276 CURVE SMOOTH",
"739 1276 LINE",
"739 1432 LINE",
"534 1432 LINE SMOOTH",
"482 1432 OFFCURVE",
"435 1424 OFFCURVE",
"393 1407 CURVE SMOOTH",
"258 1354 OFFCURVE",
"190 1227 OFFCURVE",
"190 1026 CURVE SMOOTH",
"190 -426 LINE",
"375 -426 LINE",
"375 141 LINE",
"434 30 OFFCURVE",
"538 -29 OFFCURVE",
"674 -29 CURVE SMOOTH",
"943 -29 OFFCURVE",
"1108 191 OFFCURVE",
"1108 555 CURVE SMOOTH",
"1108 926 OFFCURVE",
"945 1147 OFFCURVE",
"674 1147 CURVE SMOOTH",
"669 1147 OFFCURVE",
"665 1147 OFFCURVE",
"660 1147 CURVE SMOOTH",
"531 1143 OFFCURVE",
"436 1086 OFFCURVE",
"375 977 CURVE",
"375 1026 LINE SMOOTH"
);
}
);
width = 1233;
}
);
note = uni01A5;
unicode = 01A5;
},
{
glyphname = uni01A6;
lastChange = "2018-02-18 05:41:45 +0000";
layers = (
{
layerId = "3F42F969-BD6F-4F86-8089-1D5B5CB6E2D2";
paths = (
{
closed = 1;
nodes = (
"955 469 OFFCURVE",
"1067 600 OFFCURVE",
"1067 797 CURVE SMOOTH",
"1067 1077 OFFCURVE",
"887 1229 OFFCURVE",
"559 1229 CURVE SMOOTH",
"346 1229 LINE",
"346 1493 LINE",
"143 1493 LINE",
"143 0 LINE",
"346 0 LINE",
"346 367 LINE",
"539 367 LINE SMOOTH",
"671 367 OFFCURVE",
"735 328 OFFCURVE",
"838 113 CURVE SMOOTH",
"1016 -264 LINE",
"1233 -264 LINE",
"1030 144 LINE SMOOTH",
"919 367 OFFCURVE",
"864 414 OFFCURVE",
"760 441 CURVE"
);
},
{
closed = 1;
nodes = (
"751 1063 OFFCURVE",
"854 969 OFFCURVE",
"854 797 CURVE SMOOTH",
"854 618 OFFCURVE",
"760 533 OFFCURVE",
"567 533 CURVE SMOOTH",
"346 533 LINE",
"346 1063 LINE",
"559 1063 LINE SMOOTH"
);
}
);
width = 1233;
}
);
note = uni01A6;
unicode = 01A6;
},
{
glyphname = uni01A7;
lastChange = "2018-02-18 05:41:45 +0000";
layers = (
{
layerId = "3F42F969-BD6F-4F86-8089-1D5B5CB6E2D2";
paths = (
{
closed = 1;
nodes = (
"348 1316 OFFCURVE",
"471 1356 OFFCURVE",
"596 1356 CURVE SMOOTH",
"787 1356 OFFCURVE",
"905 1261 OFFCURVE",
"905 1110 CURVE SMOOTH",
"905 978 OFFCURVE",
"846 919 OFFCURVE",
"647 872 CURVE SMOOTH",
"541 848 LINE SMOOTH",
"261 783 OFFCURVE",
"139 649 OFFCURVE",
"139 408 CURVE SMOOTH",
"139 124 OFFCURVE",
"319 -29 OFFCURVE",
"655 -29 CURVE SMOOTH",
"795 -29 OFFCURVE",
"936 1 OFFCURVE",
"1079 61 CURVE",
"1079 276 LINE",
"926 179 OFFCURVE",
"794 135 OFFCURVE",
"655 135 CURVE SMOOTH",
"451 135 OFFCURVE",
"332 231 OFFCURVE",
"332 395 CURVE SMOOTH",
"332 544 OFFCURVE",
"401 614 OFFCURVE",
"594 657 CURVE SMOOTH",
"702 682 LINE SMOOTH",
"979 745 OFFCURVE",
"1098 866 OFFCURVE",
"1098 1079 CURVE SMOOTH",
"1098 1346 OFFCURVE",
"903 1520 OFFCURVE",
"606 1520 CURVE SMOOTH",
"491 1520 OFFCURVE",
"365 1494 OFFCURVE",
"225 1442 CURVE",
"225 1237 LINE"
);
}
);
width = 1233;
}
);
note = uni01A7;
unicode = 01A7;
},
{
glyphname = uni01A8;
lastChange = "2018-02-18 05:41:45 +0000";
layers = (
{
layerId = "3F42F969-BD6F-4F86-8089-1D5B5CB6E2D2";
paths = (
{
closed = 1;
nodes = (
"375 962 OFFCURVE",
"481 993 OFFCURVE",
"592 993 CURVE SMOOTH",
"759 993 OFFCURVE",
"840 940 OFFCURVE",
"840 829 CURVE SMOOTH",
"840 779 OFFCURVE",
"825 742 OFFCURVE",
"794 717 CURVE SMOOTH",
"763 692 OFFCURVE",
"687 668 OFFCURVE",
"565 645 CURVE SMOOTH",
"491 631 LINE SMOOTH",
"308 596 OFFCURVE",
"213 491 OFFCURVE",
"213 324 CURVE SMOOTH",
"213 103 OFFCURVE",
"379 -29 OFFCURVE",
"659 -29 CURVE SMOOTH",
"770 -29 OFFCURVE",
"889 -6 OFFCURVE",
"1030 41 CURVE",
"1030 231 LINE",
"893 160 OFFCURVE",
"767 125 OFFCURVE",
"655 125 CURVE SMOOTH",
"492 125 OFFCURVE",
"399 194 OFFCURVE",
"399 313 CURVE SMOOTH",
"399 398 OFFCURVE",
"481 457 OFFCURVE",
"644 490 CURVE",
"652 492 LINE",
"721 506 LINE SMOOTH",
"933 547 OFFCURVE",
"1026 642 OFFCURVE",
"1026 811 CURVE SMOOTH",
"1026 1026 OFFCURVE",
"875 1147 OFFCURVE",
"606 1147 CURVE SMOOTH",
"486 1147 OFFCURVE",
"377 1125 OFFCURVE",
"270 1081 CURVE",
"270 901 LINE"
);
}
);
width = 1233;
}
);
note = uni01A8;
unicode = 01A8;
},
{
glyphname = uni01AA;
lastChange = "2018-02-18 05:41:45 +0000";
layers = (
{
layerId = "3F42F969-BD6F-4F86-8089-1D5B5CB6E2D2";
paths = (
{
closed = 1;
nodes = (
"230 1284 OFFCURVE",
"235 1400 OFFCURVE",
"400 1400 CURVE SMOOTH",
"473 1400 OFFCURVE",
"521 1384 OFFCURVE",
"543 1352 CURVE",
"555 1337 OFFCURVE",
"563 1314 OFFCURVE",
"568 1284 CURVE",
"389 1284 LINE SMOOTH"
);
},
{
closed = 1;
nodes = (
"946 1285 LINE",
"755 1285 LINE",
"731 1433 OFFCURVE",
"662 1556 OFFCURVE",
"421 1556 CURVE SMOOTH",
"219 1556 OFFCURVE",
"118 1484 OFFCURVE",
"118 1340 CURVE SMOOTH",
"118 1200 OFFCURVE",
"208 1130 OFFCURVE",
"388 1130 CURVE SMOOTH",
"578 1130 LINE",
"578 -68 LINE SMOOTH",
"578 -308 OFFCURVE",
"681 -426 OFFCURVE",
"941 -426 CURVE SMOOTH",
"1115 -426 LINE",
"1115 -273 LINE",
"939 -273 LINE SMOOTH",
"806 -273 OFFCURVE",
"763 -226 OFFCURVE",
"763 -89 CURVE SMOOTH",
"765 1130 LINE",
"946 1130 LINE"
);
}
);
width = 1233;
}
);
note = uni01AA;
unicode = 01AA;
},
{
glyphname = uni01AB;
lastChange = "2018-02-18 05:41:45 +0000";
layers = (
{
layerId = "3F42F969-BD6F-4F86-8089-1D5B5CB6E2D2";
paths = (
{
closed = 1;
nodes = (
"430 1120 LINE",
"131 1120 LINE",
"131 977 LINE",
"430 977 LINE",
"430 369 LINE SMOOTH",
"430 98 OFFCURVE",
"531 0 OFFCURVE",
"807 0 CURVE SMOOTH",
"847 0 LINE",
"847 -20 LINE SMOOTH",
"847 -188 OFFCURVE",
"788 -270 OFFCURVE",
"668 -270 CURVE SMOOTH",
"483 -270 LINE",
"483 -426 LINE",
"688 -426 LINE SMOOTH",
"908 -426 OFFCURVE",
"1032 -280 OFFCURVE",
"1032 -20 CURVE SMOOTH",
"1032 0 LINE",
"1032 147 LINE",
"825 147 LINE SMOOTH",
"669 147 OFFCURVE",
"614 204 OFFCURVE",
"614 369 CURVE SMOOTH",
"614 977 LINE",
"1032 977 LINE",
"1032 1120 LINE",
"614 1120 LINE",
"614 1438 LINE",
"430 1438 LINE"
);
}
);
width = 1233;
}
);
note = uni01AB;
unicode = 01AB;
},
{
glyphname = uni01AC;
lastChange = "2018-02-18 05:41:45 +0000";
layers = (
{
layerId = "3F42F969-BD6F-4F86-8089-1D5B5CB6E2D2";
paths = (
{
closed = 1;
nodes = (
"516 0 LINE",
"719 0 LINE",
"719 1323 LINE",
"1186 1323 LINE",
"1186 1493 LINE",
"453 1493 LINE SMOOTH",
"168 1493 OFFCURVE",
"47 1390 OFFCURVE",
"47 1149 CURVE SMOOTH",
"47 1079 LINE",
"203 1079 LINE",
"203 1128 LINE SMOOTH",
"203 1280 OFFCURVE",
"278 1338 OFFCURVE",
"453 1327 CURVE SMOOTH",
"516 1323 LINE"
);
}
);
width = 1233;
}
);
note = uni01AC;
unicode = 01AC;
},
{
glyphname = uni01AD;
lastChange = "2018-02-18 05:41:45 +0000";
layers = (
{
layerId = "3F42F969-BD6F-4F86-8089-1D5B5CB6E2D2";
paths = (
{
closed = 1;
nodes = (
"614 1318 OFFCURVE",
"673 1400 OFFCURVE",
"793 1400 CURVE SMOOTH",
"978 1400 LINE",
"978 1556 LINE",
"773 1556 LINE SMOOTH",
"553 1556 OFFCURVE",
"429 1410 OFFCURVE",
"429 1150 CURVE SMOOTH",
"429 1120 LINE",
"131 1120 LINE",
"131 977 LINE",
"430 977 LINE",
"430 369 LINE SMOOTH",
"430 98 OFFCURVE",
"531 0 OFFCURVE",
"807 0 CURVE SMOOTH",
"1032 0 LINE",
"1032 147 LINE",
"825 147 LINE SMOOTH",
"669 147 OFFCURVE",
"614 204 OFFCURVE",
"614 369 CURVE SMOOTH",
"614 977 LINE",
"1032 977 LINE",
"1032 1120 LINE",
"614 1120 LINE",
"614 1150 LINE SMOOTH"
);
}
);
width = 1233;
}
);
note = uni01AD;
unicode = 01AD;
},
{
glyphname = uni01AE;
lastChange = "2018-02-18 05:41:45 +0000";
layers = (
{
layerId = "3F42F969-BD6F-4F86-8089-1D5B5CB6E2D2";
paths = (
{
closed = 1;
nodes = (
"516 1323 LINE",
"516 -20 LINE SMOOTH",
"516 -280 OFFCURVE",
"640 -426 OFFCURVE",
"860 -426 CURVE SMOOTH",
"1083 -426 LINE",
"1083 -270 LINE",
"898 -270 LINE SMOOTH",
"778 -270 OFFCURVE",
"719 -188 OFFCURVE",
"719 -20 CURVE SMOOTH",
"719 1323 LINE",
"1186 1323 LINE",
"1186 1493 LINE",
"47 1493 LINE",
"47 1323 LINE"
);
}
);
width = 1233;
}
);
note = uni01AE;
unicode = 01AE;
},
{
glyphname = uni01B1;
lastChange = "2018-02-18 05:41:45 +0000";
layers = (
{
layerId = "3F42F969-BD6F-4F86-8089-1D5B5CB6E2D2";
paths = (
{
closed = 1;
nodes = (
"696 1288 LINE",
"856 1187 OFFCURVE",
"950 957 OFFCURVE",
"950 661 CURVE SMOOTH",
"950 354 OFFCURVE",
"822 166 OFFCURVE",
"617 166 CURVE SMOOTH",
"412 166 OFFCURVE",
"283 354 OFFCURVE",
"283 661 CURVE SMOOTH",
"283 957 OFFCURVE",
"377 1187 OFFCURVE",
"537 1288 CURVE",
"537 1460 LINE",
"74 1460 LINE",
"74 1288 LINE",
"322 1288 LINE",
"158 1111 OFFCURVE",
"88 929 OFFCURVE",
"88 678 CURVE SMOOTH",
"88 262 OFFCURVE",
"296 0 OFFCURVE",
"619 0 CURVE SMOOTH",
"939 0 OFFCURVE",
"1147 263 OFFCURVE",
"1147 678 CURVE SMOOTH",
"1147 929 OFFCURVE",
"1078 1109 OFFCURVE",
"914 1288 CURVE",
"1159 1288 LINE",
"1159 1460 LINE",
"696 1460 LINE"
);
}
);
width = 1233;
}
);
note = uni01B1;
unicode = 01B1;
},
{
glyphname = uni01B2;
lastChange = "2018-02-18 05:41:45 +0000";
layers = (
{
layerId = "3F42F969-BD6F-4F86-8089-1D5B5CB6E2D2";
paths = (
{
closed = 1;
nodes = (
"865 0 OFFCURVE",
"1066 268 OFFCURVE",
"1066 683 CURVE SMOOTH",
"1066 934 OFFCURVE",
"997 1114 OFFCURVE",
"834 1293 CURVE",
"616 1293 LINE",
"776 1192 OFFCURVE",
"870 962 OFFCURVE",
"870 666 CURVE SMOOTH",
"870 359 OFFCURVE",
"741 171 OFFCURVE",
"536 171 CURVE SMOOTH",
"416 171 OFFCURVE",
"358 253 OFFCURVE",
"358 421 CURVE SMOOTH",
"358 1493 LINE",
"154 1493 LINE",
"154 406 LINE SMOOTH",
"154 142 OFFCURVE",
"279 0 OFFCURVE",
"506 0 CURVE SMOOTH"
);
}
);
width = 1233;
}
);
note = uni01B2;
unicode = 01B2;
},
{
glyphname = uni01B3;
lastChange = "2018-02-18 05:41:45 +0000";
layers = (
{
layerId = "3F42F969-BD6F-4F86-8089-1D5B5CB6E2D2";
paths = (
{
closed = 1;
nodes = (
"926 1237 OFFCURVE",
"968 1293 OFFCURVE",
"1002 1309 CURVE",
"1023 1320 OFFCURVE",
"1042 1325 OFFCURVE",
"1061 1325 CURVE SMOOTH",
"1088 1325 OFFCURVE",
"1112 1315 OFFCURVE",
"1135 1294 CURVE SMOOTH",
"1145 1285 LINE",
"1216 1419 LINE",
"1191 1438 LINE SMOOTH",
"1141 1476 OFFCURVE",
"1089 1495 OFFCURVE",
"1036 1495 CURVE SMOOTH",
"1006 1495 OFFCURVE",
"976 1489 OFFCURVE",
"945 1477 CURVE SMOOTH",
"872 1449 OFFCURVE",
"803 1368 OFFCURVE",
"737 1235 CURVE SMOOTH",
"538 834 LINE",
"210 1493 LINE",
"17 1493 LINE",
"446 670 LINE",
"446 0 LINE",
"629 0 LINE",
"629 670 LINE",
"875 1140 LINE SMOOTH"
);
}
);
width = 1233;
}
);
note = uni01B3;
unicode = 01B3;
},
{
glyphname = uni01B4;
lastChange = "2018-02-18 05:41:45 +0000";
layers = (
{
layerId = "3F42F969-BD6F-4F86-8089-1D5B5CB6E2D2";
paths = (
{
closed = 1;
nodes = (
"1046 955 OFFCURVE",
"1065 969 OFFCURVE",
"1094 969 CURVE SMOOTH",
"1109 969 OFFCURVE",
"1125 965 OFFCURVE",
"1144 958 CURVE SMOOTH",
"1172 948 LINE",
"1225 1095 LINE",
"1177 1112 LINE SMOOTH",
"1140 1125 OFFCURVE",
"1106 1132 OFFCURVE",
"1073 1132 CURVE SMOOTH",
"1039 1132 OFFCURVE",
"1008 1125 OFFCURVE",
"979 1110 CURVE SMOOTH",
"925 1083 OFFCURVE",
"881 1027 OFFCURVE",
"848 943 CURVE SMOOTH",
"569 244 LINE",
"219 1120 LINE",
"24 1120 LINE",
"477 18 LINE",
"444 -66 LINE SMOOTH",
"376 -245 OFFCURVE",
"334 -272 OFFCURVE",
"233 -272 CURVE SMOOTH",
"125 -272 LINE",
"125 -426 LINE",
"272 -426 LINE SMOOTH",
"437 -426 OFFCURVE",
"514 -375 OFFCURVE",
"622 -104 CURVE SMOOTH",
"1035 928 LINE SMOOTH"
);
}
);
width = 1233;
}
);
note = uni01B4;
unicode = 01B4;
},
{
glyphname = uni01B5;
lastChange = "2018-02-18 05:41:45 +0000";
layers = (
{
layerId = "3F42F969-BD6F-4F86-8089-1D5B5CB6E2D2";
paths = (
{
closed = 1;
nodes = (
"915 1323 LINE",
"541 747 LINE",
"251 747 LINE",
"251 577 LINE",
"431 577 LINE",
"156 154 LINE",
"156 0 LINE",
"1169 0 LINE",
"1169 170 LINE",
"367 170 LINE",
"639 577 LINE",
"719 577 LINE",
"984 577 LINE",
"984 747 LINE",
"752 747 LINE",
"1147 1339 LINE",
"1147 1493 LINE",
"178 1493 LINE",
"178 1323 LINE"
);
}
);
width = 1233;
}
);
note = uni01B5;
unicode = 01B5;
},
{
glyphname = uni01B6;
lastChange = "2018-02-18 05:41:45 +0000";
layers = (
{
layerId = "3F42F969-BD6F-4F86-8089-1D5B5CB6E2D2";
paths = (
{
closed = 1;
nodes = (
"841 975 LINE",
"554 616 LINE",
"156 616 LINE",
"156 452 LINE",
"423 452 LINE",
"198 170 LINE",
"198 0 LINE",
"1035 0 LINE",
"1035 150 LINE",
"392 150 LINE",
"634 452 LINE",
"723 452 LINE",
"1077 452 LINE",
"1077 616 LINE",
"765 616 LINE",
"1035 954 LINE",
"1035 1122 LINE",
"222 1122 LINE",
"222 975 LINE"
);
}
);
width = 1233;
}
);
note = uni01B6;
unicode = 01B6;
},
{
glyphname = uni01B7;
lastChange = "2018-02-18 05:41:45 +0000";
layers = (
{
layerId = "3F42F969-BD6F-4F86-8089-1D5B5CB6E2D2";
paths = (
{
closed = 1;
nodes = (
"26 140 OFFCURVE",
"233 -28 OFFCURVE",
"622 -28 CURVE SMOOTH",
"995 -28 OFFCURVE",
"1206 140 OFFCURVE",
"1206 435 CURVE SMOOTH",
"1206 527 OFFCURVE",
"1179 608 OFFCURVE",
"1126 677 CURVE SMOOTH",
"1011 821 OFFCURVE",
"847 884 OFFCURVE",
"708 884 CURVE",
"1084 1325 LINE",
"1084 1493 LINE",
"114 1493 LINE",
"114 1323 LINE",
"852 1323 LINE",
"482 882 LINE",
"482 716 LINE",
"656 716 LINE SMOOTH",
"875 716 OFFCURVE",
"1006 614 OFFCURVE",
"1006 435 CURVE SMOOTH",
"1006 244 OFFCURVE",
"869 142 OFFCURVE",
"617 142 CURVE SMOOTH",
"364 142 OFFCURVE",
"228 244 OFFCURVE",
"228 435 CURVE",
"26 435 LINE"
);
}
);
width = 1233;
}
);
note = uni01B7;
unicode = 01B7;
},
{
glyphname = uni01B8;
lastChange = "2018-02-18 05:41:45 +0000";
layers = (
{
layerId = "3F42F969-BD6F-4F86-8089-1D5B5CB6E2D2";
paths = (
{
closed = 1;
nodes = (
"1006 244 OFFCURVE",
"869 142 OFFCURVE",
"617 142 CURVE SMOOTH",
"364 142 OFFCURVE",
"228 244 OFFCURVE",
"228 435 CURVE SMOOTH",
"228 614 OFFCURVE",
"357 716 OFFCURVE",
"578 716 CURVE SMOOTH",
"752 716 LINE",
"752 882 LINE",
"382 1323 LINE",
"1118 1323 LINE",
"1118 1493 LINE",
"150 1493 LINE",
"150 1325 LINE",
"526 884 LINE",
"456 884 OFFCURVE",
"378 865 OFFCURVE",
"292 828 CURVE SMOOTH",
"160 771 OFFCURVE",
"26 619 OFFCURVE",
"26 435 CURVE SMOOTH",
"26 140 OFFCURVE",
"237 -28 OFFCURVE",
"610 -28 CURVE SMOOTH",
"999 -28 OFFCURVE",
"1206 140 OFFCURVE",
"1206 435 CURVE",
"1006 435 LINE"
);
}
);
width = 1233;
}
);
note = uni01B8;
unicode = 01B8;
},
{
glyphname = uni01B9;
lastChange = "2018-02-18 05:41:45 +0000";
layers = (
{
layerId = "3F42F969-BD6F-4F86-8089-1D5B5CB6E2D2";
paths = (
{
closed = 1;
nodes = (
"553 476 OFFCURVE",
"475 457 OFFCURVE",
"390 420 CURVE SMOOTH",
"259 364 OFFCURVE",
"125 211 OFFCURVE",
"125 27 CURVE SMOOTH",
"125 -268 OFFCURVE",
"336 -436 OFFCURVE",
"709 -436 CURVE SMOOTH",
"834 -436 OFFCURVE",
"967 -411 OFFCURVE",
"1108 -362 CURVE",
"1108 -167 LINE",
"996 -232 OFFCURVE",
"860 -266 OFFCURVE",
"715 -266 CURVE SMOOTH",
"462 -266 OFFCURVE",
"326 -164 OFFCURVE",
"326 27 CURVE SMOOTH",
"326 203 OFFCURVE",
"456 308 OFFCURVE",
"676 308 CURVE SMOOTH",
"850 308 LINE",
"850 474 LINE",
"420 973 LINE",
"1087 973 LINE",
"1087 1120 LINE",
"213 1120 LINE",
"213 952 LINE",
"624 476 LINE"
);
}
);
width = 1233;
}
);
note = uni01B9;
unicode = 01B9;
},
{
glyphname = uni01BA;
lastChange = "2018-02-18 05:41:45 +0000";
layers = (
{
layerId = "3F42F969-BD6F-4F86-8089-1D5B5CB6E2D2";
paths = (
{
closed = 1;
nodes = (
"480 -274 OFFCURVE",
"370 -228 OFFCURVE",
"370 -135 CURVE SMOOTH",
"370 -70 OFFCURVE",
"445 -30 OFFCURVE",
"596 -14 CURVE SMOOTH",
"905 19 OFFCURVE",
"1060 127 OFFCURVE",
"1060 311 CURVE SMOOTH",
"1060 464 OFFCURVE",
"938 540 OFFCURVE",
"693 540 CURVE",
"1047 952 LINE",
"1047 1120 LINE",
"173 1120 LINE",
"173 973 LINE",
"840 973 LINE",
"355 405 LINE",
"548 405 OFFCURVE",
"645 405 OFFCURVE",
"645 405 CURVE",
"802 405 OFFCURVE",
"880 364 OFFCURVE",
"880 281 CURVE SMOOTH",
"880 216 OFFCURVE",
"785 171 OFFCURVE",
"596 146 CURVE SMOOTH",
"325 111 OFFCURVE",
"190 14 OFFCURVE",
"190 -145 CURVE SMOOTH",
"190 -332 OFFCURVE",
"350 -426 OFFCURVE",
"670 -426 CURVE SMOOTH",
"799 -426 OFFCURVE",
"904 -410 OFFCURVE",
"1020 -367 CURVE",
"1020 -188 LINE",
"912 -247 OFFCURVE",
"811 -274 OFFCURVE",
"699 -274 CURVE SMOOTH"
);
}
);
width = 1233;
}
);
note = uni01BA;
unicode = 01BA;
},
{
glyphname = uni01BB;
lastChange = "2018-02-18 05:41:45 +0000";
layers = (
{
layerId = "3F42F969-BD6F-4F86-8089-1D5B5CB6E2D2";
paths = (
{
closed = 1;
nodes = (
"312 1306 OFFCURVE",
"446 1350 OFFCURVE",
"567 1350 CURVE SMOOTH",
"612 1350 OFFCURVE",
"654 1343 OFFCURVE",
"692 1328 CURVE SMOOTH",
"792 1288 OFFCURVE",
"842 1206 OFFCURVE",
"842 1083 CURVE SMOOTH",
"842 1042 OFFCURVE",
"835 1001 OFFCURVE",
"820 961 CURVE SMOOTH",
"800 905 OFFCURVE",
"755 834 OFFCURVE",
"685 747 CURVE",
"251 747 LINE",
"251 577 LINE",
"534 577 LINE",
"152 170 LINE",
"152 0 LINE",
"1059 0 LINE",
"1059 170 LINE",
"373 170 LINE",
"698 514 LINE",
"754 577 LINE",
"984 577 LINE",
"984 747 LINE",
"904 747 LINE",
"992 860 OFFCURVE",
"1049 970 OFFCURVE",
"1049 1098 CURVE SMOOTH",
"1049 1350 OFFCURVE",
"855 1520 OFFCURVE",
"563 1520 CURVE SMOOTH",
"436 1520 OFFCURVE",
"303 1487 OFFCURVE",
"164 1421 CURVE",
"164 1217 LINE"
);
}
);
width = 1233;
}
);
note = uni01BB;
unicode = 01BB;
},
{
glyphname = uni01BC;
lastChange = "2018-02-18 05:41:45 +0000";
layers = (
{
layerId = "3F42F969-BD6F-4F86-8089-1D5B5CB6E2D2";
paths = (
{
closed = 1;
nodes = (
"431 142 OFFCURVE",
"228 194 OFFCURVE",
"228 435 CURVE",
"26 435 LINE",
"26 358 OFFCURVE",
"41 289 OFFCURVE",
"70 228 CURVE SMOOTH",
"151 57 OFFCURVE",
"335 -28 OFFCURVE",
"622 -28 CURVE SMOOTH",
"995 -28 OFFCURVE",
"1206 140 OFFCURVE",
"1206 435 CURVE SMOOTH",
"1206 529 OFFCURVE",
"1179 610 OFFCURVE",
"1126 677 CURVE SMOOTH",
"1013 821 OFFCURVE",
"848 884 OFFCURVE",
"708 884 CURVE SMOOTH",
"418 884 LINE",
"418 1323 LINE",
"1139 1323 LINE",
"1139 1493 LINE",
"215 1493 LINE",
"215 716 LINE",
"656 716 LINE SMOOTH",
"875 716 OFFCURVE",
"1006 614 OFFCURVE",
"1006 435 CURVE SMOOTH",
"1006 401 OFFCURVE",
"1002 370 OFFCURVE",
"993 341 CURVE SMOOTH",
"952 208 OFFCURVE",
"827 142 OFFCURVE",
"616 142 CURVE SMOOTH"
);
}
);
width = 1233;
}
);
note = uni01BC;
unicode = 01BC;
},
{
glyphname = uni01BD;
lastChange = "2018-02-18 05:41:45 +0000";
layers = (
{
layerId = "3F42F969-BD6F-4F86-8089-1D5B5CB6E2D2";
paths = (
{
closed = 1;
nodes = (
"369 -266 OFFCURVE",
"238 -233 OFFCURVE",
"125 -167 CURVE",
"125 -362 LINE",
"266 -411 OFFCURVE",
"399 -436 OFFCURVE",
"524 -436 CURVE SMOOTH",
"897 -436 OFFCURVE",
"1108 -268 OFFCURVE",
"1108 27 CURVE SMOOTH",
"1108 119 OFFCURVE",
"1081 200 OFFCURVE",
"1027 269 CURVE SMOOTH",
"914 413 OFFCURVE",
"746 477 OFFCURVE",
"609 476 CURVE SMOOTH",
"441 475 LINE",
"441 936 LINE",
"1009 936 LINE",
"1009 1120 LINE",
"257 1120 LINE",
"257 308 LINE",
"557 308 LINE SMOOTH",
"777 308 OFFCURVE",
"907 206 OFFCURVE",
"907 27 CURVE SMOOTH",
"907 -8 OFFCURVE",
"902 -41 OFFCURVE",
"892 -71 CURVE SMOOTH",
"850 -201 OFFCURVE",
"725 -266 OFFCURVE",
"518 -266 CURVE SMOOTH"
);
}
);
width = 1233;
}
);
note = uni01BD;
unicode = 01BD;
},
{
glyphname = uni01BE;
lastChange = "2018-02-18 05:41:45 +0000";
layers = (
{
layerId = "3F42F969-BD6F-4F86-8089-1D5B5CB6E2D2";
paths = (
{
closed = 1;
nodes = (
"844 262 OFFCURVE",
"748 127 OFFCURVE",
"509 127 CURVE SMOOTH",
"403 127 OFFCURVE",
"298 156 OFFCURVE",
"194 213 CURVE",
"194 41 LINE",
"295 -6 OFFCURVE",
"403 -29 OFFCURVE",
"517 -29 CURVE SMOOTH",
"882 -29 OFFCURVE",
"1039 192 OFFCURVE",
"1039 439 CURVE SMOOTH",
"1039 674 OFFCURVE",
"869 834 OFFCURVE",
"649 873 CURVE",
"649 998 LINE",
"880 998 LINE",
"880 1162 LINE",
"649 1162 LINE",
"649 1438 LINE",
"447 1438 LINE",
"447 1162 LINE",
"218 1162 LINE",
"218 998 LINE",
"447 998 LINE",
"447 727 LINE",
"509 727 LINE SMOOTH",
"740 727 OFFCURVE",
"845 591 OFFCURVE",
"845 439 CURVE SMOOTH"
);
}
);
width = 1233;
}
);
note = uni01BE;
unicode = 01BE;
},
{
glyphname = uni01BF;
lastChange = "2018-02-18 05:41:45 +0000";
layers = (
{
layerId = "3F42F969-BD6F-4F86-8089-1D5B5CB6E2D2";
paths = (
{
closed = 1;
nodes = (
"855 189 OFFCURVE",
"1127 486 OFFCURVE",
"1127 769 CURVE SMOOTH",
"1127 973 OFFCURVE",
"1033 1147 OFFCURVE",
"788 1147 CURVE SMOOTH",
"508 1147 OFFCURVE",
"379 1038 OFFCURVE",
"310 950 CURVE",
"310 1120 LINE",
"125 1120 LINE",
"125 -426 LINE",
"310 -426 LINE",
"310 -122 LINE"
);
},
{
closed = 1;
nodes = (
"425 893 OFFCURVE",
"556 973 OFFCURVE",
"703 973 CURVE SMOOTH",
"863 973 OFFCURVE",
"936 886 OFFCURVE",
"936 709 CURVE SMOOTH",
"936 543 OFFCURVE",
"727 327 OFFCURVE",
"310 60 CURVE",
"310 734 LINE"
);
}
);
width = 1233;
}
);
note = uni01BF;
unicode = 01BF;
},
{
glyphname = uni01C0;
lastChange = "2018-02-18 05:41:45 +0000";
layers = (
{
layerId = "3F42F969-BD6F-4F86-8089-1D5B5CB6E2D2";
paths = (
{
closed = 1;
nodes = (
"718 0 LINE",
"718 1493 LINE",
"516 1493 LINE",
"516 0 LINE"
);
}
);
width = 1233;
}
);
note = uni01C0;
unicode = 01C0;
},
{
glyphname = uni01C2;
lastChange = "2018-02-18 05:41:45 +0000";
layers = (
{
layerId = "3F42F969-BD6F-4F86-8089-1D5B5CB6E2D2";
paths = (
{
closed = 1;
nodes = (
"164 1089 LINE",
"164 921 LINE",
"516 921 LINE",
"516 681 LINE",
"164 681 LINE",
"164 511 LINE",
"516 511 LINE",
"516 0 LINE",
"718 0 LINE",
"718 511 LINE",
"1068 511 LINE",
"1068 681 LINE",
"718 681 LINE",
"718 921 LINE",
"1068 921 LINE",
"1068 1089 LINE",
"718 1089 LINE",
"718 1493 LINE",
"516 1493 LINE",
"516 1089 LINE"
);
}
);
width = 1233;
}
);
note = uni01C2;
unicode = 01C2;
},
{
glyphname = uni01F6;
lastChange = "2018-02-18 05:41:45 +0000";
layers = (
{
layerId = "3F42F969-BD6F-4F86-8089-1D5B5CB6E2D2";
paths = (
{
closed = 1;
nodes = (
"846 135 OFFCURVE",
"823 148 OFFCURVE",
"808 174 CURVE SMOOTH",
"753 267 OFFCURVE",
"726 404 OFFCURVE",
"726 586 CURVE SMOOTH",
"726 1493 LINE",
"543 1493 LINE",
"543 881 LINE",
"244 881 LINE",
"244 1493 LINE",
"62 1493 LINE",
"62 0 LINE",
"244 0 LINE",
"244 711 LINE",
"543 711 LINE",
"543 561 LINE SMOOTH",
"543 325 OFFCURVE",
"588 156 OFFCURVE",
"677 54 CURVE SMOOTH",
"725 -1 OFFCURVE",
"792 -29 OFFCURVE",
"877 -29 CURVE SMOOTH",
"966 -29 OFFCURVE",
"1029 -3 OFFCURVE",
"1067 48 CURVE SMOOTH",
"1136 141 OFFCURVE",
"1171 312 OFFCURVE",
"1171 561 CURVE SMOOTH",
"1171 881 LINE",
"989 881 LINE",
"989 586 LINE SMOOTH",
"989 406 OFFCURVE",
"978 282 OFFCURVE",
"956 214 CURVE SMOOTH",
"939 161 OFFCURVE",
"913 135 OFFCURVE",
"877 135 CURVE SMOOTH"
);
}
);
width = 1233;
}
);
note = uni01F6;
unicode = 01F6;
},
{
glyphname = uni021C;
lastChange = "2018-02-18 05:41:45 +0000";
layers = (
{
layerId = "3F42F969-BD6F-4F86-8089-1D5B5CB6E2D2";
paths = (
{
closed = 1;
nodes = (
"909 753 OFFCURVE",
"982 830 OFFCURVE",
"1021 906 CURVE SMOOTH",
"1060 981 OFFCURVE",
"1073 1044 OFFCURVE",
"1073 1124 CURVE SMOOTH",
"1073 1209 OFFCURVE",
"1052 1282 OFFCURVE",
"1011 1343 CURVE SMOOTH",
"928 1464 OFFCURVE",
"790 1520 OFFCURVE",
"615 1520 CURVE SMOOTH",
"478 1520 OFFCURVE",
"329 1465 OFFCURVE",
"170 1356 CURVE",
"170 1166 LINE",
"332 1289 OFFCURVE",
"474 1350 OFFCURVE",
"597 1350 CURVE SMOOTH",
"622 1350 OFFCURVE",
"647 1348 OFFCURVE",
"671 1344 CURVE SMOOTH",
"719 1336 OFFCURVE",
"773 1313 OFFCURVE",
"810 1279 CURVE SMOOTH",
"846 1245 OFFCURVE",
"872 1185 OFFCURVE",
"872 1112 CURVE SMOOTH",
"872 1003 OFFCURVE",
"828 908 OFFCURVE",
"759 842 CURVE SMOOTH",
"690 776 OFFCURVE",
"625 736 OFFCURVE",
"545 701 CURVE SMOOTH",
"297 595 LINE",
"297 424 LINE",
"460 496 LINE SMOOTH",
"537 530 OFFCURVE",
"607 547 OFFCURVE",
"670 547 CURVE SMOOTH",
"819 547 OFFCURVE",
"907 449 OFFCURVE",
"907 314 CURVE SMOOTH",
"907 209 OFFCURVE",
"846 104 OFFCURVE",
"723 2 CURVE SMOOTH",
"599 -100 OFFCURVE",
"392 -197 OFFCURVE",
"125 -270 CURVE",
"125 -430 LINE",
"227 -407 OFFCURVE",
"324 -380 OFFCURVE",
"417 -348 CURVE SMOOTH",
"602 -284 OFFCURVE",
"781 -191 OFFCURVE",
"905 -84 CURVE SMOOTH",
"1028 23 OFFCURVE",
"1108 165 OFFCURVE",
"1108 314 CURVE SMOOTH",
"1108 509 OFFCURVE",
"1005 629 OFFCURVE",
"800 674 CURVE"
);
}
);
width = 1233;
}
);
note = uni021C;
unicode = 021C;
},
{
glyphname = uni021D;
lastChange = "2018-02-18 05:41:45 +0000";
layers = (
{
layerId = "3F42F969-BD6F-4F86-8089-1D5B5CB6E2D2";
paths = (
{
closed = 1;
nodes = (
"971 606 OFFCURVE",
"1027 686 OFFCURVE",
"1027 833 CURVE SMOOTH",
"1027 898 OFFCURVE",
"1008 954 OFFCURVE",
"969 1003 CURVE SMOOTH",
"892 1100 OFFCURVE",
"764 1147 OFFCURVE",
"615 1147 CURVE SMOOTH",
"526 1147 OFFCURVE",
"392 1103 OFFCURVE",
"215 1014 CURVE",
"215 860 LINE",
"411 980 OFFCURVE",
"507 1009 OFFCURVE",
"599 1009 CURVE SMOOTH",
"622 1009 OFFCURVE",
"645 1007 OFFCURVE",
"667 1004 CURVE SMOOTH",
"710 997 OFFCURVE",
"758 979 OFFCURVE",
"791 951 CURVE SMOOTH",
"823 923 OFFCURVE",
"846 875 OFFCURVE",
"846 816 CURVE SMOOTH",
"846 778 OFFCURVE",
"839 742 OFFCURVE",
"824 708 CURVE SMOOTH",
"794 640 OFFCURVE",
"753 598 OFFCURVE",
"695 558 CURVE SMOOTH",
"637 518 OFFCURVE",
"597 500 OFFCURVE",
"552 483 CURVE SMOOTH",
"329 398 LINE",
"329 259 LINE",
"545 345 LINE SMOOTH",
"587 362 OFFCURVE",
"628 370 OFFCURVE",
"667 370 CURVE SMOOTH",
"791 370 OFFCURVE",
"878 287 OFFCURVE",
"878 170 CURVE SMOOTH",
"878 136 OFFCURVE",
"871 104 OFFCURVE",
"858 74 CURVE SMOOTH",
"831 13 OFFCURVE",
"765 -55 OFFCURVE",
"660 -115 CURVE SMOOTH",
"555 -176 OFFCURVE",
"390 -242 OFFCURVE",
"174 -303 CURVE",
"174 -433 LINE",
"223 -423 OFFCURVE",
"273 -411 OFFCURVE",
"323 -398 CURVE SMOOTH",
"422 -372 OFFCURVE",
"550 -330 OFFCURVE",
"655 -283 CURVE SMOOTH",
"759 -236 OFFCURVE",
"867 -169 OFFCURVE",
"939 -97 CURVE SMOOTH",
"1011 -25 OFFCURVE",
"1059 70 OFFCURVE",
"1059 170 CURVE SMOOTH",
"1059 219 OFFCURVE",
"1036 280 OFFCURVE",
"995 340 CURVE SMOOTH",
"954 400 OFFCURVE",
"875 450 OFFCURVE",
"782 461 CURVE"
);
}
);
width = 1233;
}
);
note = uni021D;
unicode = 021D;
},
{
glyphname = uni0220;
lastChange = "2018-02-18 05:41:45 +0000";
layers = (
{
layerId = "3F42F969-BD6F-4F86-8089-1D5B5CB6E2D2";
paths = (
{
closed = 1;
nodes = (
"1085 1348 OFFCURVE",
"962 1522 OFFCURVE",
"713 1522 CURVE SMOOTH",
"545 1522 OFFCURVE",
"421 1443 OFFCURVE",
"349 1295 CURVE",
"349 1493 LINE",
"147 1493 LINE",
"147 0 LINE",
"349 0 LINE",
"349 937 LINE SMOOTH",
"349 1208 OFFCURVE",
"454 1358 OFFCURVE",
"642 1358 CURVE SMOOTH",
"807 1358 OFFCURVE",
"882 1249 OFFCURVE",
"882 1009 CURVE SMOOTH",
"882 -430 LINE",
"1085 -430 LINE",
"1085 999 LINE SMOOTH"
);
}
);
width = 1233;
}
);
note = uni0220;
unicode = 0220;
},
{
glyphname = uni0221;
lastChange = "2018-02-18 05:41:45 +0000";
layers = (
{
layerId = "3F42F969-BD6F-4F86-8089-1D5B5CB6E2D2";
paths = (
{
closed = 1;
nodes = (
"930 277 OFFCURVE",
"978 344 OFFCURVE",
"1021 344 CURVE SMOOTH",
"1064 344 OFFCURVE",
"1084 323 OFFCURVE",
"1081 282 CURVE",
"1079 179 OFFCURVE",
"1037 127 OFFCURVE",
"955 127 CURVE SMOOTH",
"911 126 OFFCURVE",
"885 132 OFFCURVE",
"877 144 CURVE"
);
},
{
closed = 1;
nodes = (
"604 1556 LINE",
"604 977 LINE",
"557 1088 OFFCURVE",
"473 1147 OFFCURVE",
"366 1147 CURVE SMOOTH",
"151 1147 OFFCURVE",
"18 927 OFFCURVE",
"18 563 CURVE SMOOTH",
"18 194 OFFCURVE",
"149 -26 OFFCURVE",
"366 -29 CURVE SMOOTH",
"499 -30 OFFCURVE",
"590 65 OFFCURVE",
"627 185 CURVE",
"643 148 LINE SMOOTH",
"668 89 OFFCURVE",
"692 55 OFFCURVE",
"713 46 CURVE",
"645 -148 LINE",
"764 -148 LINE",
"777 -110 OFFCURVE",
"794 -65 OFFCURVE",
"814 -12 CURVE",
"846 -23 OFFCURVE",
"886 -29 OFFCURVE",
"933 -29 CURVE SMOOTH",
"1100 -29 OFFCURVE",
"1183 75 OFFCURVE",
"1183 284 CURVE SMOOTH",
"1183 575 OFFCURVE",
"953 580 OFFCURVE",
"801 255 CURVE",
"792 278 OFFCURVE",
"788 329 OFFCURVE",
"788 406 CURVE SMOOTH",
"788 1556 LINE"
);
},
{
closed = 1;
nodes = (
"263 955 OFFCURVE",
"316 991 OFFCURVE",
"387 991 CURVE SMOOTH",
"528 991 OFFCURVE",
"604 843 OFFCURVE",
"604 559 CURVE SMOOTH",
"604 276 OFFCURVE",
"528 127 OFFCURVE",
"387 127 CURVE SMOOTH",
"246 127 OFFCURVE",
"173 274 OFFCURVE",
"173 559 CURVE SMOOTH",
"173 702 OFFCURVE",
"191 809 OFFCURVE",
"227 882 CURVE SMOOTH"
);
}
);
width = 1233;
}
);
note = uni0221;
unicode = 0221;
},
{
glyphname = uni0224;
lastChange = "2018-02-18 05:41:45 +0000";
layers = (
{
layerId = "3F42F969-BD6F-4F86-8089-1D5B5CB6E2D2";
paths = (
{
closed = 1;
nodes = (
"915 1323 LINE",
"156 154 LINE",
"156 0 LINE",
"985 0 LINE",
"985 -20 LINE SMOOTH",
"985 -188 OFFCURVE",
"926 -270 OFFCURVE",
"806 -270 CURVE SMOOTH",
"621 -270 LINE",
"621 -426 LINE",
"826 -426 LINE SMOOTH",
"1046 -426 OFFCURVE",
"1170 -280 OFFCURVE",
"1170 -20 CURVE SMOOTH",
"1170 128 LINE",
"1169 128 LINE",
"1169 170 LINE",
"367 170 LINE",
"1147 1339 LINE",
"1147 1493 LINE",
"178 1493 LINE",
"178 1323 LINE"
);
}
);
width = 1233;
}
);
note = uni0224;
unicode = 0224;
},
{
glyphname = uni0225;
lastChange = "2018-02-18 05:41:45 +0000";
layers = (
{
layerId = "3F42F969-BD6F-4F86-8089-1D5B5CB6E2D2";
paths = (
{
closed = 1;
nodes = (
"846 975 LINE",
"203 170 LINE",
"203 0 LINE",
"847 0 LINE",
"847 -20 LINE SMOOTH",
"847 -188 OFFCURVE",
"788 -270 OFFCURVE",
"668 -270 CURVE SMOOTH",
"483 -270 LINE",
"483 -426 LINE",
"688 -426 LINE SMOOTH",
"908 -426 OFFCURVE",
"1032 -280 OFFCURVE",
"1032 -20 CURVE SMOOTH",
"1032 0 LINE",
"1040 0 LINE",
"1040 150 LINE",
"397 150 LINE",
"1040 954 LINE",
"1040 1122 LINE",
"227 1122 LINE",
"227 975 LINE"
);
}
);
width = 1233;
}
);
note = uni0225;
unicode = 0225;
},
{
glyphname = uni0234;
lastChange = "2018-02-18 05:41:45 +0000";
layers = (
{
layerId = "3F42F969-BD6F-4F86-8089-1D5B5CB6E2D2";
paths = (
{
closed = 1;
nodes = (
"781 277 OFFCURVE",
"829 344 OFFCURVE",
"872 344 CURVE SMOOTH",
"915 344 OFFCURVE",
"935 323 OFFCURVE",
"932 282 CURVE",
"930 179 OFFCURVE",
"888 127 OFFCURVE",
"806 127 CURVE SMOOTH",
"762 126 OFFCURVE",
"736 132 OFFCURVE",
"728 144 CURVE"
);
},
{
closed = 1;
nodes = (
"697 -23 OFFCURVE",
"737 -29 OFFCURVE",
"784 -29 CURVE SMOOTH",
"951 -29 OFFCURVE",
"1034 75 OFFCURVE",
"1034 284 CURVE SMOOTH",
"1034 575 OFFCURVE",
"804 580 OFFCURVE",
"652 255 CURVE",
"643 278 OFFCURVE",
"639 329 OFFCURVE",
"639 406 CURVE SMOOTH",
"639 1567 LINE",
"160 1567 LINE",
"160 1423 LINE",
"455 1423 LINE",
"455 406 LINE SMOOTH",
"455 283 OFFCURVE",
"468 197 OFFCURVE",
"494 148 CURVE SMOOTH",
"528 83 OFFCURVE",
"551 49 OFFCURVE",
"564 46 CURVE",
"496 -148 LINE",
"615 -148 LINE",
"628 -110 OFFCURVE",
"645 -65 OFFCURVE",
"664 -12 CURVE"
);
}
);
width = 1233;
}
);
note = uni0234;
unicode = 0234;
},
{
glyphname = uni0235;
lastChange = "2018-02-18 05:41:45 +0000";
layers = (
{
layerId = "3F42F969-BD6F-4F86-8089-1D5B5CB6E2D2";
paths = (
{
closed = 1;
nodes = (
"873 277 OFFCURVE",
"921 344 OFFCURVE",
"964 344 CURVE SMOOTH",
"1007 344 OFFCURVE",
"1027 323 OFFCURVE",
"1024 282 CURVE",
"1022 179 OFFCURVE",
"980 127 OFFCURVE",
"898 127 CURVE SMOOTH",
"854 126 OFFCURVE",
"828 132 OFFCURVE",
"820 144 CURVE"
);
},
{
closed = 1;
nodes = (
"715 844 OFFCURVE",
"696 975 OFFCURVE",
"659 1042 CURVE SMOOTH",
"621 1112 OFFCURVE",
"558 1147 OFFCURVE",
"469 1147 CURVE SMOOTH",
"385 1147 OFFCURVE",
"318 1104 OFFCURVE",
"274 1024 CURVE",
"274 1120 LINE",
"107 1120 LINE",
"107 0 LINE",
"274 0 LINE",
"274 641 LINE SMOOTH",
"274 794 OFFCURVE",
"284 891 OFFCURVE",
"303 932 CURVE SMOOTH",
"322 973 OFFCURVE",
"355 993 OFFCURVE",
"404 993 CURVE SMOOTH",
"464 993 OFFCURVE",
"503 974 OFFCURVE",
"521 936 CURVE SMOOTH",
"538 897 OFFCURVE",
"547 799 OFFCURVE",
"547 641 CURVE SMOOTH",
"547 406 LINE SMOOTH",
"547 283 OFFCURVE",
"560 197 OFFCURVE",
"586 148 CURVE SMOOTH",
"620 83 OFFCURVE",
"643 49 OFFCURVE",
"656 46 CURVE",
"588 -148 LINE",
"707 -148 LINE",
"720 -110 OFFCURVE",
"737 -65 OFFCURVE",
"756 -12 CURVE",
"789 -23 OFFCURVE",
"829 -29 OFFCURVE",
"876 -29 CURVE SMOOTH",
"1043 -28 OFFCURVE",
"1126 76 OFFCURVE",
"1126 284 CURVE SMOOTH",
"1126 288 OFFCURVE",
"1126 292 OFFCURVE",
"1126 296 CURVE",
"1119 571 OFFCURVE",
"900 582 OFFCURVE",
"737 246 CURVE",
"722 277 OFFCURVE",
"715 330 OFFCURVE",
"715 406 CURVE SMOOTH",
"715 649 LINE SMOOTH"
);
}
);
width = 1233;
}
);
note = uni0235;
unicode = 0235;
},
{
glyphname = uni0236;
lastChange = "2018-02-18 05:41:45 +0000";
layers = (
{
layerId = "3F42F969-BD6F-4F86-8089-1D5B5CB6E2D2";
paths = (
{
closed = 1;
nodes = (
"756 277 OFFCURVE",
"804 344 OFFCURVE",
"847 344 CURVE SMOOTH",
"890 344 OFFCURVE",
"910 323 OFFCURVE",
"907 282 CURVE",
"905 179 OFFCURVE",
"863 127 OFFCURVE",
"781 127 CURVE SMOOTH",
"737 126 OFFCURVE",
"711 132 OFFCURVE",
"703 144 CURVE"
);
},
{
closed = 1;
nodes = (
"1032 977 LINE",
"1032 1120 LINE",
"614 1120 LINE",
"614 1438 LINE",
"430 1438 LINE",
"430 1120 LINE",
"131 1120 LINE",
"131 977 LINE",
"430 977 LINE",
"430 406 LINE SMOOTH",
"430 283 OFFCURVE",
"443 197 OFFCURVE",
"469 148 CURVE SMOOTH",
"503 83 OFFCURVE",
"526 49 OFFCURVE",
"539 46 CURVE",
"471 -148 LINE",
"590 -148 LINE",
"603 -110 OFFCURVE",
"620 -65 OFFCURVE",
"640 -12 CURVE",
"672 -23 OFFCURVE",
"712 -29 OFFCURVE",
"759 -29 CURVE SMOOTH",
"926 -29 OFFCURVE",
"1009 75 OFFCURVE",
"1009 284 CURVE SMOOTH",
"1009 575 OFFCURVE",
"779 580 OFFCURVE",
"627 255 CURVE",
"618 278 OFFCURVE",
"614 329 OFFCURVE",
"614 406 CURVE SMOOTH",
"614 977 LINE"
);
}
);
width = 1233;
}
);
note = uni0236;
unicode = 0236;
},
{
glyphname = dotlessj;
lastChange = "2018-02-18 05:41:45 +0000";
layers = (
{
layerId = "3F42F969-BD6F-4F86-8089-1D5B5CB6E2D2";
paths = (
{
closed = 1;
nodes = (
"600 -187 OFFCURVE",
"540 -270 OFFCURVE",
"420 -270 CURVE SMOOTH",
"186 -270 LINE",
"186 -426 LINE",
"440 -426 LINE SMOOTH",
"660 -426 OFFCURVE",
"784 -280 OFFCURVE",
"784 -20 CURVE SMOOTH",
"784 1120 LINE",
"283 1120 LINE",
"283 977 LINE",
"600 977 LINE",
"600 -20 LINE SMOOTH"
);
}
);
width = 1233;
}
);
note = dotlessj;
unicode = 0237;
},
{
glyphname = uni0238;
lastChange = "2018-02-18 05:41:45 +0000";
layers = (
{
layerId = "3F42F969-BD6F-4F86-8089-1D5B5CB6E2D2";
paths = (
{
closed = 1;
nodes = (
"305 955 OFFCURVE",
"345 991 OFFCURVE",
"398 991 CURVE SMOOTH",
"451 991 OFFCURVE",
"492 955 OFFCURVE",
"520 882 CURVE SMOOTH",
"547 809 OFFCURVE",
"561 701 OFFCURVE",
"561 559 CURVE SMOOTH",
"561 418 OFFCURVE",
"547 310 OFFCURVE",
"520 237 CURVE SMOOTH",
"492 164 OFFCURVE",
"451 127 OFFCURVE",
"398 127 CURVE SMOOTH",
"345 127 OFFCURVE",
"305 163 OFFCURVE",
"278 236 CURVE SMOOTH",
"251 309 OFFCURVE",
"237 416 OFFCURVE",
"237 559 CURVE SMOOTH",
"237 702 OFFCURVE",
"251 809 OFFCURVE",
"278 882 CURVE SMOOTH"
);
},
{
closed = 1;
nodes = (
"929 163 OFFCURVE",
"888 127 OFFCURVE",
"835 127 CURVE SMOOTH",
"781 127 OFFCURVE",
"740 164 OFFCURVE",
"713 237 CURVE SMOOTH",
"686 310 OFFCURVE",
"672 418 OFFCURVE",
"672 559 CURVE SMOOTH",
"672 701 OFFCURVE",
"686 809 OFFCURVE",
"713 882 CURVE SMOOTH",
"740 955 OFFCURVE",
"781 991 OFFCURVE",
"835 991 CURVE SMOOTH",
"888 991 OFFCURVE",
"929 955 OFFCURVE",
"956 882 CURVE SMOOTH",
"983 809 OFFCURVE",
"996 702 OFFCURVE",
"996 559 CURVE SMOOTH",
"996 416 OFFCURVE",
"983 309 OFFCURVE",
"956 236 CURVE SMOOTH"
);
},
{
closed = 1;
nodes = (
"561 1556 LINE",
"561 977 LINE",
"526 1088 OFFCURVE",
"462 1147 OFFCURVE",
"382 1147 CURVE SMOOTH",
"301 1147 OFFCURVE",
"238 1095 OFFCURVE",
"191 992 CURVE SMOOTH",
"144 888 OFFCURVE",
"120 745 OFFCURVE",
"120 563 CURVE SMOOTH",
"120 378 OFFCURVE",
"143 234 OFFCURVE",
"190 129 CURVE SMOOTH",
"237 24 OFFCURVE",
"301 -29 OFFCURVE",
"382 -29 CURVE SMOOTH",
"462 -29 OFFCURVE",
"525 30 OFFCURVE",
"561 141 CURVE",
"561 0 LINE",
"672 0 LINE",
"672 141 LINE",
"708 30 OFFCURVE",
"771 -29 OFFCURVE",
"851 -29 CURVE SMOOTH",
"932 -29 OFFCURVE",
"996 24 OFFCURVE",
"1043 129 CURVE SMOOTH",
"1090 234 OFFCURVE",
"1113 378 OFFCURVE",
"1113 563 CURVE SMOOTH",
"1113 745 OFFCURVE",
"1090 888 OFFCURVE",
"1044 992 CURVE SMOOTH",
"997 1095 OFFCURVE",
"933 1147 OFFCURVE",
"852 1147 CURVE SMOOTH",
"771 1147 OFFCURVE",
"707 1086 OFFCURVE",
"672 977 CURVE",
"672 1556 LINE"
);
}
);
width = 1233;
}
);
note = uni0238;
unicode = 0238;
},
{
glyphname = uni0239;
lastChange = "2018-02-18 05:41:45 +0000";
layers = (
{
layerId = "3F42F969-BD6F-4F86-8089-1D5B5CB6E2D2";
paths = (
{
closed = 1;
nodes = (
"929 163 OFFCURVE",
"888 127 OFFCURVE",
"835 127 CURVE SMOOTH",
"782 127 OFFCURVE",
"741 164 OFFCURVE",
"714 237 CURVE SMOOTH",
"686 310 OFFCURVE",
"672 417 OFFCURVE",
"672 559 CURVE SMOOTH",
"672 700 OFFCURVE",
"686 808 OFFCURVE",
"714 881 CURVE SMOOTH",
"741 954 OFFCURVE",
"782 991 OFFCURVE",
"835 991 CURVE SMOOTH",
"888 991 OFFCURVE",
"929 955 OFFCURVE",
"956 882 CURVE SMOOTH",
"983 809 OFFCURVE",
"996 702 OFFCURVE",
"996 559 CURVE SMOOTH",
"996 416 OFFCURVE",
"983 309 OFFCURVE",
"956 236 CURVE SMOOTH"
);
},
{
closed = 1;
nodes = (
"305 955 OFFCURVE",
"345 991 OFFCURVE",
"398 991 CURVE SMOOTH",
"451 991 OFFCURVE",
"492 954 OFFCURVE",
"520 881 CURVE SMOOTH",
"547 808 OFFCURVE",
"561 700 OFFCURVE",
"561 559 CURVE SMOOTH",
"561 417 OFFCURVE",
"547 310 OFFCURVE",
"520 237 CURVE SMOOTH",
"492 164 OFFCURVE",
"451 127 OFFCURVE",
"398 127 CURVE SMOOTH",
"345 127 OFFCURVE",
"305 163 OFFCURVE",
"278 236 CURVE SMOOTH",
"251 309 OFFCURVE",
"237 416 OFFCURVE",
"237 559 CURVE SMOOTH",
"237 702 OFFCURVE",
"251 809 OFFCURVE",
"278 882 CURVE SMOOTH"
);
},
{
closed = 1;
nodes = (
"672 -438 LINE",
"672 141 LINE",
"707 30 OFFCURVE",
"770 -29 OFFCURVE",
"851 -29 CURVE SMOOTH",
"932 -29 OFFCURVE",
"996 23 OFFCURVE",
"1043 127 CURVE SMOOTH",
"1090 230 OFFCURVE",
"1113 373 OFFCURVE",
"1113 555 CURVE SMOOTH",
"1113 740 OFFCURVE",
"1090 885 OFFCURVE",
"1043 990 CURVE SMOOTH",
"996 1095 OFFCURVE",
"932 1147 OFFCURVE",
"851 1147 CURVE SMOOTH",
"771 1147 OFFCURVE",
"708 1088 OFFCURVE",
"672 977 CURVE",
"672 1118 LINE",
"561 1118 LINE",
"561 977 LINE",
"525 1088 OFFCURVE",
"462 1147 OFFCURVE",
"382 1147 CURVE SMOOTH",
"301 1147 OFFCURVE",
"237 1095 OFFCURVE",
"190 990 CURVE SMOOTH",
"143 885 OFFCURVE",
"120 740 OFFCURVE",
"120 555 CURVE SMOOTH",
"120 373 OFFCURVE",
"143 230 OFFCURVE",
"190 127 CURVE SMOOTH",
"237 23 OFFCURVE",
"300 -29 OFFCURVE",
"381 -29 CURVE SMOOTH",
"462 -29 OFFCURVE",
"526 32 OFFCURVE",
"561 141 CURVE",
"561 -438 LINE"
);
}
);
width = 1233;
}
);
note = uni0239;
unicode = 0239;
},
{
glyphname = uni023A;
lastChange = "2018-02-18 05:41:45 +0000";
layers = (
{
layerId = "3F42F969-BD6F-4F86-8089-1D5B5CB6E2D2";
paths = (
{
closed = 1;
nodes = (
"8 0 LINE",
"111 -70 LINE",
"160 0 LINE",
"246 0 LINE",
"302 203 LINE",
"432 389 LINE",
"877 389 LINE",
"987 0 LINE",
"1196 0 LINE",
"881 1029 LINE",
"1200 1485 LINE",
"1100 1559 LINE",
"835 1180 LINE",
"739 1493 LINE",
"494 1493 LINE",
"60 74 LINE"
);
},
{
closed = 1;
nodes = (
"829 551 LINE",
"546 551 LINE",
"748 840 LINE"
);
},
{
closed = 1;
nodes = (
"616 1315 LINE",
"705 995 LINE",
"409 572 LINE"
);
}
);
width = 1233;
}
);
note = uni023A;
unicode = 023A;
},
{
glyphname = uni023B;
lastChange = "2018-02-18 05:41:45 +0000";
layers = (
{
layerId = "3F42F969-BD6F-4F86-8089-1D5B5CB6E2D2";
paths = (
{
closed = 1;
nodes = (
"356 584 OFFCURVE",
"350 661 OFFCURVE",
"350 745 CURVE SMOOTH",
"350 1154 OFFCURVE",
"480 1356 OFFCURVE",
"743 1356 CURVE SMOOTH",
"800 1356 OFFCURVE",
"857 1345 OFFCURVE",
"914 1324 CURVE SMOOTH",
"932 1318 LINE",
"368 514 LINE"
);
},
{
closed = 1;
nodes = (
"976 179 OFFCURVE",
"860 135 OFFCURVE",
"743 135 CURVE SMOOTH",
"612 135 OFFCURVE",
"513 186 OFFCURVE",
"448 287 CURVE SMOOTH",
"434 308 OFFCURVE",
"422 332 OFFCURVE",
"411 358 CURVE",
"1040 1256 LINE",
"1051 1248 OFFCURVE",
"1062 1240 OFFCURVE",
"1073 1231 CURVE",
"1073 1304 LINE",
"1200 1485 LINE",
"1100 1559 LINE",
"1030 1459 LINE",
"955 1494 OFFCURVE",
"864 1520 OFFCURVE",
"743 1520 CURVE SMOOTH",
"363 1520 OFFCURVE",
"139 1233 OFFCURVE",
"139 745 CURVE SMOOTH",
"139 570 OFFCURVE",
"166 422 OFFCURVE",
"220 303 CURVE",
"8 0 LINE",
"111 -70 LINE",
"289 185 LINE",
"298 174 LINE SMOOTH",
"403 39 OFFCURVE",
"552 -29 OFFCURVE",
"743 -29 CURVE SMOOTH",
"864 -29 OFFCURVE",
"970 -2 OFFCURVE",
"1073 53 CURVE",
"1073 260 LINE"
);
}
);
width = 1233;
}
);
note = uni023B;
unicode = 023B;
},
{
glyphname = uni023C;
lastChange = "2018-02-18 05:41:45 +0000";
layers = (
{
layerId = "3F42F969-BD6F-4F86-8089-1D5B5CB6E2D2";
paths = (
{
closed = 1;
nodes = (
"394 453 OFFCURVE",
"389 504 OFFCURVE",
"389 559 CURVE SMOOTH",
"389 836 OFFCURVE",
"517 991 OFFCURVE",
"748 991 CURVE SMOOTH",
"795 991 OFFCURVE",
"840 985 OFFCURVE",
"881 973 CURVE",
"405 406 LINE"
);
},
{
closed = 1;
nodes = (
"974 165 OFFCURVE",
"876 127 OFFCURVE",
"748 127 CURVE SMOOTH",
"633 127 OFFCURVE",
"545 165 OFFCURVE",
"482 240 CURVE SMOOTH",
"472 252 OFFCURVE",
"463 265 OFFCURVE",
"454 279 CURVE",
"994 920 LINE",
"1016 905 OFFCURVE",
"1038 888 OFFCURVE",
"1061 868 CURVE",
"1061 1001 LINE",
"1174 1135 LINE",
"1081 1212 LINE",
"986 1098 LINE",
"959 1109 OFFCURVE",
"933 1119 OFFCURVE",
"906 1126 CURVE SMOOTH",
"855 1140 OFFCURVE",
"802 1147 OFFCURVE",
"748 1147 CURVE SMOOTH",
"401 1147 OFFCURVE",
"195 927 OFFCURVE",
"195 559 CURVE SMOOTH",
"195 433 OFFCURVE",
"218 326 OFFCURVE",
"263 238 CURVE",
"47 -20 LINE",
"139 -96 LINE",
"334 136 LINE",
"342 127 LINE SMOOTH",
"439 23 OFFCURVE",
"575 -29 OFFCURVE",
"748 -29 CURVE SMOOTH",
"857 -29 OFFCURVE",
"962 0 OFFCURVE",
"1061 57 CURVE",
"1061 248 LINE"
);
}
);
width = 1233;
}
);
note = uni023C;
unicode = 023C;
},
{
glyphname = uni023D;
lastChange = "2018-02-18 05:41:45 +0000";
layers = (
{
layerId = "3F42F969-BD6F-4F86-8089-1D5B5CB6E2D2";
paths = (
{
closed = 1;
nodes = (
"21 747 LINE",
"21 577 LINE",
"288 577 LINE",
"288 0 LINE",
"1212 0 LINE",
"1212 170 LINE",
"491 170 LINE",
"491 577 LINE",
"754 577 LINE",
"754 747 LINE",
"491 747 LINE",
"491 1493 LINE",
"288 1493 LINE",
"288 747 LINE"
);
}
);
width = 1233;
}
);
note = uni023D;
unicode = 023D;
},
{
glyphname = uni023E;
lastChange = "2018-02-18 05:41:45 +0000";
layers = (
{
layerId = "3F42F969-BD6F-4F86-8089-1D5B5CB6E2D2";
paths = (
{
closed = 1;
nodes = (
"960 1323 LINE",
"717 976 LINE",
"717 1323 LINE"
);
},
{
closed = 1;
nodes = (
"136 -70 LINE",
"514 470 LINE",
"514 0 LINE",
"717 0 LINE",
"717 760 LINE",
"1112 1323 LINE",
"1186 1323 LINE",
"1186 1429 LINE",
"1225 1485 LINE",
"1125 1559 LINE",
"1079 1493 LINE",
"47 1493 LINE",
"47 1323 LINE",
"514 1323 LINE",
"514 687 LINE",
"33 0 LINE"
);
}
);
width = 1233;
}
);
note = uni023E;
unicode = 023E;
},
{
glyphname = uni023F;
lastChange = "2018-02-18 05:41:45 +0000";
layers = (
{
layerId = "3F42F969-BD6F-4F86-8089-1D5B5CB6E2D2";
paths = (
{
closed = 1;
nodes = (
"866 1125 OFFCURVE",
"757 1147 OFFCURVE",
"637 1147 CURVE SMOOTH",
"368 1147 OFFCURVE",
"217 1026 OFFCURVE",
"217 811 CURVE SMOOTH",
"217 642 OFFCURVE",
"307 550 OFFCURVE",
"522 506 CURVE SMOOTH",
"591 492 LINE",
"599 490 LINE",
"762 457 OFFCURVE",
"844 398 OFFCURVE",
"844 313 CURVE SMOOTH",
"844 194 OFFCURVE",
"751 125 OFFCURVE",
"588 125 CURVE SMOOTH",
"547 125 OFFCURVE",
"503 130 OFFCURVE",
"458 140 CURVE",
"377 204 OFFCURVE",
"295 234 OFFCURVE",
"213 231 CURVE",
"213 41 LINE",
"263 25 LINE SMOOTH",
"330 2 OFFCURVE",
"381 -28 OFFCURVE",
"415 -63 CURVE SMOOTH",
"652 -306 LINE SMOOTH",
"771 -427 OFFCURVE",
"898 -496 OFFCURVE",
"1010 -496 CURVE SMOOTH",
"1049 -496 LINE",
"1049 -342 LINE",
"998 -342 OFFCURVE",
"959 -330 OFFCURVE",
"931 -306 CURVE SMOOTH",
"784 -180 LINE",
"632 -28 LINE",
"867 -15 OFFCURVE",
"1030 103 OFFCURVE",
"1030 324 CURVE SMOOTH",
"1030 491 OFFCURVE",
"935 596 OFFCURVE",
"752 631 CURVE SMOOTH",
"678 645 LINE SMOOTH",
"556 668 OFFCURVE",
"480 692 OFFCURVE",
"449 717 CURVE SMOOTH",
"418 742 OFFCURVE",
"403 779 OFFCURVE",
"403 829 CURVE SMOOTH",
"403 940 OFFCURVE",
"484 993 OFFCURVE",
"651 993 CURVE SMOOTH",
"762 993 OFFCURVE",
"868 962 OFFCURVE",
"973 901 CURVE",
"973 1081 LINE"
);
}
);
width = 1233;
}
);
note = uni023F;
unicode = 023F;
},
{
glyphname = uni0240;
lastChange = "2018-02-18 05:41:45 +0000";
layers = (
{
layerId = "3F42F969-BD6F-4F86-8089-1D5B5CB6E2D2";
paths = (
{
closed = 1;
nodes = (
"846 975 LINE",
"203 170 LINE",
"203 156 LINE",
"203 0 LINE",
"263 0 OFFCURVE",
"313 -21 OFFCURVE",
"354 -63 CURVE SMOOTH",
"591 -306 LINE SMOOTH",
"710 -427 OFFCURVE",
"837 -496 OFFCURVE",
"949 -496 CURVE SMOOTH",
"1040 -496 LINE",
"1040 -342 LINE",
"988 -342 LINE SMOOTH",
"937 -342 OFFCURVE",
"898 -330 OFFCURVE",
"870 -306 CURVE SMOOTH",
"723 -180 LINE",
"459 84 LINE SMOOTH",
"438 105 OFFCURVE",
"411 122 OFFCURVE",
"378 133 CURVE",
"1040 954 LINE",
"1040 1122 LINE",
"227 1122 LINE",
"227 975 LINE"
);
}
);
width = 1233;
}
);
note = uni0240;
unicode = 0240;
},
{
glyphname = uni0241;
lastChange = "2018-02-18 05:41:45 +0000";
layers = (
{
layerId = "3F42F969-BD6F-4F86-8089-1D5B5CB6E2D2";
paths = (
{
closed = 1;
nodes = (
"857 1327 OFFCURVE",
"966 1224 OFFCURVE",
"966 1047 CURVE SMOOTH",
"966 870 OFFCURVE",
"856 766 OFFCURVE",
"669 766 CURVE SMOOTH",
"467 766 LINE",
"467 0 LINE",
"669 0 LINE",
"669 600 LINE",
"1004 600 OFFCURVE",
"1177 752 OFFCURVE",
"1177 1047 CURVE SMOOTH",
"1177 1339 OFFCURVE",
"1002 1493 OFFCURVE",
"669 1493 CURVE SMOOTH",
"374 1493 LINE SMOOTH",
"206 1493 OFFCURVE",
"56 1390 OFFCURVE",
"56 1149 CURVE SMOOTH",
"56 1079 LINE",
"212 1079 LINE",
"212 1128 LINE SMOOTH",
"212 1280 OFFCURVE",
"302 1327 OFFCURVE",
"374 1327 CURVE SMOOTH",
"669 1327 LINE SMOOTH"
);
}
);
width = 1233;
}
);
note = uni0241;
unicode = 0241;
},
{
glyphname = uni0244;
lastChange = "2018-02-18 05:41:45 +0000";
layers = (
{
layerId = "3F42F969-BD6F-4F86-8089-1D5B5CB6E2D2";
paths = (
{
closed = 1;
nodes = (
"147 573 LINE SMOOTH",
"147 422 OFFCURVE",
"157 314 OFFCURVE",
"176 249 CURVE SMOOTH",
"195 183 OFFCURVE",
"228 129 OFFCURVE",
"274 88 CURVE SMOOTH",
"363 9 OFFCURVE",
"476 -29 OFFCURVE",
"616 -29 CURVE SMOOTH",
"687 -29 OFFCURVE",
"750 -19 OFFCURVE",
"807 0 CURVE SMOOTH",
"920 39 OFFCURVE",
"1019 119 OFFCURVE",
"1057 248 CURVE SMOOTH",
"1076 312 OFFCURVE",
"1085 420 OFFCURVE",
"1085 573 CURVE SMOOTH",
"1085 577 LINE",
"1212 577 LINE",
"1212 747 LINE",
"1085 747 LINE",
"1085 1493 LINE",
"883 1493 LINE",
"883 747 LINE",
"350 747 LINE",
"350 1493 LINE",
"147 1493 LINE",
"147 747 LINE",
"21 747 LINE",
"21 577 LINE",
"147 577 LINE"
);
},
{
closed = 1;
nodes = (
"883 407 OFFCURVE",
"881 356 OFFCURVE",
"877 325 CURVE SMOOTH",
"873 294 OFFCURVE",
"866 271 OFFCURVE",
"856 254 CURVE SMOOTH",
"812 175 OFFCURVE",
"732 135 OFFCURVE",
"616 135 CURVE SMOOTH",
"559 135 OFFCURVE",
"510 145 OFFCURVE",
"470 165 CURVE SMOOTH",
"389 205 OFFCURVE",
"364 264 OFFCURVE",
"356 326 CURVE SMOOTH",
"352 357 OFFCURVE",
"350 408 OFFCURVE",
"350 481 CURVE SMOOTH",
"350 577 LINE",
"883 577 LINE",
"883 479 LINE SMOOTH"
);
}
);
width = 1233;
}
);
note = uni0244;
unicode = 0244;
},
{
glyphname = uni0245;
lastChange = "2018-02-18 05:41:45 +0000";
layers = (
{
layerId = "3F42F969-BD6F-4F86-8089-1D5B5CB6E2D2";
paths = (
{
closed = 1;
nodes = (
"1176 0 LINE",
"739 1493 LINE",
"494 1493 LINE",
"57 0 LINE",
"266 0 LINE",
"617 1323 LINE",
"967 0 LINE"
);
}
);
width = 1233;
}
);
note = uni0245;
unicode = 0245;
},
{
glyphname = uni024C;
lastChange = "2018-02-18 05:41:45 +0000";
layers = (
{
layerId = "3F42F969-BD6F-4F86-8089-1D5B5CB6E2D2";
paths = (
{
closed = 1;
nodes = (
"21 797 LINE",
"21 631 LINE",
"227 631 LINE",
"227 0 LINE",
"430 0 LINE",
"430 631 LINE",
"539 631 LINE SMOOTH",
"671 631 OFFCURVE",
"735 592 OFFCURVE",
"838 377 CURVE SMOOTH",
"1016 0 LINE",
"1233 0 LINE",
"1030 408 LINE SMOOTH",
"919 631 OFFCURVE",
"864 678 OFFCURVE",
"760 705 CURVE",
"955 733 OFFCURVE",
"1067 864 OFFCURVE",
"1067 1061 CURVE SMOOTH",
"1067 1341 OFFCURVE",
"887 1493 OFFCURVE",
"559 1493 CURVE SMOOTH",
"227 1493 LINE",
"227 797 LINE"
);
},
{
closed = 1;
nodes = (
"751 1327 OFFCURVE",
"854 1233 OFFCURVE",
"854 1061 CURVE SMOOTH",
"854 882 OFFCURVE",
"760 797 OFFCURVE",
"567 797 CURVE SMOOTH",
"430 797 LINE",
"430 1327 LINE",
"559 1327 LINE SMOOTH"
);
}
);
width = 1233;
}
);
note = uni024C;
unicode = 024C;
},
{
glyphname = uni024D;
lastChange = "2018-02-18 05:41:45 +0000";
layers = (
{
layerId = "3F42F969-BD6F-4F86-8089-1D5B5CB6E2D2";
paths = (
{
closed = 1;
nodes = (
"1083 1125 OFFCURVE",
"1006 1147 OFFCURVE",
"915 1147 CURVE SMOOTH",
"740 1147 OFFCURVE",
"608 1060 OFFCURVE",
"547 901 CURVE",
"547 1120 LINE",
"362 1120 LINE",
"362 616 LINE",
"142 616 LINE",
"142 452 LINE",
"362 452 LINE",
"362 0 LINE",
"547 0 LINE",
"547 452 LINE",
"1062 452 LINE",
"1062 616 LINE",
"549 616 LINE",
"565 831 OFFCURVE",
"672 977 OFFCURVE",
"901 977 CURVE SMOOTH",
"998 977 OFFCURVE",
"1076 950 OFFCURVE",
"1155 889 CURVE",
"1155 1077 LINE"
);
}
);
width = 1233;
}
);
note = uni024D;
unicode = 024D;
},
{
glyphname = uni0250;
lastChange = "2018-02-18 05:41:45 +0000";
layers = (
{
layerId = "3F42F969-BD6F-4F86-8089-1D5B5CB6E2D2";
paths = (
{
closed = 1;
nodes = (
"338 596 LINE SMOOTH",
"338 844 OFFCURVE",
"463 993 OFFCURVE",
"666 993 CURVE SMOOTH",
"810 993 OFFCURVE",
"896 915 OFFCURVE",
"896 780 CURVE SMOOTH",
"896 631 OFFCURVE",
"785 555 OFFCURVE",
"572 555 CURVE SMOOTH",
"510 555 LINE",
"338 555 LINE"
);
},
{
closed = 1;
nodes = (
"154 283 OFFCURVE",
"173 202 OFFCURVE",
"224 135 CURVE SMOOTH",
"304 26 OFFCURVE",
"436 -29 OFFCURVE",
"620 -29 CURVE SMOOTH",
"737 -29 OFFCURVE",
"862 -3 OFFCURVE",
"998 49 CURVE",
"998 233 LINE",
"875 164 OFFCURVE",
"745 127 OFFCURVE",
"620 127 CURVE SMOOTH",
"425 127 OFFCURVE",
"338 203 OFFCURVE",
"338 382 CURVE SMOOTH",
"338 411 LINE",
"586 411 LINE SMOOTH",
"909 411 OFFCURVE",
"1080 543 OFFCURVE",
"1080 792 CURVE SMOOTH",
"1080 1008 OFFCURVE",
"933 1147 OFFCURVE",
"704 1147 CURVE SMOOTH",
"533 1147 OFFCURVE",
"418 1085 OFFCURVE",
"338 952 CURVE",
"338 1118 LINE",
"154 1118 LINE",
"154 479 LINE SMOOTH"
);
}
);
width = 1233;
}
);
note = uni0250;
unicode = 0250;
},
{
glyphname = uni0251;
lastChange = "2018-02-18 05:41:45 +0000";
layers = (
{
layerId = "3F42F969-BD6F-4F86-8089-1D5B5CB6E2D2";
paths = (
{
closed = 1;
nodes = (
"799 1088 OFFCURVE",
"694 1147 OFFCURVE",
"559 1147 CURVE SMOOTH",
"290 1147 OFFCURVE",
"123 927 OFFCURVE",
"123 563 CURVE SMOOTH",
"123 194 OFFCURVE",
"288 -29 OFFCURVE",
"559 -29 CURVE SMOOTH",
"692 -29 OFFCURVE",
"797 30 OFFCURVE",
"858 141 CURVE",
"858 0 LINE",
"1042 0 LINE",
"1042 1118 LINE",
"858 1118 LINE",
"858 977 LINE"
);
},
{
closed = 1;
nodes = (
"317 844 OFFCURVE",
"409 991 OFFCURVE",
"586 991 CURVE SMOOTH",
"763 991 OFFCURVE",
"858 843 OFFCURVE",
"858 559 CURVE SMOOTH",
"858 276 OFFCURVE",
"763 127 OFFCURVE",
"586 127 CURVE SMOOTH",
"409 127 OFFCURVE",
"317 274 OFFCURVE",
"317 559 CURVE SMOOTH"
);
}
);
width = 1233;
}
);
note = uni0251;
unicode = 0251;
},
{
glyphname = uni0252;
lastChange = "2018-02-18 05:41:45 +0000";
layers = (
{
layerId = "3F42F969-BD6F-4F86-8089-1D5B5CB6E2D2";
paths = (
{
closed = 1;
nodes = (
"917 272 OFFCURVE",
"825 125 OFFCURVE",
"648 125 CURVE SMOOTH",
"471 125 OFFCURVE",
"376 273 OFFCURVE",
"376 557 CURVE SMOOTH",
"376 840 OFFCURVE",
"471 989 OFFCURVE",
"648 989 CURVE SMOOTH",
"825 989 OFFCURVE",
"917 842 OFFCURVE",
"917 557 CURVE SMOOTH"
);
},
{
closed = 1;
nodes = (
"192 1118 LINE",
"192 0 LINE",
"376 0 LINE",
"376 139 LINE",
"435 28 OFFCURVE",
"540 -31 OFFCURVE",
"675 -31 CURVE SMOOTH",
"944 -31 OFFCURVE",
"1111 189 OFFCURVE",
"1111 553 CURVE SMOOTH",
"1111 922 OFFCURVE",
"946 1145 OFFCURVE",
"675 1145 CURVE SMOOTH",
"542 1145 OFFCURVE",
"437 1086 OFFCURVE",
"376 975 CURVE",
"376 1118 LINE"
);
}
);
width = 1233;
}
);
note = uni0252;
unicode = 0252;
},
{
glyphname = uni0253;
lastChange = "2018-02-18 05:41:45 +0000";
layers = (
{
layerId = "3F42F969-BD6F-4F86-8089-1D5B5CB6E2D2";
paths = (
{
closed = 1;
nodes = (
"918 274 OFFCURVE",
"826 127 OFFCURVE",
"649 127 CURVE SMOOTH",
"470 127 OFFCURVE",
"377 276 OFFCURVE",
"377 559 CURVE SMOOTH",
"377 843 OFFCURVE",
"470 991 OFFCURVE",
"649 991 CURVE SMOOTH",
"826 991 OFFCURVE",
"918 844 OFFCURVE",
"918 559 CURVE SMOOTH"
);
},
{
closed = 1;
nodes = (
"377 1317 OFFCURVE",
"437 1400 OFFCURVE",
"557 1400 CURVE SMOOTH",
"741 1400 LINE",
"741 1556 LINE",
"537 1556 LINE SMOOTH",
"317 1556 OFFCURVE",
"193 1410 OFFCURVE",
"193 1150 CURVE SMOOTH",
"193 0 LINE",
"377 0 LINE",
"377 141 LINE",
"438 30 OFFCURVE",
"543 -29 OFFCURVE",
"676 -29 CURVE SMOOTH",
"947 -29 OFFCURVE",
"1112 194 OFFCURVE",
"1112 563 CURVE SMOOTH",
"1112 927 OFFCURVE",
"947 1147 OFFCURVE",
"678 1147 CURVE SMOOTH",
"542 1147 OFFCURVE",
"436 1086 OFFCURVE",
"377 977 CURVE",
"377 1150 LINE SMOOTH"
);
}
);
width = 1233;
}
);
note = uni0253;
unicode = 0253;
},
{
glyphname = uni0254;
lastChange = "2018-02-18 05:41:45 +0000";
layers = (
{
layerId = "3F42F969-BD6F-4F86-8089-1D5B5CB6E2D2";
paths = (
{
closed = 1;
nodes = (
"269 953 OFFCURVE",
"368 991 OFFCURVE",
"496 991 CURVE SMOOTH",
"725 991 OFFCURVE",
"856 835 OFFCURVE",
"856 559 CURVE SMOOTH",
"856 282 OFFCURVE",
"728 127 OFFCURVE",
"496 127 CURVE SMOOTH",
"373 127 OFFCURVE",
"280 163 OFFCURVE",
"184 250 CURVE",
"184 57 LINE",
"288 -2 OFFCURVE",
"389 -29 OFFCURVE",
"496 -29 CURVE SMOOTH",
"843 -29 OFFCURVE",
"1050 191 OFFCURVE",
"1050 559 CURVE SMOOTH",
"1050 927 OFFCURVE",
"843 1147 OFFCURVE",
"496 1147 CURVE SMOOTH",
"387 1147 OFFCURVE",
"283 1118 OFFCURVE",
"184 1061 CURVE",
"184 870 LINE"
);
}
);
width = 1233;
}
);
note = uni0254;
unicode = 0254;
},
{
glyphname = uni0255;
lastChange = "2018-02-18 05:41:45 +0000";
layers = (
{
layerId = "3F42F969-BD6F-4F86-8089-1D5B5CB6E2D2";
paths = (
{
closed = 1;
nodes = (
"589 -96 OFFCURVE",
"591 -54 OFFCURVE",
"595 -16 CURVE",
"642 -27 OFFCURVE",
"693 -33 OFFCURVE",
"748 -33 CURVE SMOOTH",
"971 -33 OFFCURVE",
"1082 30 OFFCURVE",
"1082 156 CURVE SMOOTH",
"1082 320 OFFCURVE",
"982 402 OFFCURVE",
"781 402 CURVE SMOOTH",
"651 402 OFFCURVE",
"558 343 OFFCURVE",
"501 226 CURVE",
"497 231 OFFCURVE",
"493 235 OFFCURVE",
"488 240 CURVE SMOOTH",
"422 306 OFFCURVE",
"389 412 OFFCURVE",
"389 559 CURVE SMOOTH",
"389 836 OFFCURVE",
"517 991 OFFCURVE",
"748 991 CURVE SMOOTH",
"872 991 OFFCURVE",
"964 955 OFFCURVE",
"1061 868 CURVE",
"1061 1061 LINE",
"957 1120 OFFCURVE",
"856 1147 OFFCURVE",
"748 1147 CURVE SMOOTH",
"401 1147 OFFCURVE",
"195 927 OFFCURVE",
"195 559 CURVE SMOOTH",
"195 380 OFFCURVE",
"245 237 OFFCURVE",
"344 130 CURVE SMOOTH",
"376 96 OFFCURVE",
"411 67 OFFCURVE",
"449 44 CURVE",
"440 -10 OFFCURVE",
"436 -72 OFFCURVE",
"436 -141 CURVE",
"589 -141 LINE"
);
},
{
closed = 1;
nodes = (
"663 221 OFFCURVE",
"713 259 OFFCURVE",
"780 259 CURVE SMOOTH",
"868 259 OFFCURVE",
"912 234 OFFCURVE",
"912 184 CURVE SMOOTH",
"912 146 OFFCURVE",
"863 127 OFFCURVE",
"766 127 CURVE SMOOTH",
"717 127 OFFCURVE",
"672 133 OFFCURVE",
"632 146 CURVE"
);
}
);
width = 1233;
}
);
note = uni0255;
unicode = 0255;
},
{
glyphname = uni0256;
lastChange = "2018-02-18 05:41:45 +0000";
layers = (
{
layerId = "3F42F969-BD6F-4F86-8089-1D5B5CB6E2D2";
paths = (
{
closed = 1;
nodes = (
"407 955 OFFCURVE",
"461 991 OFFCURVE",
"532 991 CURVE SMOOTH",
"674 991 OFFCURVE",
"750 843 OFFCURVE",
"750 559 CURVE SMOOTH",
"750 276 OFFCURVE",
"674 127 OFFCURVE",
"532 127 CURVE SMOOTH",
"390 127 OFFCURVE",
"316 274 OFFCURVE",
"316 559 CURVE SMOOTH",
"316 702 OFFCURVE",
"334 809 OFFCURVE",
"371 882 CURVE SMOOTH"
);
},
{
closed = 1;
nodes = (
"702 1088 OFFCURVE",
"618 1147 OFFCURVE",
"510 1147 CURVE SMOOTH",
"271 1147 OFFCURVE",
"123 927 OFFCURVE",
"123 563 CURVE SMOOTH",
"123 194 OFFCURVE",
"270 -29 OFFCURVE",
"510 -29 CURVE SMOOTH",
"617 -29 OFFCURVE",
"700 30 OFFCURVE",
"749 141 CURVE",
"749 -20 LINE SMOOTH",
"749 -280 OFFCURVE",
"848 -426 OFFCURVE",
"1024 -426 CURVE SMOOTH",
"1080 -426 LINE",
"1080 -270 LINE",
"1074 -270 LINE SMOOTH",
"978 -270 OFFCURVE",
"931 -188 OFFCURVE",
"931 -20 CURVE SMOOTH",
"931 1556 LINE",
"750 1556 LINE",
"750 977 LINE"
);
}
);
width = 1233;
}
);
note = uni0256;
unicode = 0256;
},
{
glyphname = uni0257;
lastChange = "2018-02-18 05:41:45 +0000";
layers = (
{
layerId = "3F42F969-BD6F-4F86-8089-1D5B5CB6E2D2";
paths = (
{
closed = 1;
nodes = (
"406 955 OFFCURVE",
"459 991 OFFCURVE",
"530 991 CURVE SMOOTH",
"673 991 OFFCURVE",
"748 843 OFFCURVE",
"748 559 CURVE SMOOTH",
"748 276 OFFCURVE",
"673 127 OFFCURVE",
"530 127 CURVE SMOOTH",
"389 127 OFFCURVE",
"315 274 OFFCURVE",
"315 559 CURVE SMOOTH",
"315 702 OFFCURVE",
"333 809 OFFCURVE",
"370 882 CURVE SMOOTH"
);
},
{
closed = 1;
nodes = (
"701 1088 OFFCURVE",
"617 1147 OFFCURVE",
"509 1147 CURVE SMOOTH",
"270 1147 OFFCURVE",
"123 927 OFFCURVE",
"123 563 CURVE SMOOTH",
"123 194 OFFCURVE",
"269 -29 OFFCURVE",
"509 -29 CURVE SMOOTH",
"616 -29 OFFCURVE",
"700 30 OFFCURVE",
"748 141 CURVE",
"748 0 LINE",
"931 0 LINE",
"931 1150 LINE SMOOTH",
"931 1318 OFFCURVE",
"978 1400 OFFCURVE",
"1074 1400 CURVE SMOOTH",
"1079 1400 LINE",
"1079 1556 LINE",
"1023 1556 LINE SMOOTH",
"847 1556 OFFCURVE",
"748 1410 OFFCURVE",
"748 1150 CURVE SMOOTH",
"748 1002 LINE",
"748 977 LINE"
);
}
);
width = 1233;
}
);
note = uni0257;
unicode = 0257;
},
{
glyphname = uni0258;
lastChange = "2018-02-18 05:41:45 +0000";
layers = (
{
layerId = "3F42F969-BD6F-4F86-8089-1D5B5CB6E2D2";
paths = (
{
closed = 1;
nodes = (
"919 516 LINE",
"919 510 LINE SMOOTH",
"919 266 OFFCURVE",
"786 127 OFFCURVE",
"554 127 CURVE SMOOTH",
"437 127 OFFCURVE",
"310 164 OFFCURVE",
"165 240 CURVE",
"165 57 LINE",
"305 0 OFFCURVE",
"435 -29 OFFCURVE",
"556 -29 CURVE SMOOTH",
"904 -29 OFFCURVE",
"1111 192 OFFCURVE",
"1111 559 CURVE SMOOTH",
"1111 916 OFFCURVE",
"903 1147 OFFCURVE",
"583 1147 CURVE SMOOTH",
"298 1147 OFFCURVE",
"122 941 OFFCURVE",
"122 606 CURVE SMOOTH",
"122 516 LINE"
);
},
{
closed = 1;
nodes = (
"306 875 OFFCURVE",
"410 991 OFFCURVE",
"591 991 CURVE SMOOTH",
"768 991 OFFCURVE",
"891 867 OFFCURVE",
"912 659 CURVE",
"306 659 LINE"
);
}
);
width = 1233;
}
);
note = uni0258;
unicode = 0258;
},
{
glyphname = uni0259;
lastChange = "2018-02-18 05:41:45 +0000";
layers = (
{
layerId = "3F42F969-BD6F-4F86-8089-1D5B5CB6E2D2";
paths = (
{
closed = 1;
nodes = (
"122 177 OFFCURVE",
"298 -29 OFFCURVE",
"583 -29 CURVE SMOOTH",
"903 -29 OFFCURVE",
"1111 202 OFFCURVE",
"1111 559 CURVE SMOOTH",
"1111 926 OFFCURVE",
"904 1147 OFFCURVE",
"556 1147 CURVE SMOOTH",
"435 1147 OFFCURVE",
"305 1118 OFFCURVE",
"165 1061 CURVE",
"165 878 LINE",
"310 954 OFFCURVE",
"437 991 OFFCURVE",
"554 991 CURVE SMOOTH",
"786 991 OFFCURVE",
"919 852 OFFCURVE",
"919 608 CURVE SMOOTH",
"919 602 LINE",
"122 602 LINE",
"122 512 LINE SMOOTH"
);
},
{
closed = 1;
nodes = (
"891 251 OFFCURVE",
"768 127 OFFCURVE",
"591 127 CURVE SMOOTH",
"410 127 OFFCURVE",
"306 243 OFFCURVE",
"306 459 CURVE",
"912 459 LINE"
);
}
);
width = 1233;
}
);
note = uni0259;
unicode = 0259;
},
{
glyphname = uni025A;
lastChange = "2018-02-18 05:41:45 +0000";
layers = (
{
layerId = "3F42F969-BD6F-4F86-8089-1D5B5CB6E2D2";
paths = (
{
closed = 1;
nodes = (
"539 156 OFFCURVE",
"481 127 OFFCURVE",
"404 127 CURVE SMOOTH",
"327 127 OFFCURVE",
"267 157 OFFCURVE",
"226 217 CURVE",
"209 240 OFFCURVE",
"193 275 OFFCURVE",
"178 321 CURVE",
"647 677 LINE",
"652 640 OFFCURVE",
"654 600 OFFCURVE",
"654 559 CURVE SMOOTH",
"654 421 OFFCURVE",
"629 306 OFFCURVE",
"578 214 CURVE"
);
},
{
closed = 1;
nodes = (
"261 1147 OFFCURVE",
"157 1118 OFFCURVE",
"54 1061 CURVE",
"54 887 LINE",
"152 956 OFFCURVE",
"254 991 OFFCURVE",
"360 991 CURVE SMOOTH",
"466 991 OFFCURVE",
"538 958 OFFCURVE",
"577 892 CURVE SMOOTH",
"590 869 OFFCURVE",
"602 845 OFFCURVE",
"612 818 CURVE",
"30 375 LINE",
"57 167 OFFCURVE",
"159 -29 OFFCURVE",
"402 -29 CURVE SMOOTH",
"645 -29 OFFCURVE",
"810 202 OFFCURVE",
"810 569 CURVE SMOOTH",
"810 648 OFFCURVE",
"802 719 OFFCURVE",
"787 783 CURVE",
"893 864 LINE",
"893 597 OFFCURVE",
"978 478 OFFCURVE",
"1154 478 CURVE SMOOTH",
"1203 478 LINE",
"1203 634 LINE",
"1170 634 LINE SMOOTH",
"1063 634 OFFCURVE",
"1033 680 OFFCURVE",
"1033 884 CURVE SMOOTH",
"1033 1032 LINE",
"893 1032 LINE",
"739 915 LINE",
"660 1070 OFFCURVE",
"536 1147 OFFCURVE",
"368 1147 CURVE SMOOTH"
);
}
);
width = 1233;
}
);
note = uni025A;
unicode = 025A;
},
{
glyphname = uni025B;
lastChange = "2018-02-18 05:41:45 +0000";
layers = (
{
layerId = "3F42F969-BD6F-4F86-8089-1D5B5CB6E2D2";
paths = (
{
closed = 1;
nodes = (
"273 576 OFFCURVE",
"169 472 OFFCURVE",
"169 327 CURVE SMOOTH",
"169 106 OFFCURVE",
"361 -22 OFFCURVE",
"700 -22 CURVE SMOOTH",
"815 -22 OFFCURVE",
"935 -3 OFFCURVE",
"1064 34 CURVE",
"1064 207 LINE",
"961 162 OFFCURVE",
"838 138 OFFCURVE",
"706 138 CURVE SMOOTH",
"475 138 OFFCURVE",
"352 210 OFFCURVE",
"352 341 CURVE SMOOTH",
"352 449 OFFCURVE",
"470 532 OFFCURVE",
"670 532 CURVE SMOOTH",
"829 532 LINE",
"829 676 LINE",
"663 676 LINE SMOOTH",
"483 676 OFFCURVE",
"384 743 OFFCURVE",
"384 824 CURVE SMOOTH",
"384 923 OFFCURVE",
"486 984 OFFCURVE",
"670 984 CURVE SMOOTH",
"771 984 OFFCURVE",
"884 968 OFFCURVE",
"1023 932 CURVE",
"1023 1099 LINE",
"883 1131 OFFCURVE",
"762 1147 OFFCURVE",
"654 1147 CURVE SMOOTH",
"375 1147 OFFCURVE",
"201 1034 OFFCURVE",
"201 855 CURVE SMOOTH",
"201 730 OFFCURVE",
"290 640 OFFCURVE",
"449 607 CURVE"
);
}
);
width = 1233;
}
);
note = uni025B;
unicode = 025B;
},
{
glyphname = uni025C;
lastChange = "2018-02-18 05:41:45 +0000";
layers = (
{
layerId = "3F42F969-BD6F-4F86-8089-1D5B5CB6E2D2";
paths = (
{
closed = 1;
nodes = (
"942 640 OFFCURVE",
"1032 730 OFFCURVE",
"1032 855 CURVE SMOOTH",
"1032 1034 OFFCURVE",
"858 1147 OFFCURVE",
"578 1147 CURVE SMOOTH",
"471 1147 OFFCURVE",
"350 1131 OFFCURVE",
"210 1099 CURVE",
"210 932 LINE",
"349 968 OFFCURVE",
"462 984 OFFCURVE",
"562 984 CURVE SMOOTH",
"746 984 OFFCURVE",
"849 923 OFFCURVE",
"849 824 CURVE SMOOTH",
"849 743 OFFCURVE",
"750 676 OFFCURVE",
"569 676 CURVE SMOOTH",
"404 676 LINE",
"404 532 LINE",
"562 532 LINE SMOOTH",
"762 532 OFFCURVE",
"881 449 OFFCURVE",
"881 341 CURVE SMOOTH",
"881 210 OFFCURVE",
"758 138 OFFCURVE",
"527 138 CURVE SMOOTH",
"394 138 OFFCURVE",
"270 162 OFFCURVE",
"169 207 CURVE",
"169 34 LINE",
"297 -3 OFFCURVE",
"419 -22 OFFCURVE",
"532 -22 CURVE SMOOTH",
"872 -22 OFFCURVE",
"1064 106 OFFCURVE",
"1064 327 CURVE SMOOTH",
"1064 472 OFFCURVE",
"959 576 OFFCURVE",
"783 607 CURVE"
);
}
);
width = 1233;
}
);
note = uni025C;
unicode = 025C;
},
{
glyphname = uni025D;
lastChange = "2018-02-18 05:41:45 +0000";
layers = (
{
layerId = "3F42F969-BD6F-4F86-8089-1D5B5CB6E2D2";
paths = (
{
closed = 1;
nodes = (
"576 624 OFFCURVE",
"622 654 OFFCURVE",
"655 697 CURVE",
"660 703 LINE",
"660 702 LINE",
"871 864 LINE",
"871 597 OFFCURVE",
"953 478 OFFCURVE",
"1128 478 CURVE SMOOTH",
"1176 478 LINE",
"1176 634 LINE",
"1144 634 LINE SMOOTH",
"1091 634 OFFCURVE",
"1056 650 OFFCURVE",
"1037 682 CURVE SMOOTH",
"1018 715 OFFCURVE",
"1008 782 OFFCURVE",
"1008 884 CURVE SMOOTH",
"1008 1032 LINE",
"870 1032 LINE",
"701 901 LINE",
"682 1037 OFFCURVE",
"574 1147 OFFCURVE",
"363 1147 CURVE SMOOTH",
"283 1147 OFFCURVE",
"192 1131 OFFCURVE",
"87 1099 CURVE",
"87 932 LINE",
"191 968 OFFCURVE",
"276 984 OFFCURVE",
"351 984 CURVE SMOOTH",
"490 984 OFFCURVE",
"567 923 OFFCURVE",
"567 824 CURVE SMOOTH",
"567 743 OFFCURVE",
"493 676 OFFCURVE",
"357 676 CURVE SMOOTH",
"233 676 LINE",
"233 532 LINE",
"351 532 LINE SMOOTH",
"502 532 OFFCURVE",
"591 449 OFFCURVE",
"591 341 CURVE SMOOTH",
"591 210 OFFCURVE",
"498 138 OFFCURVE",
"325 138 CURVE SMOOTH",
"225 138 OFFCURVE",
"133 162 OFFCURVE",
"57 207 CURVE",
"57 34 LINE",
"153 -3 OFFCURVE",
"244 -22 OFFCURVE",
"329 -22 CURVE SMOOTH",
"584 -22 OFFCURVE",
"728 106 OFFCURVE",
"728 327 CURVE SMOOTH",
"728 472 OFFCURVE",
"649 576 OFFCURVE",
"517 607 CURVE"
);
}
);
width = 1233;
}
);
note = uni025D;
unicode = 025D;
},
{
glyphname = uni025E;
lastChange = "2018-02-18 05:41:45 +0000";
layers = (
{
layerId = "3F42F969-BD6F-4F86-8089-1D5B5CB6E2D2";
paths = (
{
closed = 1;
nodes = (
"825 984 OFFCURVE",
"907 895 OFFCURVE",
"907 792 CURVE SMOOTH",
"907 689 OFFCURVE",
"861 630 OFFCURVE",
"676 630 CURVE SMOOTH",
"540 630 LINE",
"540 473 LINE",
"676 473 LINE SMOOTH",
"861 473 OFFCURVE",
"907 414 OFFCURVE",
"907 313 CURVE SMOOTH",
"907 212 OFFCURVE",
"827 119 OFFCURVE",
"670 119 CURVE SMOOTH",
"444 119 OFFCURVE",
"331 268 OFFCURVE",
"331 566 CURVE SMOOTH",
"331 845 OFFCURVE",
"444 984 OFFCURVE",
"670 984 CURVE SMOOTH"
);
},
{
closed = 1;
nodes = (
"268 1000 OFFCURVE",
"176 819 OFFCURVE",
"176 556 CURVE SMOOTH",
"176 327 OFFCURVE",
"268 147 OFFCURVE",
"451 18 CURVE SMOOTH",
"508 -23 OFFCURVE",
"589 -43 OFFCURVE",
"695 -43 CURVE SMOOTH",
"908 -43 OFFCURVE",
"1058 82 OFFCURVE",
"1058 279 CURVE SMOOTH",
"1058 416 OFFCURVE",
"984 515 OFFCURVE",
"853 552 CURVE",
"984 588 OFFCURVE",
"1058 687 OFFCURVE",
"1058 824 CURVE SMOOTH",
"1058 1021 OFFCURVE",
"910 1145 OFFCURVE",
"697 1145 CURVE SMOOTH",
"590 1145 OFFCURVE",
"508 1130 OFFCURVE",
"451 1099 CURVE SMOOTH"
);
}
);
width = 1233;
}
);
note = uni025E;
unicode = 025E;
},
{
glyphname = uni025F;
lastChange = "2018-02-18 05:41:45 +0000";
layers = (
{
layerId = "3F42F969-BD6F-4F86-8089-1D5B5CB6E2D2";
paths = (
{
closed = 1;
nodes = (
"784 1118 LINE",
"283 1118 LINE",
"283 975 LINE",
"600 975 LINE",
"600 616 LINE",
"217 616 LINE",
"217 452 LINE",
"600 452 LINE",
"600 -20 LINE SMOOTH",
"600 -187 OFFCURVE",
"540 -270 OFFCURVE",
"420 -270 CURVE SMOOTH",
"186 -270 LINE",
"186 -426 LINE",
"440 -426 LINE SMOOTH",
"660 -426 OFFCURVE",
"784 -280 OFFCURVE",
"784 -20 CURVE SMOOTH",
"784 452 LINE",
"1137 452 LINE",
"1137 616 LINE",
"784 616 LINE"
);
}
);
width = 1233;
}
);
note = uni025F;
unicode = 025F;
},
{
glyphname = uni0260;
lastChange = "2018-02-18 05:41:45 +0000";
layers = (
{
layerId = "3F42F969-BD6F-4F86-8089-1D5B5CB6E2D2";
paths = (
{
closed = 1;
nodes = (
"273 1118 OFFCURVE",
"123 880 OFFCURVE",
"123 569 CURVE SMOOTH",
"123 218 OFFCURVE",
"273 -8 OFFCURVE",
"505 -8 CURVE SMOOTH",
"622 -8 OFFCURVE",
"704 53 OFFCURVE",
"751 178 CURVE",
"751 53 LINE",
"751 45 LINE SMOOTH",
"751 -190 OFFCURVE",
"681 -293 OFFCURVE",
"521 -293 CURVE SMOOTH",
"449 -293 OFFCURVE",
"363 -264 OFFCURVE",
"258 -203 CURVE",
"258 -385 LINE",
"347 -421 OFFCURVE",
"438 -440 OFFCURVE",
"521 -440 CURVE SMOOTH",
"796 -440 OFFCURVE",
"935 -263 OFFCURVE",
"935 72 CURVE SMOOTH",
"935 1150 LINE SMOOTH",
"935 1234 OFFCURVE",
"944 1297 OFFCURVE",
"963 1338 CURVE SMOOTH",
"982 1379 OFFCURVE",
"1011 1400 OFFCURVE",
"1050 1400 CURVE SMOOTH",
"1076 1400 LINE",
"1076 1556 LINE",
"1027 1556 LINE SMOOTH",
"848 1556 OFFCURVE",
"749 1410 OFFCURVE",
"749 1150 CURVE SMOOTH",
"749 1118 LINE",
"505 1118 LINE SMOOTH"
);
},
{
closed = 1;
nodes = (
"752 294 OFFCURVE",
"676 145 OFFCURVE",
"539 145 CURVE SMOOTH",
"392 145 OFFCURVE",
"314 293 OFFCURVE",
"314 569 CURVE SMOOTH",
"314 845 OFFCURVE",
"393 992 OFFCURVE",
"538 992 CURVE SMOOTH",
"752 992 LINE",
"752 569 LINE SMOOTH"
);
}
);
width = 1233;
}
);
note = uni0260;
unicode = 0260;
},
{
glyphname = uni0261;
lastChange = "2018-02-18 05:41:45 +0000";
layers = (
{
layerId = "3F42F969-BD6F-4F86-8089-1D5B5CB6E2D2";
paths = (
{
closed = 1;
nodes = (
"892 294 OFFCURVE",
"799 145 OFFCURVE",
"630 145 CURVE SMOOTH",
"449 145 OFFCURVE",
"351 293 OFFCURVE",
"351 569 CURVE SMOOTH",
"351 845 OFFCURVE",
"448 992 OFFCURVE",
"628 992 CURVE SMOOTH",
"892 992 LINE",
"892 569 LINE SMOOTH"
);
},
{
closed = 1;
nodes = (
"587 1118 LINE SMOOTH",
"320 1118 OFFCURVE",
"157 869 OFFCURVE",
"157 569 CURVE SMOOTH",
"157 218 OFFCURVE",
"326 -8 OFFCURVE",
"587 -8 CURVE SMOOTH",
"732 -8 OFFCURVE",
"833 53 OFFCURVE",
"892 178 CURVE",
"892 53 LINE",
"892 45 LINE SMOOTH",
"892 -190 OFFCURVE",
"806 -293 OFFCURVE",
"607 -293 CURVE SMOOTH",
"518 -293 OFFCURVE",
"413 -264 OFFCURVE",
"282 -203 CURVE",
"282 -385 LINE",
"393 -421 OFFCURVE",
"506 -440 OFFCURVE",
"607 -440 CURVE SMOOTH",
"915 -440 OFFCURVE",
"1076 -264 OFFCURVE",
"1076 72 CURVE SMOOTH",
"1076 1118 LINE"
);
}
);
width = 1233;
}
);
note = uni0261;
unicode = 0261;
},
